<svg width="20" height="20" viewBox="0 0 20 20" fill="none" xmlns="http://www.w3.org/2000/svg">
<path d="M10.7691 10.7693H14.3508C14.7739 10.7693 15.12 10.4232 15.12 10.0001C15.12 9.57703 14.7739 9.23087 14.3508 9.23087H10.7691H5.64887C5.24022 9.23087 4.87964 9.51933 4.87964 10.0001C4.87964 10.4809 5.22579 10.7693 5.64887 10.7693H10.7691Z" fill="#9A9A9A" fill-opacity="0.75"/>
<path d="M10 18.6538C12.3125 18.6538 14.4856 17.7548 16.1202 16.1202C17.7548 14.4856 18.6538 12.3125 18.6538 10C18.6538 7.6875 17.7548 5.51442 16.1202 3.87981C14.4856 2.24519 12.3125 1.34615 10 1.34615C7.6875 1.34615 5.51442 2.24519 3.87981 3.87981C2.24519 5.51442 1.34615 7.6875 1.34615 10C1.34615 12.3125 2.24519 14.4856 3.87981 16.1202C5.51442 17.7548 7.6875 18.6538 10 18.6538ZM10 20C4.47596 20 0 15.524 0 10C0 4.47596 4.47596 0 10 0C15.524 0 20 4.47596 20 10C20 15.524 15.524 20 10 20Z" fill="#9A9A9A" fill-opacity="0.75"/>
</svg>
