<svg width="181" height="117" viewBox="0 0 181 117" fill="none" xmlns="http://www.w3.org/2000/svg">
<path opacity="0.1" d="M167.847 96.0067C167.282 96.4951 166.704 96.9695 166.114 97.43C166.015 97.5089 165.913 97.5848 165.812 97.6654C163.707 99.2707 161.497 100.738 159.197 102.059L158.767 102.305C158.663 102.367 158.56 102.424 158.452 102.482C156.048 103.846 153.555 105.102 151.032 106.292L151.005 106.305L150.814 106.394C148.779 107.353 146.714 108.271 144.618 109.147L144.568 109.166C143.623 109.557 142.678 109.938 141.733 110.309C141.347 110.464 140.959 110.608 140.572 110.755C139.843 111.029 139.112 111.298 138.375 111.557L138.283 111.591L138.126 111.645L137.929 111.717C136.006 112.392 134.058 113.015 132.084 113.587L132.049 113.597C130.673 113.991 129.287 114.356 127.893 114.692L127.702 114.738C125.655 115.224 123.574 115.643 121.481 115.977L120.999 116.053C119.468 116.289 117.927 116.482 116.375 116.632C107.65 117.461 98.8224 116.787 90.1518 115.632C72.6437 113.296 55.3672 108.918 39.6105 102.056C36.5865 100.739 33.6212 99.3302 30.7147 97.828C30.6911 97.8156 30.6706 97.8032 30.647 97.7923C28.9071 96.8931 27.1909 95.9561 25.4982 94.9815C25.0021 94.6996 24.5091 94.4116 24.0193 94.122C23.4165 93.7647 22.8165 93.4034 22.219 93.0379C21.4315 92.5547 20.644 92.0591 19.8564 91.5527L19.4879 91.3111L19.3461 91.2166C19.1461 91.085 18.9492 90.9533 18.7508 90.8202C11.3481 85.8644 4.74713 79.8586 1.62856 72.3428C-1.97512 63.6701 0.330735 52.6745 9.25646 47.5483C12.3246 45.7828 15.8905 44.8242 19.4942 44.0328L19.8627 43.9522C20.4723 43.8206 21.0818 43.6936 21.6882 43.5666C23.8129 43.1237 25.9487 42.6839 28.064 42.1929C29.1665 41.9374 30.258 41.6695 31.3432 41.3799L31.7873 41.2591C34.4045 40.5687 36.964 39.6823 39.4436 38.6077H39.4593C39.7255 38.4916 39.9885 38.3708 40.2469 38.2469C40.4138 38.1695 40.5808 38.092 40.7477 38.0068C43.4253 36.6967 46.2603 34.88 48.4418 32.715C48.6166 32.5415 48.7867 32.365 48.9521 32.1884C49.0796 32.0506 49.2056 31.9112 49.3269 31.7718C50.8563 30.0187 51.9147 28.072 52.1163 26.0061C52.1842 25.3118 52.1524 24.6117 52.0218 23.9262C51.7745 22.6268 51.5351 21.3554 51.3587 20.1149C51.0295 17.7841 50.9177 15.5555 51.3745 13.4075C51.8391 11.2177 52.8928 9.10989 54.9041 7.06563C55.2076 6.75589 55.5347 6.44615 55.8854 6.13641C57.512 4.73324 59.3525 3.58981 61.3397 2.74789C61.5854 2.64464 61.8327 2.5414 62.0816 2.43815C67.6068 0.239016 74.2455 -0.219395 80.448 0.0841478C86.2428 0.377373 92.0007 1.165 97.6569 2.43815C98.1058 2.53727 98.5546 2.64103 99.0004 2.74789C103.812 3.89393 108.546 5.33338 113.176 7.05788C125.206 11.5073 136.56 17.685 147.168 24.5023C147.272 24.5689 147.376 24.6355 147.483 24.7036C147.926 24.9875 148.367 25.2725 148.805 25.5585C149.652 26.1109 150.492 26.6668 151.325 27.2264L151.887 27.6028C152.164 27.7886 152.44 27.975 152.714 28.1618L153.558 28.7364C153.598 28.7599 153.636 28.7863 153.671 28.8154L154.39 29.3048C154.805 29.5897 155.218 29.8762 155.632 30.1643L156.521 30.7838C156.705 30.9139 156.891 31.0424 157.075 31.174L158.02 31.8524L158.231 32.0072C158.275 32.0382 158.319 32.0692 158.362 32.1032L158.389 32.1203C160.95 33.9679 163.449 35.8836 165.791 37.9139L166.094 38.1772L166.125 38.2051C166.38 38.4281 166.636 38.6542 166.886 38.8818C169.945 41.6199 172.685 44.5624 174.925 47.8147C185.213 62.8369 182.159 83.6373 167.847 96.0067Z" fill="#A44200" fill-opacity="0.3"/>
<path d="M118.043 46.9337C118.075 46.9337 118.101 46.9078 118.101 46.8758C118.101 46.8439 118.075 46.818 118.043 46.818C118.011 46.818 117.985 46.8439 117.985 46.8758C117.985 46.9078 118.011 46.9337 118.043 46.9337Z" fill="#E6E8EC"/>
<path d="M71.2769 79.4036C71.2769 79.4036 72.9138 78.234 74.6147 78.9589C74.6147 78.9589 74.1385 79.964 72.0254 79.9506L71.2769 79.4036Z" fill="#A44200"/>
<path d="M71.0733 79.4718C71.0733 79.4718 70.6358 81.4331 71.9661 82.705C71.9661 82.705 72.7102 81.8748 71.8664 79.9432L71.0733 79.4718Z" fill="#A44200"/>
<path d="M68.9033 77.687C68.9033 77.687 68.9643 76.0311 72.7277 76.4358C72.7277 76.4358 72.7872 77.5016 71.4926 78.0561C70.198 78.6105 69.5804 78.2088 68.9033 77.687Z" fill="#A44200"/>
<path d="M68.6724 77.6795C68.6724 77.6795 67.1099 78.2458 68.6546 81.6895C68.6546 81.6895 69.6962 81.4167 69.8212 80.0188C69.9462 78.6209 69.3778 78.1657 68.6724 77.6795Z" fill="#A44200"/>
<path d="M66.464 75.4233C66.464 75.4233 66.1455 72.7148 69.9818 72.8468C69.9818 72.8468 70.3479 75.2958 67.1649 76.0503L66.464 75.4233Z" fill="#A44200"/>
<path d="M63.8184 72.4524C63.8184 72.4524 64.2246 69.3526 68.0833 70.125C68.0833 70.125 68.1993 72.7934 64.4701 73.1625L63.8184 72.4524Z" fill="#A44200"/>
<path d="M61.8496 69.3512C61.8496 69.3512 62.6115 66.3122 66.4344 67.0727C66.4344 67.0727 65.6368 69.8033 62.119 69.8893L61.8496 69.3512Z" fill="#A44200"/>
<path d="M59.9761 66.3211C59.9761 66.3211 60.7201 63.1753 64.4061 63.9714C64.4061 63.9714 63.299 66.9748 60.2395 66.8429L59.9761 66.3211Z" fill="#A44200"/>
<path d="M58.7305 63.4229C58.7305 63.4229 59.2439 59.5937 62.6903 60.3023C62.6903 60.3023 61.8331 63.8039 59.0058 63.9669L58.7305 63.4229Z" fill="#A44200"/>
<path d="M57.5342 59.908C57.5342 59.908 58.1785 56.0403 61.6681 57.0247C61.6681 57.0247 60.4553 60.7026 57.7991 60.4343L57.5342 59.908Z" fill="#A44200"/>
<path d="M56.7505 56.6288C56.7505 56.6288 57.8606 52.7434 60.5332 52.7448C60.5332 52.7448 59.4023 56.8468 57.0035 57.3893L56.7505 56.6288Z" fill="#A44200"/>
<path d="M56.21 53.4134C56.21 53.4134 57.4004 48.7422 59.585 49.015C59.585 49.015 58.774 52.5818 56.3112 54.1294L56.21 53.4134Z" fill="#A44200"/>
<path d="M55.8242 49.5665C55.8242 49.5665 56.9581 45.6677 59.098 45.4334C59.098 45.4334 58.3704 49.2537 55.912 50.5642L55.8242 49.5665Z" fill="#A44200"/>
<path d="M55.4268 45.9864C55.4268 45.9864 56.8776 42.0727 58.2913 41.9319C58.2913 41.9319 57.7422 45.7521 55.5919 46.6134L55.4268 45.9864Z" fill="#A44200"/>
<path d="M55.1206 42.6509C55.1206 42.6509 55.9435 38.4274 57.3438 38.0272C57.3438 38.0272 57.2828 41.4575 55.2754 42.9578L55.1206 42.6509Z" fill="#A44200"/>
<path d="M54.4194 38.2969C54.4194 38.2969 55.3257 34.9214 56.4522 34.37C56.4522 34.37 56.3763 38.3103 54.7171 39.1019L54.4194 38.2969Z" fill="#A44200"/>
<path d="M53.8676 35.4403L53.4331 29.5654C53.4331 29.5654 55.7411 33.9237 54.0596 36.4676L53.8676 35.4403Z" fill="#A44200"/>
<path d="M51.9881 29.6573C51.9881 29.6573 50.2828 25.422 49.9048 25.1966C49.9048 25.1966 53.0298 27.865 52.881 31.4629L51.9881 29.6573Z" fill="#A44200"/>
<path d="M66.3587 75.4069C66.3587 75.4069 63.6325 75.1579 63.8602 78.9737C63.8602 78.9737 66.3275 79.2702 67.006 76.0889L66.3587 75.4069Z" fill="#A44200"/>
<path d="M63.6859 72.3546C63.6859 72.3546 60.5505 72.4643 60.9567 76.3572C60.9567 76.3572 63.6055 76.7248 64.3332 73.0632L63.6859 72.3546Z" fill="#A44200"/>
<path d="M61.829 69.6061C61.829 69.6061 58.9317 68.3846 57.2427 71.8846C57.2427 71.8846 59.9138 72.8927 62.1013 70.1502L61.829 69.6061Z" fill="#A44200"/>
<path d="M59.9134 66.3522C59.9134 66.3522 56.9446 65.0491 55.3628 68.4661C55.3628 68.4661 58.4387 69.3912 60.1738 66.874L59.9134 66.3522Z" fill="#A44200"/>
<path d="M58.7711 63.5044C58.7711 63.5044 55.8649 60.9427 53.731 63.7268C53.731 63.7268 56.6803 65.8126 58.9229 64.0929L58.7711 63.5044Z" fill="#A44200"/>
<path d="M57.6905 59.8116C57.6905 59.8116 54.7634 57.1892 52.6533 60.1289C52.6533 60.1289 55.9063 62.2473 57.8126 60.3794L57.6905 59.8116Z" fill="#A44200"/>
<path d="M57.0355 56.5058C57.0355 56.5058 54.7304 53.1821 52.2021 54.039C52.2021 54.039 54.595 57.5613 57.0414 57.3004L57.0355 56.5058Z" fill="#A44200"/>
<path d="M56.2723 53.3897C56.2723 53.3897 53.9167 49.1796 51.875 50.0038C51.875 50.0038 53.5804 53.2429 56.3571 54.1087L56.2723 53.3897Z" fill="#A44200"/>
<path d="M55.9659 49.3411C55.9659 49.3411 53.5849 46.0486 51.4927 46.5423C51.4927 46.5423 53.4629 49.8971 56.2218 50.3107L55.9659 49.3411Z" fill="#A44200"/>
<path d="M55.6621 45.9019C55.6621 45.9019 53.7722 42.178 52.3511 42.1958C52.3511 42.1958 53.3347 45.9286 55.5683 46.5408L55.6621 45.9019Z" fill="#A44200"/>
<path d="M55.1872 42.5649C55.1872 42.5649 53.1039 38.7995 51.6426 38.8484C51.6426 38.8484 52.7616 42.0935 55.1351 42.9059L55.1872 42.5649Z" fill="#A44200"/>
<path d="M54.7394 38.5193C54.7394 38.5193 53.1664 35.3973 51.9521 35.0845C51.9521 35.0845 52.8257 38.9285 54.6129 39.3688L54.7394 38.5193Z" fill="#A44200"/>
<path d="M53.6908 35.335L50.2593 30.5378C50.2593 30.5378 51.2771 35.3587 54.1998 36.2527L53.6908 35.335Z" fill="#A44200"/>
<path d="M51.2605 30.0813C51.2605 30.0813 47.3915 27.6337 47.2427 27.2216C47.2427 27.2216 49.3052 30.7795 52.8826 31.282L51.2605 30.0813Z" fill="#A44200"/>
<path d="M50.9892 28.9249C50.9892 28.9249 46.5041 24.9475 45.3999 24.9935C45.3999 24.9935 48.9713 25.0202 51.0844 28.6996L50.9892 28.9249Z" fill="#A44200"/>
<path d="M54.7221 39.136L54.5643 39.1627C53.5078 32.8549 52.1834 29.1532 50.8218 28.7411L50.8679 28.5929C52.3069 29.0257 53.6387 32.674 54.7221 39.136Z" fill="#444053"/>
<path d="M56.4989 54.248L56.2623 54.2777C56.1893 53.6847 56.1283 53.0828 56.0777 52.4809C55.6492 47.242 55.1119 42.4374 54.5107 38.8425L54.6417 38.6675C55.2369 42.2684 55.8873 47.2153 56.3173 52.4543C56.3649 53.0606 56.4274 53.6639 56.4989 54.248Z" fill="#444053"/>
<path d="M75.836 82.2528C75.7929 82.2351 71.5295 80.5317 67.0071 76.249C64.3594 73.743 62.1269 70.8349 60.3926 67.633C58.2244 63.6304 56.8048 58.6613 56.2065 53.8048L56.4595 53.9115C57.7988 64.8104 63.0875 72.0951 67.217 76.0088C71.6946 80.253 75.9104 81.9386 75.9521 81.9578L75.836 82.2528Z" fill="#444053"/>
<g opacity="0.7">
<path opacity="0.7" d="M78.7988 77.4171C78.7988 77.4171 80.7125 76.7871 82.1173 77.979C82.1173 77.979 81.3628 78.7987 79.3494 78.1583L78.7988 77.4171Z" fill="#A44200"/>
<path opacity="0.7" d="M78.5833 77.4201C78.5833 77.4201 77.5803 79.1634 78.4732 80.7734C78.4732 80.7734 79.43 80.1997 79.2023 78.105L78.5833 77.4201Z" fill="#A44200"/>
<path opacity="0.7" d="M77.0444 75.0748C77.0444 75.0748 77.598 73.5109 81.0623 75.0141C81.0623 75.0141 80.8004 76.0518 79.3986 76.2C77.9968 76.3482 77.5355 75.7731 77.0444 75.0748Z" fill="#A44200"/>
<path opacity="0.7" d="M76.827 75.0111C76.827 75.0111 75.1648 75.0897 75.6128 78.8343C75.6128 78.8343 76.6812 78.8818 77.2244 77.5861C77.7675 76.2905 77.3553 75.6723 76.827 75.0111Z" fill="#A44200"/>
<path opacity="0.7" d="M75.3911 72.1945C75.3911 72.1945 75.8971 69.5142 79.5191 70.7772C79.5191 70.7772 79.1367 73.2233 75.8733 73.0009L75.3911 72.1945Z" fill="#A44200"/>
<path opacity="0.7" d="M73.7524 68.5699C73.7524 68.5699 75.0664 65.731 78.5143 67.6122C78.5143 67.6122 77.8313 70.1872 74.1587 69.4401L73.7524 68.5699Z" fill="#A44200"/>
<path opacity="0.7" d="M72.7988 65.0254C72.7988 65.0254 74.4357 62.3496 77.8583 64.2085C77.8583 64.2085 76.281 66.5805 72.897 65.6258L72.7988 65.0254Z" fill="#A44200"/>
<path opacity="0.7" d="M71.9165 61.5772C71.9165 61.5772 73.5623 58.7932 76.8495 60.6462C76.8495 60.6462 74.8957 63.1856 72.0103 62.1524L71.9165 61.5772Z" fill="#A44200"/>
<path opacity="0.7" d="M71.5933 58.4404C71.5933 58.4404 73.2302 54.9344 76.3016 56.6347C76.3016 56.6347 74.437 59.7227 71.6885 59.0407L71.5933 58.4404Z" fill="#A44200"/>
<path opacity="0.7" d="M71.5 54.7313C71.5 54.7313 73.2708 51.2298 76.308 53.2044C76.308 53.2044 74.0506 56.3561 71.5937 55.305L71.5 54.7313Z" fill="#A44200"/>
<path opacity="0.7" d="M71.7319 51.3647C71.7319 51.3647 73.9522 47.9847 76.5028 48.7778C76.5028 48.7778 74.1977 52.3594 71.7409 52.1667L71.7319 51.3647Z" fill="#A44200"/>
<path opacity="0.7" d="M72.1756 48.1374C72.1756 48.1374 74.7054 44.0295 76.7113 44.9398C76.7113 44.9398 74.8706 48.1033 72.061 48.8519L72.1756 48.1374Z" fill="#A44200"/>
<path opacity="0.7" d="M72.958 44.3498C72.958 44.3498 75.205 40.9653 77.3151 41.3745C77.3151 41.3745 75.4803 44.8063 72.7407 45.3296L72.958 44.3498Z" fill="#A44200"/>
<path opacity="0.7" d="M73.6455 40.8156C73.6455 40.8156 76.2005 37.5083 77.5919 37.7929C77.5919 37.7929 75.9267 41.2766 73.6172 41.4634L73.6455 40.8156Z" fill="#A44200"/>
<path opacity="0.7" d="M74.3496 37.5394C74.3496 37.5394 76.3958 33.7518 77.8541 33.7844C77.8541 33.7844 76.7707 37.0458 74.4047 37.8789L74.3496 37.5394Z" fill="#A44200"/>
<path opacity="0.7" d="M74.9819 33.1751C74.9819 33.1751 76.854 30.2221 78.095 30.0279C78.095 30.0279 76.845 33.7681 75.0251 34.0305L74.9819 33.1751Z" fill="#A44200"/>
<path opacity="0.7" d="M75.3066 30.2829L76.6458 24.5473C76.6458 24.5473 77.5491 29.3904 75.1875 31.3265L75.3066 30.2829Z" fill="#A44200"/>
<path opacity="0.7" d="M75.2398 24.2063C75.2398 24.2063 74.8767 19.6567 74.5806 19.3291C74.5806 19.3291 76.7725 22.8069 75.5478 26.1928L75.2398 24.2063Z" fill="#A44200"/>
<path opacity="0.7" d="M75.2961 72.1441C75.2961 72.1441 72.7663 71.096 71.8467 74.8124C71.8467 74.8124 74.1101 75.8338 75.7157 72.9906L75.2961 72.1441Z" fill="#A44200"/>
<path opacity="0.7" d="M73.6561 68.4365C73.6561 68.4365 70.6308 67.6122 69.854 71.4547C69.854 71.4547 72.2721 72.5918 74.0623 69.3111L73.6561 68.4365Z" fill="#A44200"/>
<path opacity="0.7" d="M72.7036 65.2626C72.7036 65.2626 70.3033 63.2376 67.644 66.0794C67.644 66.0794 69.8926 67.8331 72.8003 65.863L72.7036 65.2626Z" fill="#A44200"/>
<path opacity="0.7" d="M71.8468 61.5891C71.8468 61.5891 69.4033 59.4647 66.8721 62.2621C66.8721 62.2621 69.5313 64.0559 71.9405 62.1657L71.8468 61.5891Z" fill="#A44200"/>
<path opacity="0.7" d="M71.607 58.5308C71.607 58.5308 69.5966 55.2235 66.729 57.2485C66.729 57.2485 68.921 60.1155 71.5757 59.1371L71.607 58.5308Z" fill="#A44200"/>
<path opacity="0.7" d="M71.6783 54.6839C71.6783 54.6839 69.6664 51.3143 66.7676 53.4979C66.7676 53.4979 69.2408 56.485 71.6188 55.2665L71.6783 54.6839Z" fill="#A44200"/>
<path opacity="0.7" d="M72.0386 51.3335C72.0386 51.3335 70.8318 47.4792 68.1606 47.5459C68.1606 47.5459 69.3943 51.6197 71.8065 52.1014L72.0386 51.3335Z" fill="#A44200"/>
<path opacity="0.7" d="M72.2427 48.1329C72.2427 48.1329 71.2501 43.4158 69.0552 43.5982C69.0552 43.5982 69.7159 47.196 72.1088 48.8445L72.2427 48.1329Z" fill="#A44200"/>
<path opacity="0.7" d="M73.1592 44.1763C73.1592 44.1763 71.869 40.3219 69.7231 40.1737C69.7231 40.1737 70.6041 43.9628 73.113 45.174L73.1592 44.1763Z" fill="#A44200"/>
<path opacity="0.7" d="M73.8961 40.8037C73.8961 40.8037 73.2041 36.6885 71.841 36.2867C71.841 36.2867 71.6654 40.1411 73.6163 41.3893L73.8961 40.8037Z" fill="#A44200"/>
<path opacity="0.7" d="M74.4462 37.4772C74.4462 37.4772 73.5786 33.2641 72.1724 32.8816C72.1724 32.8816 72.2706 36.3105 74.2959 37.79L74.4462 37.4772Z" fill="#A44200"/>
<path opacity="0.7" d="M75.22 33.4835C75.22 33.4835 74.6501 30.0368 73.5831 29.3756C73.5831 29.3756 73.2692 33.3056 74.8435 34.2558L75.22 33.4835Z" fill="#A44200"/>
<path opacity="0.7" d="M75.1696 30.1316L73.3259 24.5354C73.3259 24.5354 72.8571 29.4408 75.381 31.1605L75.1696 30.1316Z" fill="#A44200"/>
<path opacity="0.7" d="M74.4181 24.3961C74.4181 24.3961 71.4553 20.9123 71.4419 20.4735C71.4419 20.4735 72.3481 24.4761 75.6086 26.0208L74.4181 24.3961Z" fill="#A44200"/>
<path opacity="0.7" d="M74.5041 23.2116C74.5041 23.2116 71.4103 18.0838 70.3374 17.8007C70.3374 17.8007 73.7422 18.8858 74.6529 23.0248L74.5041 23.2116Z" fill="#A44200"/>
<path opacity="0.7" d="M75.0175 34.066L74.8598 34.0438C75.7348 27.7093 75.5711 23.7809 74.3984 22.9848L74.4892 22.8543C75.7318 23.6978 75.9148 27.5729 75.0175 34.066Z" fill="#444053"/>
<path opacity="0.7" d="M72.2019 49.0209L71.9668 48.9779C72.0739 48.3924 72.1945 47.792 72.3284 47.2079C73.4832 42.0801 74.4117 37.3334 74.9043 33.7177L75.0814 33.5902C74.5814 37.2059 73.7183 42.1202 72.5605 47.2539C72.4296 47.8468 72.3076 48.4383 72.2019 49.0209Z" fill="#444053"/>
<path opacity="0.7" d="M82.3005 81.4879C82.2648 81.4597 78.7023 78.5675 75.6651 73.1403C73.8825 69.9634 72.6173 66.5248 71.9166 62.9529C71.0416 58.4878 71.1725 53.317 72.049 48.511L72.2588 48.6874C70.2871 59.4914 73.1517 68.0125 75.9299 72.9728C78.9374 78.3511 82.4582 81.2122 82.494 81.2403L82.3005 81.4879Z" fill="#444053"/>
</g>
<path d="M46.738 67.8316C46.3882 67.9753 46.0248 68.0835 45.6532 68.1548C45.004 68.2759 44.345 68.3379 43.6845 68.3401C43.7038 68.5136 43.7187 68.6752 43.7336 68.8219C43.7693 69.2251 43.7901 69.5024 43.7901 69.5024L43.0922 69.4549L37.3363 69.0636L33.9702 68.5669C34.1327 68.7842 34.3091 68.9907 34.4985 69.1851C34.6946 69.3919 34.9214 69.5674 35.1711 69.7055C35.1711 69.7055 38.2083 72.1559 38.7336 72.1782C38.808 72.1782 38.8318 72.2523 38.8199 72.3694C40.0982 72.3694 44.0729 72.5547 42.9702 74.7591C42.7878 75.152 42.4661 75.464 42.0669 75.6352C40.7916 76.1733 38.8675 75.2053 37.8764 74.6108C37.7797 74.7991 37.6874 74.9741 37.6056 75.1238C37.4374 75.4395 37.3199 75.6486 37.3199 75.6486L37.2202 75.5774L32.113 71.9543L30.994 71.0085C30.6653 70.9936 30.3398 70.9373 30.0252 70.841V70.841L29.8764 70.7936C29.87 70.8065 29.8645 70.8199 29.8601 70.8336C29.8193 70.9493 29.7889 71.0683 29.7693 71.1894C29.7693 71.2072 29.7693 71.225 29.7693 71.2427C29.7484 71.3808 29.7345 71.5198 29.7276 71.6593C29.7276 71.7542 29.7202 71.855 29.7202 71.9558C29.7113 73.9749 30.5238 77.22 30.5238 77.22C30.5238 77.22 32.6294 82.5701 31.8824 83.805C31.8439 83.8676 31.7933 83.922 31.7336 83.9651C31.4702 84.1548 31.3124 84.4928 31.2306 84.8946C30.9523 86.205 31.4404 88.2048 31.4404 88.2048C31.4404 88.2048 31.3958 88.279 31.3199 88.3946C31.1557 88.6561 30.9706 88.904 30.7663 89.1358C30.7351 89.1714 30.7023 89.2085 30.6681 89.2426C30.576 89.339 30.4765 89.4282 30.3705 89.5094C30.3898 89.5672 30.4107 89.6265 30.4315 89.6903C30.4523 89.754 30.4791 89.8533 30.4999 89.9423C30.6657 90.6708 30.6007 91.4327 30.3139 92.1229C30.1189 92.6261 29.9928 93.1532 29.9389 93.6899V93.6899C29.8422 94.6726 29.8677 95.6635 30.0148 96.6399C29.9925 96.6281 29.9732 96.6162 29.9508 96.6058C28.305 95.749 26.6825 94.8541 25.0833 93.9211C24.6145 93.6513 24.1488 93.3756 23.686 93.0984C23.1165 92.7564 22.5496 92.4105 21.9851 92.0607C21.241 91.5982 20.497 91.1238 19.7529 90.639L19.4047 90.4078L19.2708 90.3173C19.0818 90.1913 18.8958 90.0653 18.7083 89.9378C17.9389 88.9473 17.236 87.9074 16.6041 86.8247C16.4985 86.6364 16.4032 86.457 16.3244 86.2925V86.2836L16.2738 86.1754L16.0639 86.1013C15.6696 85.9634 15.4196 85.867 15.4196 85.867C15.6016 85.2056 15.6888 84.5219 15.6785 83.8361C15.6666 82.5019 15.2961 80.723 13.7693 79.2968C11.5133 77.1725 11.2023 75.0749 11.1696 74.2699C11.1696 74.2136 11.1696 74.1632 11.1696 74.1216C11.1688 74.0538 11.1718 73.986 11.1785 73.9186L11.3511 73.754C10.9136 73.6665 10.5029 73.6265 10.5029 73.6265C10.5029 73.6265 12 68.2304 14.5208 66.4293C15.7708 65.5398 16.811 64.0573 17.5461 62.7854C18.8871 60.4867 20.393 58.2875 22.052 56.2049L22.5059 55.6341L22.6383 55.4666L22.6666 55.4325L22.7023 55.3851C22.6408 55.2922 22.5783 55.2002 22.5148 55.1093L22.4732 55.0485C22.2752 54.7521 22.1056 54.4556 22.1324 54.1013C22.1324 54.1013 22.1324 54.0939 22.1324 54.0909C22.1324 54.0657 22.1324 54.042 22.1324 54.0153C22.1387 53.9562 22.1497 53.8977 22.1651 53.8404C22.1702 53.8498 22.1762 53.8587 22.183 53.867C22.3958 53.2503 23.2157 52.9776 23.8199 52.6366C25.244 51.8391 25.8511 50.0942 26.1562 48.471C26.3928 47.2079 26.5892 45.7922 27.5714 44.9813C28.2053 44.4595 29.0595 44.2875 29.7008 43.7701C30.0719 43.4435 30.3787 43.0508 30.6056 42.6123C30.7544 42.3603 30.8824 42.0994 31.0208 41.8474C31.6547 40.7059 32.488 39.6445 33.5907 38.9611C34.6934 38.2777 36.0922 38.0123 37.3005 38.4719C37.7663 38.6483 38.1934 38.9166 38.6398 39.1138C38.9155 39.2258 39.2003 39.314 39.491 39.3777C40.4002 39.5896 41.3571 39.6445 42.2113 40.0225C43.5996 40.6362 44.5029 41.9942 45.3273 43.2839C45.7544 43.951 46.4255 44.9264 46.8065 45.9078C46.8065 45.8722 46.8065 45.8396 46.8065 45.8055C46.9902 46.2377 47.0911 46.7002 47.1041 47.1694C47.1116 47.3691 47.09 47.5688 47.0401 47.7623C46.9032 48.2664 46.5535 48.5851 46.1145 48.8193L46.0446 48.8534C45.9507 48.9015 45.8544 48.9445 45.7559 48.9824C45.741 49.0639 45.7246 49.1469 45.7068 49.227C45.6993 49.2611 45.6904 49.2967 45.6815 49.3308C45.6621 49.4138 45.6398 49.4953 45.616 49.5769C45.2979 50.6364 44.6775 51.581 43.8303 52.2956C43.2436 52.7957 42.5655 53.1782 41.8333 53.4223C41.7812 53.4401 41.7261 53.4534 41.6741 53.4697C41.6298 53.5938 41.5665 53.7103 41.4866 53.8152C41.4286 53.889 41.3605 53.9544 41.2842 54.0094C41.2366 54.0414 41.1869 54.0702 41.1354 54.0953C41.1227 54.1032 41.1093 54.1097 41.0952 54.1146C40.5595 54.3548 39.8258 54.1665 39.3095 53.8077C39.2827 53.79 39.2574 53.7692 39.2321 53.7499C39.2321 53.8344 39.2187 53.9234 39.2038 54.0153C39.1889 54.1072 39.1785 54.1635 39.1622 54.2406C39.1458 54.3177 39.1398 54.3548 39.1294 54.4096C39.119 54.4645 39.1116 54.5015 39.1026 54.5445L39.0848 54.6201C38.79 56.051 38.2276 57.4138 37.427 58.6375C37.3109 58.8128 37.1852 58.9815 37.0505 59.143L36.6815 59.7034V59.779C36.7514 61.0687 36.3258 62.271 35.7247 63.3057C35.5233 63.6488 35.3022 63.9799 35.0624 64.2975L35.1458 64.3464C35.9791 64.8193 37.622 65.6599 38.6607 65.5887C38.6607 65.5887 42.5892 66.0942 43.0446 65.8407C43.1071 65.8051 43.1681 65.8541 43.2246 65.9593C43.8601 65.5739 45.3214 64.7571 46.4746 64.6488C47.2812 64.5718 47.9374 64.8401 48.0595 65.8348C48.1815 66.8295 47.5803 67.4714 46.738 67.8316Z" fill="url(#paint0_linear)"/>
<path opacity="0.5" d="M25.2339 88.2167C25.4854 88.6442 25.6354 89.1233 25.6726 89.6174C25.7097 90.1114 25.633 90.6075 25.4481 91.0675C25.0865 91.9703 25.0464 93.0954 25.0836 93.9212C24.6148 93.6514 24.149 93.3756 23.6862 93.0984C23.1168 92.7565 22.5498 92.4106 21.9854 92.0607C21.2413 91.5982 20.4973 91.1238 19.7532 90.639L19.405 90.4078L19.2711 90.3173C19.2594 90.2958 19.2448 90.2758 19.2279 90.258C19.0285 90.0475 17.8663 88.3872 17.1758 87.1271C17.0508 86.8959 16.9422 86.6824 16.8559 86.4867V86.4763C16.7071 86.1472 16.6371 85.8834 16.6818 85.7633C16.7359 85.5743 16.8277 85.3981 16.9517 85.2453C17.0757 85.0925 17.2294 84.9661 17.4035 84.8738C18.2606 84.4291 19.6356 84.8397 20.9958 85.4935C22.166 86.0827 23.2876 86.7633 24.3499 87.5289L24.4705 87.6163L24.4824 87.6252C24.9288 87.941 25.1877 88.15 25.1877 88.15C25.1877 88.15 25.2071 88.1737 25.2339 88.2167Z" fill="#D69766"/>
<path opacity="0.6" d="M25.0077 88.0196C25.2597 88.4474 25.41 88.927 25.4471 89.4216C25.4843 89.9163 25.4073 90.4129 25.222 90.8733C24.8604 91.7761 24.8202 92.9013 24.8574 93.7285C24.3891 93.4567 23.9233 93.1819 23.4601 92.9042C22.8896 92.5623 22.3227 92.2164 21.7592 91.8665C21.0151 91.4025 20.2711 90.9281 19.5345 90.4434L19.1862 90.2121L19.0523 90.1217C19.0402 90.1003 19.0258 90.0804 19.0092 90.0624C18.8098 89.8533 17.6476 88.193 16.9571 86.9314C16.8321 86.7002 16.7234 86.4867 16.6371 86.291V86.2821C16.4883 85.9516 16.4184 85.6892 16.463 85.5676C16.5174 85.3787 16.6093 85.2027 16.7332 85.0499C16.8572 84.8971 17.0108 84.7707 17.1848 84.6781C18.0419 84.2334 19.4169 84.644 20.777 85.2978C21.9472 85.887 23.0688 86.5676 24.1312 87.3332L24.2517 87.4207L24.2636 87.4296C24.7101 87.7453 24.969 87.9543 24.969 87.9543C24.969 87.9543 24.9809 87.9766 25.0077 88.0196Z" fill="#D69766"/>
<path d="M30.4864 91.6145C30.4431 91.8683 30.3728 92.1168 30.2766 92.3557C30.1118 92.7857 29.9984 93.2335 29.9388 93.6899V93.6899C29.8216 94.6586 29.8256 95.6381 29.9507 96.6059C28.3049 95.749 26.6823 94.8541 25.0831 93.9212C24.6144 93.6514 24.1486 93.3756 23.6858 93.0984C23.5816 92.3097 23.4328 91.616 23.2647 91.4455C23.0444 91.2142 21.787 89.4234 21.0057 88.0106C20.9046 87.8328 20.8168 87.6608 20.7349 87.4977V87.4903C20.7037 87.4251 20.6739 87.3628 20.6456 87.3006C20.4447 86.8707 20.3376 86.5356 20.3912 86.374C20.4956 86.0227 20.7105 85.714 21.0043 85.4935C22.3242 84.5328 25.0682 85.8329 27.1754 87.1241L27.2275 87.1553C27.6263 87.4028 28.0043 87.6475 28.3435 87.8758L28.5415 88.0092C29.4135 88.6021 29.9924 89.0632 29.9924 89.0632C30.1362 89.2842 30.2517 89.5222 30.3361 89.7718C30.3858 89.9125 30.4271 90.0561 30.4596 90.2017C30.5626 90.6662 30.5717 91.1464 30.4864 91.6145V91.6145Z" fill="#D69766"/>
<path opacity="0.1" d="M17.1833 87.1271C18.2651 87.5037 19.8618 88.0033 20.7309 88.0166C20.8209 88.0193 20.911 88.0149 21.0002 88.0033V88.0033C21.6118 87.9202 23.4973 88.0537 25.2279 88.2093C25.9214 88.2701 26.5895 88.3338 27.1416 88.3902L28.5285 88.5384V88.0047C28.1431 87.7409 27.6952 87.4473 27.216 87.1508C25.1014 85.8493 22.3232 84.5195 20.9928 85.4875C19.1193 84.5862 17.2175 84.1533 16.6773 85.7573C16.6148 85.9664 16.8425 86.4971 17.1833 87.1271Z" fill="black"/>
<path d="M11.9848 74.7028C12.0146 75.5018 12.3152 77.5758 14.4685 79.6705C17.2155 82.3388 16.0444 86.1754 16.0444 86.1754C16.0444 86.1754 19.3182 87.4562 20.7304 87.4903C20.8204 87.4931 20.9104 87.4886 20.9997 87.477C21.8464 87.3599 25.2125 87.6697 27.147 87.8639L28.5339 88.0121V76.6685L13.3643 72.998L11.9908 74.3618C11.9815 74.4752 11.9795 74.5891 11.9848 74.7028V74.7028Z" fill="#5C5C8E"/>
<g opacity="0.1">
<path opacity="0.1" d="M28.2859 87.8713L28.5344 87.8965V88.0181L27.1475 87.8698C25.7591 87.7305 23.6371 87.5318 22.2368 87.474C23.2056 87.388 26.4124 87.683 28.2859 87.8713Z" fill="black"/>
<path opacity="0.1" d="M11.9909 74.3692L13.3644 73.0054L14.2811 73.2263L13.1368 74.3692C13.1295 74.4828 13.1295 74.5966 13.1368 74.7102C13.1665 75.5092 13.4671 77.5817 15.6204 79.6778C18.3674 82.3462 17.1963 86.1813 17.1963 86.1813C17.1963 86.1813 19.9046 87.2413 21.4567 87.4592C21.3075 87.4586 21.1584 87.467 21.0103 87.4844C20.921 87.496 20.8309 87.5005 20.7409 87.4977C19.3287 87.4621 16.0549 86.1813 16.0549 86.1813C16.0549 86.1813 17.226 82.3462 14.479 79.6778C12.3153 77.5817 12.0147 75.5092 11.985 74.7146C11.9795 74.5995 11.9815 74.4841 11.9909 74.3692Z" fill="black"/>
</g>
<path d="M42.3037 66.6917C42.3037 66.6917 46.8915 63.5222 47.2263 66.3744C47.5611 69.2266 42.3037 68.8264 42.3037 68.8264V66.6917Z" fill="#D69766"/>
<path d="M34.3931 64.5895C34.3931 64.5895 36.8738 66.2202 38.2473 66.1239C38.2473 66.1239 41.9973 66.6249 42.4333 66.3744C42.8693 66.1239 43.1372 69.9945 43.1372 69.9945L36.975 69.5602L33.0226 68.9598C33.0226 68.9598 31.0464 67.759 31.0464 66.7243C31.0464 65.6895 34.3931 64.5895 34.3931 64.5895Z" fill="#F7CDDD"/>
<path d="M34.3931 64.5895C34.3931 64.5895 36.8738 66.2202 38.2473 66.1239C38.2473 66.1239 41.9973 66.6249 42.4333 66.3744C42.8693 66.1239 43.1372 69.9945 43.1372 69.9945L36.975 69.5602L33.0226 68.9598C33.0226 68.9598 31.0464 67.759 31.0464 66.7243C31.0464 65.6895 34.3931 64.5895 34.3931 64.5895Z" fill="#A44200"/>
<path d="M38.0296 72.8379C38.0296 72.8379 43.6085 72.6081 42.3585 75.1964C41.1085 77.7848 36.8823 74.642 36.8823 74.642L38.0296 72.8379Z" fill="#D69766"/>
<path d="M32.4199 67.3247C32.4199 67.3247 36.9408 63.9551 36.3053 59.8517C35.6699 55.7483 32.4199 62.9885 32.4199 62.9885V67.3247Z" fill="#5C5C8E"/>
<path d="M33.6729 48.7215C33.6737 50.1976 34.2499 51.6156 35.28 52.6767C35.8356 53.2481 36.5045 53.6979 37.2443 53.9975C37.4828 54.0969 37.7286 54.1782 37.9794 54.2406C38.2459 54.3091 38.5169 54.3587 38.7904 54.3889C38.9868 54.4082 39.1848 54.4185 39.3857 54.4185C40.0251 54.4172 40.6597 54.3074 41.2621 54.0939C42.2532 53.7509 43.1304 53.1428 43.7975 52.3361C44.4646 51.5294 44.8959 50.5553 45.0441 49.5206C45.1923 48.4859 45.0517 47.4305 44.6377 46.4702C44.2237 45.5098 43.5523 44.6815 42.6971 44.0761C41.8419 43.4707 40.8358 43.1115 39.7893 43.038C38.7427 42.9644 37.696 43.1793 36.7639 43.6591C35.8318 44.139 35.0503 44.8651 34.5051 45.7581C33.9599 46.651 33.6719 47.6763 33.6729 48.7215V48.7215Z" fill="#D69766"/>
<path opacity="0.1" d="M11.9848 74.7028C12.4967 74.7962 13.1292 74.9682 13.1292 75.232C13.1292 75.6768 20.272 78.0798 20.272 78.0798C20.272 78.0798 20.0042 78.7009 20.7185 79.7698C21.4328 80.8386 27.2408 86.9759 27.2408 86.9759L27.2214 87.1568L27.147 87.8639L26.7929 91.2454C26.7929 91.2454 29.025 90.4448 29.7393 90.5338C29.97 90.562 30.2214 90.4152 30.4521 90.2017C30.3672 89.7977 30.2094 89.4125 29.9863 89.0647C29.9863 89.0647 29.4075 88.6111 28.5339 88.0107V76.6685L13.3643 72.998L11.9908 74.3618C11.9815 74.4752 11.9795 74.5891 11.9848 74.7028V74.7028Z" fill="black"/>
<path d="M11.3423 74.0757C11.3423 74.0757 13.128 74.2521 13.128 74.6983C13.128 75.1446 20.2709 77.5461 20.2709 77.5461C20.2709 77.5461 20.003 78.1673 20.7173 79.2361C21.4316 80.3049 27.2396 86.4422 27.2396 86.4422L26.7932 90.7117C26.7932 90.7117 29.0253 89.9112 29.7396 90.0001C30.0595 90.0401 30.4122 89.7451 30.7039 89.4071C30.9458 89.1222 31.1615 88.816 31.3482 88.4925C31.3482 88.4925 30.5432 85.1095 31.6161 84.309C32.689 83.5085 30.4554 77.638 30.4554 77.638C30.4554 77.638 29.445 73.4635 29.7426 71.6727C29.7615 71.5534 29.7904 71.4359 29.8289 71.3213C29.8289 71.308 29.8363 71.2947 29.8423 71.2813C30.4792 69.5706 37.3304 55.219 37.3304 55.219C37.326 54.812 37.2971 54.4056 37.2441 54.002C37.2307 53.8893 37.2128 53.7722 37.1905 53.6551C37.1559 53.4417 37.1097 53.2304 37.0521 53.0221C37.0134 52.8857 36.9717 52.7552 36.9226 52.6307C36.7113 52.0881 36.3869 51.6716 35.9018 51.6612C35.9018 51.6612 35.3661 51.0682 34.1161 50.9111C33.1935 50.791 31.8839 50.9111 30.0982 51.6612C25.9018 53.4401 24.9197 53.5291 24.9197 53.5291L22.8095 56.282L22.375 56.8482C20.7869 58.9119 19.3492 61.0863 18.0729 63.3547C17.3706 64.6118 16.3765 66.0779 15.1845 66.9585C12.7723 68.7389 11.3423 74.0757 11.3423 74.0757Z" fill="#A44200"/>
<path opacity="0.1" d="M26.994 63.789C26.994 63.789 21.0327 65.2567 18.7217 68.9598L26.994 63.789Z" fill="black"/>
<path opacity="0.1" d="M25.152 70.294C25.152 70.294 24.0255 77.8337 24.338 78.4014C24.6505 78.9692 25.152 70.294 25.152 70.294Z" fill="black"/>
<path opacity="0.1" d="M25.5553 74.1646C25.9898 74.7309 27.7502 79.1026 27.7502 79.1026L27.2413 86.4422L26.7949 90.7116C26.7949 90.7116 29.027 89.9111 29.7428 90.0001C30.0612 90.0401 30.4154 89.7466 30.7071 89.4071C30.2428 86.9062 29.2517 81.6747 29.0702 81.5739C28.8336 81.4405 27.6282 77.2362 27.5642 76.0681C27.5002 74.8999 25.8217 72.2671 25.8217 72.2671C25.8217 72.2671 25.1193 73.5983 25.5553 74.1646Z" fill="black"/>
<path opacity="0.1" d="M27.241 66.9585C27.3496 67.292 27.5222 69.2266 27.5222 69.2266C27.6442 70.9329 28.9389 71.4903 29.7425 71.6682C29.7614 71.5489 29.7903 71.4314 29.8288 71.3169C30.3645 69.8063 37.3303 55.2146 37.3303 55.2146C37.323 54.474 37.2297 53.7368 37.052 53.0176C35.5356 52.5729 33.1338 53.2578 33.1338 53.2578C32.4404 53.1673 30.177 57.6517 30.177 57.6517C30.177 57.6517 28.668 61.0865 28.5029 61.5535C28.3377 62.0205 28.5029 62.7899 28.4359 63.0567C28.3689 63.3235 27.6636 63.5548 27.5639 63.9239C27.4642 64.2931 27.5297 65.0224 27.4627 65.1558C27.3957 65.2893 27.1249 66.6249 27.241 66.9585Z" fill="black"/>
<path d="M27.777 66.6916C27.8871 67.0252 28.0583 68.9598 28.0583 68.9598C28.1595 70.38 29.0761 71.0041 29.844 71.2768C30.1888 71.3995 30.5498 71.4714 30.9154 71.4903L31.9928 72.4213L36.9645 76.0755C36.9645 76.0755 38.8187 72.6659 38.3157 72.6437C37.8127 72.6214 34.9124 70.1976 34.9124 70.1976C34.0196 69.7262 33.1357 68.1489 32.7234 67.3395C32.7478 67.2419 32.7657 67.1429 32.777 67.043C32.9571 65.5324 36.7071 59.7494 36.7071 59.7494C36.7071 59.7494 38.1565 58.049 38.722 54.8988C38.7383 54.8277 38.7487 54.7506 38.7621 54.6779C38.7782 54.5798 38.7881 54.4808 38.7919 54.3814C38.8589 53.1703 37.9749 52.73 36.9243 52.6247C36.3785 52.5825 35.8296 52.5994 35.2874 52.6752C34.7451 52.7427 34.208 52.8477 33.6803 52.9894C33.2339 52.9316 32.1237 54.7921 31.3976 56.11C31.0062 56.8245 30.7249 57.3834 30.7249 57.3834C30.7249 57.3834 29.2086 60.8197 29.0389 61.2867C28.8693 61.7536 29.0389 62.5215 28.972 62.7899C28.905 63.0582 28.1996 63.288 28.1014 63.6571C28.0032 64.0262 28.0657 64.7556 27.9987 64.889C27.9318 65.0224 27.6639 66.3581 27.777 66.6916Z" fill="#A44200"/>
<path opacity="0.1" d="M22.0073 59.0007C22.9508 59.9673 24.4895 59.9703 25.7186 59.4796C26.9478 58.9889 27.991 58.0935 29.1323 57.4042C29.8764 56.9594 30.6561 56.5844 31.3853 56.1204C31.4924 56.0507 31.5966 55.981 31.6978 55.9099C32.5401 55.3169 33.2677 54.5564 34.1383 54.0123C34.7217 53.6278 35.4005 53.4113 36.0996 53.3867C36.4222 53.3835 36.7416 53.4503 37.0356 53.5824C37.0869 53.6047 37.1367 53.6304 37.1844 53.6595C37.4705 53.8245 37.7354 54.0236 37.9731 54.2525C38.2186 54.4734 38.4552 54.7091 38.7172 54.9136C38.7335 54.8425 38.7439 54.7654 38.7573 54.6928C38.7734 54.5946 38.7833 54.4956 38.7871 54.3963C38.9835 54.4156 39.1814 54.4259 39.3823 54.4259C40.0232 54.4226 40.6588 54.3103 41.2618 54.0939C41.2618 54.0701 41.2707 54.0449 41.2752 54.0212C41.4895 52.9005 41.8704 51.7131 42.7811 51.083C43.3064 50.7169 44.1457 50.5686 44.8719 50.2899C45.1238 49.4159 45.1619 48.4944 44.9829 47.6027C44.8039 46.711 44.4131 45.875 43.8432 45.1647C43.2732 44.4544 42.5408 43.8904 41.7071 43.52C40.8735 43.1496 39.9629 42.9836 39.0516 43.0358C38.1402 43.0879 37.2547 43.3569 36.4692 43.82C35.6836 44.2831 35.0209 44.927 34.5364 45.6977C34.052 46.4684 33.7599 47.3436 33.6847 48.2498C33.6095 49.1561 33.7533 50.0671 34.1041 50.9066C33.1814 50.7865 31.8719 50.9066 30.0862 51.6567C25.8898 53.4357 24.9076 53.5246 24.9076 53.5246L22.8094 56.2819C23.0371 56.6288 23.2945 56.9713 23.3183 57.376C23.366 58.1261 22.6398 58.6435 22.0073 59.0007Z" fill="black"/>
<path d="M42.789 50.5508C41.8828 51.1823 41.4974 52.3683 41.2831 53.4875C41.2161 53.8374 41.1521 54.2065 40.9378 54.4837C40.4572 55.1049 39.4899 54.9285 38.8619 54.4837C38.234 54.039 37.7399 53.363 37.039 53.0472C36.1075 52.6292 35.0137 52.9346 34.1432 53.4786C33.2727 54.0227 32.5435 54.7832 31.7012 55.3747C30.8873 55.9469 29.9795 56.3546 29.1313 56.869C27.9914 57.5613 26.9498 58.4552 25.7191 58.9444C24.4884 59.4336 22.9512 59.4336 22.0093 58.467C22.6417 58.1172 23.3679 57.5998 23.3188 56.8512C23.2697 56.1025 22.3932 55.5407 22.4527 54.7758C22.5123 54.0108 23.4185 53.7054 24.0688 53.3289C25.4304 52.5402 26.0033 50.8087 26.3009 49.2077C26.5271 47.958 26.7131 46.5601 27.6521 45.7581C28.2563 45.2407 29.0762 45.0717 29.6849 44.5603C30.2623 44.074 30.5777 43.3372 30.9468 42.6598C31.5524 41.5287 32.3471 40.4791 33.3992 39.8031C34.4512 39.1271 35.789 38.8662 36.9438 39.3213C37.3902 39.4947 37.789 39.766 38.2265 39.9543C39.3128 40.4228 40.5584 40.3605 41.6358 40.8527C42.9617 41.4605 43.8233 42.8036 44.6119 44.0785C45.2861 45.1681 46.6045 47.0967 46.2355 48.505C45.859 49.9415 43.7727 49.8644 42.789 50.5508Z" fill="#7C5C5C"/>
<g opacity="0.1">
<path opacity="0.1" d="M22.4525 54.6824C22.4573 54.6237 22.4678 54.5656 22.4837 54.5089C22.7233 54.8855 23.0224 55.2502 23.0507 55.6949C23.0575 55.7969 23.049 55.8993 23.0254 55.9988C22.759 55.5719 22.4153 55.1731 22.4525 54.6824Z" fill="black"/>
<path opacity="0.1" d="M25.4508 57.7866C26.6815 57.2945 27.7232 56.4005 28.863 55.7112C29.7113 55.1968 30.619 54.7891 31.433 54.2169C32.2752 53.6239 33.0044 52.8634 33.8749 52.3209C34.7455 51.7783 35.8392 51.4714 36.7708 51.8895C37.4717 52.2052 37.9613 52.8738 38.5937 53.326C39.2261 53.7781 40.1889 53.9545 40.6696 53.3334C40.8854 53.0561 40.9479 52.6885 41.0148 52.3386C41.2291 51.2179 41.6101 50.032 42.5208 49.4004C43.5059 48.7156 45.5907 48.7926 45.9687 47.3473C46.0317 47.0908 46.0483 46.8253 46.0178 46.563C46.2604 47.2049 46.3839 47.8513 46.238 48.4146C45.8586 49.86 43.7738 49.7829 42.7886 50.4678C41.8839 51.0993 41.497 52.2853 41.2827 53.406C41.2157 53.7559 41.1532 54.125 40.9389 54.4007C40.4568 55.0219 39.4895 54.8455 38.8556 54.3933C38.2217 53.9412 37.7336 53.2726 37.0327 52.9568C36.1011 52.5388 35.0074 52.8456 34.1369 53.3882C33.2663 53.9308 32.5372 54.6928 31.6949 55.2843C30.8809 55.858 29.9732 56.2642 29.1249 56.7786C27.9851 57.4723 26.9434 58.3648 25.7127 58.854C24.4821 59.3432 22.9449 59.3417 22.0029 58.3752C22.2463 58.2438 22.4774 58.091 22.6934 57.9186C23.5535 58.2314 24.5803 58.1335 25.4508 57.7866Z" fill="black"/>
</g>
<path d="M164.477 48.9153C164.566 48.6733 163.902 47.3271 163.902 47.2606C163.902 47.194 163.214 46.4486 163.214 46.0248C163.214 45.601 162.305 44.6997 162.305 44.6997C162.305 44.6997 161.085 44.1915 160.952 43.0889C160.82 41.9862 159.495 41.9635 159.495 41.9635C159.495 41.9635 159.495 41.8628 159.495 41.7102C159.495 41.3659 159.485 40.7554 159.333 40.4192C159.175 40.1143 158.904 39.8843 158.578 39.7794C158.578 39.7794 158.445 38.9171 158.179 38.6525C158.031 38.4966 157.924 38.3053 157.87 38.0967C157.816 37.8882 157.816 37.6692 157.87 37.4605C158.003 37.0432 157.693 35.9828 157.049 35.8367C156.404 35.6905 155.675 35.4388 155.675 35.4388C155.675 35.4388 155.602 35.4535 155.497 35.4681L155.408 35.4388C155.254 35.4678 155.099 35.4874 154.943 35.4973C154.807 35.5017 154.674 35.4574 154.567 35.3723C154.34 35.1206 152.559 34.6545 152.218 34.6545C151.878 34.6545 150.931 34.2112 150.931 34.2112L149.978 33.4837C149.711 33.2791 149.217 32.4509 149.146 32.3308L149.136 32.3145C149.055 32.126 148.988 31.9317 148.935 31.7332V31.7332C149.259 31.3927 149.536 31.0105 149.76 30.5965C149.782 30.5543 149.802 30.5104 149.824 30.4666C149.873 30.4664 149.921 30.4588 149.967 30.4438L150.027 30.4211C150.251 30.3019 150.419 30.0997 150.497 29.8576V29.8576C150.514 29.8089 150.527 29.7602 150.54 29.7115L150.55 29.6628C150.55 29.6287 150.565 29.5946 150.571 29.5621L150.581 29.5052C150.581 29.4711 150.592 29.4387 150.595 29.4046C150.599 29.3705 150.595 29.3672 150.595 29.3494C150.595 29.3315 150.605 29.2649 150.612 29.2243C150.627 29.0684 150.65 28.9134 150.681 28.7599C150.681 28.7599 150.681 28.7599 150.681 28.7599C150.814 28.1607 151.167 27.654 151.428 27.1003C151.464 27.0207 151.499 26.9379 151.53 26.8584C151.561 26.7788 151.592 26.6814 151.617 26.5904C151.617 26.5628 151.632 26.5352 151.638 26.5076C151.656 26.441 151.671 26.3761 151.684 26.3079C151.684 26.2786 151.695 26.2494 151.7 26.2202C151.715 26.1292 151.728 26.0367 151.736 25.9441C151.781 25.4164 151.703 24.8855 151.507 24.3933C151.345 23.9792 151.094 23.6058 150.926 23.1917C150.671 22.5632 150.602 21.852 150.292 21.2544C149.771 20.2509 148.541 19.7475 147.539 20.1258C147.053 20.3061 146.64 20.6552 146.151 20.8111C145.503 21.0206 144.793 20.8631 144.116 20.7689C143.439 20.6747 142.687 20.6666 142.143 21.1099C141.515 21.6214 141.343 22.5811 140.753 23.143C140.506 23.3784 140.199 23.5294 139.944 23.747C139.759 23.8943 139.618 24.0883 139.534 24.3089C139.528 24.3243 139.523 24.34 139.519 24.356C139.513 24.3744 139.508 24.3935 139.505 24.4128C139.505 24.4356 139.496 24.4567 139.493 24.4794C139.49 24.5021 139.493 24.5102 139.493 24.5249C139.491 24.5643 139.491 24.6039 139.493 24.6434C139.497 24.6806 139.503 24.7175 139.511 24.7538C139.511 24.7652 139.511 24.7749 139.511 24.7847C139.511 24.7944 139.527 24.8464 139.539 24.8772V24.8951C139.55 24.9292 139.564 24.9617 139.577 24.9958C139.59 25.0299 139.592 25.0283 139.6 25.0461C139.605 25.0599 139.611 25.0735 139.618 25.0867C139.704 25.2504 139.773 25.4223 139.824 25.5999C139.851 25.7125 139.844 25.8309 139.803 25.9392C139.743 26.0627 139.66 26.1731 139.558 26.264C139.116 26.7237 138.776 27.2707 138.557 27.87C138.531 27.9382 138.507 28.0064 138.486 28.0762L138.515 28.0844C138.578 28.1038 138.643 28.118 138.709 28.1266C138.746 28.1266 138.784 28.1363 138.821 28.138C138.972 28.1468 139.124 28.1354 139.273 28.1039L139.386 28.0779C139.54 28.0362 139.69 27.9819 139.835 27.9155C139.835 27.961 139.835 28.0048 139.835 28.0503C139.835 28.0957 139.835 28.1006 139.835 28.1266C139.837 29.1036 140.111 30.0606 140.626 30.8899C141.141 31.7193 141.877 32.3881 142.751 32.8212L142.77 32.9641L142.785 33.0842L142.725 33.0274C142.725 33.0274 142.325 32.8277 141.949 33.4025C141.671 33.7776 141.295 34.0677 140.862 34.2404C140.862 34.2404 136.827 34.8802 136.672 35.4112L134.788 35.5217C134.788 35.5217 134.122 35.6093 134.056 36.9994C133.989 38.3894 133.634 38.5226 133.634 38.5226C133.634 38.5226 132.858 39.8915 132.925 40.5978C132.991 41.3042 132.311 41.6534 132.311 41.6534L132.222 42.9119C132.222 42.9119 131.49 42.8014 131.291 43.6621C131.091 44.5227 130.737 44.9206 130.737 44.9206C130.737 44.9206 129.517 45.9355 129.45 46.7961L128.697 47.2606C128.697 47.2606 126.945 46.8627 126.546 46.1563L126.423 46.041C126.419 46.036 126.416 46.0305 126.413 46.0248V46.0248C126.151 45.778 125.595 45.2583 125.68 45.3752C125.731 45.4863 125.744 45.6117 125.715 45.7309L125.586 45.5847L125.237 45.2096C125.237 45.2096 122.631 42.2071 120.972 41.996C120.796 42.0421 120.635 42.133 120.505 42.2599C120.374 42.3868 120.279 42.5454 120.227 42.7202C120.017 43.438 119.796 44.6266 120.344 45.2112L122.965 48.0189L123.033 48.0692L123.603 48.8032C123.507 49.0338 123.426 49.2579 123.358 49.4609V49.4804C123.344 49.5242 123.331 49.5681 123.318 49.6087L123.303 49.6525C123.29 49.6947 123.279 49.7353 123.266 49.7743C123.253 49.8133 123.253 49.823 123.245 49.8474C123.237 49.8717 123.245 49.875 123.234 49.8896C123.17 50.1104 123.132 50.2809 123.111 50.3767L122.963 50.3313L123.107 50.393C123.107 50.4005 123.107 50.4081 123.107 50.4157C123.103 50.4312 123.1 50.4469 123.098 50.4628C123.141 50.4823 123.187 50.5034 123.234 50.5213C124.01 50.8607 127.886 52.5657 128.093 52.8239C128.315 53.1113 129.779 53.9492 131.109 53.2429C132.439 52.5365 132.729 51.4566 132.729 51.4566C132.729 51.4566 134.015 49.6704 134.059 49.404C134.102 49.1377 135.1 48.8308 135.1 48.8308C135.1 48.8308 135.189 51.7879 134.679 52.8694C134.169 53.9509 133.221 58.7413 133.221 58.7413C133.284 58.7285 133.347 58.7247 133.411 58.7299L133.354 59.0059C133.432 58.9919 133.511 58.9919 133.589 59.0059C133.518 59.5499 133.103 62.0783 133.103 62.0783C133.103 62.0783 132.969 63.2264 132.748 63.6242C132.528 64.0221 132.504 66.0957 132.504 66.0957L132.149 67.5962C132.149 67.5962 132.196 67.7001 132.283 67.856C132.283 67.856 132.664 68.702 133.306 69.1778C133.276 69.4131 133.215 69.6435 133.126 69.8631C132.988 70.1986 132.927 70.5612 132.949 70.9235C132.949 70.9235 132.572 72.622 132.617 73.1092C132.662 73.5963 132.373 74.7866 132.373 74.7866L131.974 78.6271C131.974 78.6271 131.708 81.9592 131.841 82.8653C131.974 83.7715 131.752 85.0056 131.752 85.0056C131.752 85.0056 132.018 87.633 131.951 87.9188C131.885 88.2046 131.553 89.442 131.752 90.1256C131.951 90.8093 131.841 92.6865 131.841 92.6865C131.841 92.6865 131.974 95.1596 132.128 95.9537C132.282 96.7477 132.084 97.7643 132.084 97.7643C132.084 97.7643 131.922 99.4628 131.862 99.4628C131.802 99.4628 131.214 100.632 132.394 101.78C133.573 102.928 132.839 102.754 132.839 102.754C132.839 102.754 131.908 102.292 132.018 103.242C132.123 104.146 132.269 103.909 132.282 103.891L132.062 104.617L132.224 104.638C132.181 104.688 132.139 104.74 132.094 104.8C131.96 104.969 131.811 105.125 131.648 105.267C131.381 105.465 131.359 105.905 131.359 105.905C131.359 105.905 129.719 107.691 128.189 108.597C127.379 109.074 126.69 109.477 126.387 109.812C126.114 110.11 126.159 110.352 126.726 110.541C127.923 110.939 130.029 111.137 131.537 110.63C132.436 110.329 133.244 109.805 133.887 109.107C133.887 109.107 134.84 108.62 135.771 108.797C136.702 108.974 138.565 107.759 138.565 107.759L138.531 107.447L138.432 106.544C138.369 106.469 138.322 106.381 138.294 106.286C138.266 106.192 138.258 106.092 138.27 105.994C138.282 105.727 138.256 105.46 138.193 105.2C138.176 105.112 138.16 105.026 138.144 104.943L138.314 104.913C138.314 104.913 138.092 103.787 138.492 103.565C138.892 103.342 138.779 100.453 138.779 100.453C138.779 100.453 138.27 99.7909 138.003 99.6804C137.736 99.57 137.98 98.2011 138.026 98.0257C138.071 97.8503 138.406 94.4126 138.406 94.4126C138.406 94.4126 138.273 93.3328 138.45 92.8683C138.627 92.4039 138.228 90.6177 138.228 90.6177C138.228 90.6177 138.095 90.3968 138.34 90.1305C138.584 89.8642 138.494 87.5047 138.494 87.5047C138.494 87.5047 138.473 86.3128 138.473 86.0026C138.473 85.6925 138.738 84.5688 138.981 84.1937C139.224 83.8186 139.07 82.6494 139.07 82.6494L139.083 82.5601C139.083 82.5276 139.096 82.4854 139.104 82.4366L139.124 82.3181C139.231 81.6715 139.375 81.0317 139.556 80.4019C139.845 79.4747 140.177 77.8427 140.177 77.8427L142.24 72.4418L142.263 72.3784C142.263 72.3784 143.216 74.1436 143.216 75.7788C143.216 75.7788 143.46 77.7421 143.394 78.2714C143.327 78.8008 143.595 81.2951 143.595 81.2951C143.595 81.2951 143.881 84.8676 143.881 85.0299C143.881 85.1923 144.236 87.9432 144.458 88.3621C144.68 88.7811 144.236 90.0623 144.103 90.1938C143.97 90.3254 144.147 93.5715 144.147 93.5715C144.147 93.5715 143.815 96.1307 143.748 96.6568C143.682 97.1829 143.416 99.2176 143.638 100.012C143.86 100.806 143.771 100.916 143.771 100.916C143.771 100.916 144.57 101.728 144.095 101.8C143.925 101.837 143.766 101.91 143.626 102.014C143.487 102.118 143.371 102.251 143.287 102.404C143.203 102.556 143.153 102.725 143.139 102.898C143.125 103.072 143.149 103.247 143.207 103.41C143.483 104.217 143.808 105.006 144.179 105.773L144.547 105.695V105.958L144.573 107.274C144.573 107.274 144.735 108.532 144.641 108.82C144.55 109.388 144.49 109.961 144.46 110.536C144.443 110.724 144.434 110.851 144.434 110.851C144.434 110.851 144.434 112.02 146.896 111.663C149.358 111.306 149.805 110.343 149.805 110.343C149.805 110.343 149.805 110.297 149.824 110.221C149.86 109.998 149.939 109.524 150.006 109.261C150.095 108.907 149.296 107.313 149.296 107.313C149.296 107.313 149.163 106.231 148.942 105.988C148.849 105.848 148.788 105.69 148.763 105.525C148.742 105.435 148.724 105.343 148.71 105.252C148.768 105.261 148.822 105.27 148.872 105.281C148.872 105.281 148.737 104.51 149.249 104.266C149.761 104.023 149.625 103.516 149.559 103.292C149.492 103.068 149.758 101.83 149.758 101.83C149.722 101.707 149.72 101.577 149.751 101.453C149.783 101.329 149.846 101.215 149.936 101.124C150.247 100.816 150.49 98.6525 150.49 98.6525L150.534 90.3091C150.534 90.3091 150.696 88.8298 150.513 88.2338C150.33 87.6379 150.158 86.4914 150.401 86.1813C150.644 85.8711 150.424 84.4372 150.424 84.4372C150.424 84.4372 150.424 81.4136 150.756 80.6634C151.088 79.9132 150.978 75.1682 150.978 75.1682L151.067 72.0553C151.067 72.0553 151.791 71.3684 151.619 67.7862C152.392 67.7375 153.263 67.7098 153.401 67.817C153.645 68.0151 155.218 69.0317 156.155 68.3902C156.354 68.3026 157.262 67.5296 157.262 67.5296L156.872 60.9124C157.115 61.281 157.264 61.5262 157.264 61.5262C157.264 60.5989 159.88 57.5981 159.88 57.5981C159.88 57.5981 162.318 54.4413 162.851 54.0662C163.384 53.691 164.424 51.7034 164.424 51.7034C164.578 51.3249 164.756 50.9566 164.957 50.6008C165.193 50.2176 164.383 49.1588 164.477 48.9153ZM158.758 51.2325C158.093 51.2991 156.696 52.8223 156.674 53.1535C156.625 53.372 156.524 53.5753 156.38 53.7463C156.368 53.6131 156.357 53.4783 156.347 53.3403C156.185 51.3917 156.023 49.0127 156.098 48.7821C156.231 48.3859 156.185 46.598 156.185 46.598L156.21 46.5639C156.657 47.9491 158.045 49.5827 158.045 49.5827C158.045 49.5827 158.289 50.2891 158.578 50.3102C158.866 50.3313 158.758 51.2325 158.758 51.2325Z" fill="url(#paint1_linear)"/>
<path d="M123.461 50.6759C123.461 50.6759 124.122 46.846 126.237 46.8269L127.788 50.3598L126.754 51.1501C126.754 51.1501 124.513 51.2277 123.461 50.6759Z" fill="#65617D"/>
<path opacity="0.1" d="M127.788 50.3591L126.754 51.1499C126.754 51.1499 125.17 51.2056 124.048 50.8966C123.846 50.8452 123.649 50.7711 123.461 50.6755C123.461 50.6755 123.461 50.6535 123.473 50.614C123.472 50.6091 123.472 50.6042 123.473 50.5993C123.569 50.1186 123.701 49.6478 123.869 49.192C123.933 49.0192 124.001 48.842 124.088 48.6648C124.398 48.0029 124.834 47.3468 125.43 47.0319C125.651 46.9117 125.891 46.842 126.137 46.8269H126.2H126.232L126.265 46.9045L126.793 48.0995L127.788 50.3591Z" fill="black"/>
<path d="M150.452 68.5623C150.452 68.5623 153.053 68.2793 153.281 68.4907C153.51 68.7021 154.988 69.7871 155.863 69.104C156.738 68.4208 156.155 66.0393 156.155 65.945C156.155 65.8506 156.071 62.4802 156.071 62.4802L154.51 60.1005L152.553 55.9281L148.557 55.4808L148.66 62.1028L148.64 65.4942L150.452 68.5623Z" fill="#65617D"/>
<path opacity="0.1" d="M150.452 68.5623C150.452 68.5623 153.053 68.2793 153.281 68.4907C153.51 68.7021 154.988 69.7871 155.863 69.104C156.738 68.4208 156.155 66.0393 156.155 65.945C156.155 65.8506 156.071 62.4802 156.071 62.4802L154.51 60.1005L152.553 55.9281L148.557 55.4808L148.66 62.1028L148.64 65.4942L150.452 68.5623Z" fill="black"/>
<path d="M126.058 46.1191C126.058 46.1191 125.846 48.5183 124.229 48.5577C124.229 48.5577 123.772 48.3026 123.156 47.877C121.738 46.8931 119.484 45.0055 120.106 43.2477C120.998 40.7319 125.336 45.3714 125.336 45.3714L125.67 45.7168L126.058 46.1191Z" fill="#D69766"/>
<path opacity="0.1" d="M126.057 46.4502C126.057 46.4502 125.877 49.3751 124.496 49.4231C124.496 49.4231 124.106 49.1121 123.579 48.5932L123.461 48.3924C123.695 48.5545 123.953 48.6462 124.217 48.6608C124.426 48.6737 124.632 48.6019 124.808 48.4551C124.985 48.3082 125.123 48.0935 125.204 47.8398C125.35 47.4644 125.478 47.0775 125.587 46.6812C125.652 46.4486 125.697 46.2072 125.722 45.9615L126.057 46.4502Z" fill="black"/>
<path d="M125.314 51.1538L125.01 50.6953L123.988 49.167L123.461 48.3861C123.69 48.5255 123.943 48.6043 124.201 48.6168C124.405 48.6277 124.607 48.5659 124.78 48.4396C124.952 48.3134 125.087 48.1288 125.167 47.9108C125.309 47.5874 125.434 47.2541 125.541 46.9128C125.709 46.3565 125.707 46.0707 125.646 45.9744C125.586 45.8781 126.024 46.3473 126.234 46.5781L126.242 46.5872L126.34 46.6957L126.376 46.7798L126.891 47.9734C126.891 47.9734 126.891 47.9902 126.891 48.0239C126.946 48.4075 127.12 50.813 125.314 51.1538Z" fill="#E7EFFD"/>
<path d="M138.172 107.586C138.172 107.586 136.342 108.841 135.429 108.657C134.516 108.473 133.578 108.978 133.578 108.978C132.949 109.699 132.155 110.241 131.271 110.552C129.792 111.077 127.721 110.87 126.548 110.459C125.992 110.265 125.948 110.015 126.216 109.705C126.513 109.367 127.195 108.944 127.991 108.452C129.483 107.524 131.097 105.677 131.097 105.677C131.097 105.677 131.119 105.221 131.381 105.016C131.54 104.87 131.687 104.709 131.82 104.536C132.054 104.245 132.273 103.942 132.273 103.942L137.649 104.127C137.649 104.127 137.74 104.532 137.811 104.947C137.872 105.216 137.898 105.492 137.886 105.769C137.873 105.87 137.88 105.972 137.906 106.07C137.933 106.168 137.978 106.26 138.04 106.338L138.135 107.27L138.172 107.586Z" fill="#65617D"/>
<path d="M149.417 109.023C149.345 109.312 149.26 109.83 149.22 110.074C149.208 110.156 149.201 110.208 149.201 110.208C149.201 110.208 148.719 111.271 146.045 111.658C143.372 112.045 143.367 110.762 143.367 110.762C143.367 110.762 143.377 110.624 143.395 110.416C143.435 109.787 143.506 109.16 143.61 108.538C143.704 108.222 143.536 106.844 143.536 106.844L143.508 105.41L143.488 104.408L147.924 103.942C147.952 104.275 147.999 104.606 148.067 104.933C148.095 105.114 148.161 105.287 148.26 105.441C148.503 105.708 148.647 106.891 148.647 106.891C148.647 106.891 149.513 108.634 149.417 109.023Z" fill="#65617D"/>
<path opacity="0.1" d="M138.012 104.176C138.012 104.176 138.103 104.689 138.174 105.213C137.589 105.357 135.031 105.939 134.392 105.53C133.669 105.068 132.117 104.809 132.117 104.809L132.143 104.693C132.378 104.325 132.599 103.942 132.599 103.942L138.012 104.176Z" fill="black"/>
<path opacity="0.1" d="M148.558 105.118C147.708 104.891 145.845 105.438 145.112 105.673L145.097 104.489L148.453 103.942C148.473 104.337 148.508 104.73 148.558 105.118V105.118Z" fill="black"/>
<path d="M150.574 72.2179L150.487 75.3037C150.487 75.3037 150.597 80.0136 150.266 80.7591C149.936 81.5046 149.939 84.506 149.939 84.506C149.939 84.506 150.16 85.9287 149.916 86.2356C149.672 86.5426 149.849 87.6811 150.027 88.2723C150.206 88.8635 150.049 90.3333 150.049 90.3333L150.004 98.6163C150.004 98.6163 149.762 100.762 149.453 101.07C149.364 101.161 149.3 101.273 149.268 101.395C149.236 101.518 149.238 101.647 149.273 101.769C149.273 101.769 149.008 102.995 149.073 103.214C149.139 103.433 149.273 103.939 148.766 104.179C148.259 104.419 148.39 105.186 148.39 105.186C147.177 104.902 143.733 105.673 143.733 105.673C143.361 104.912 143.037 104.13 142.761 103.329C142.702 103.167 142.678 102.994 142.691 102.822C142.705 102.65 142.755 102.483 142.838 102.331C142.922 102.18 143.037 102.048 143.176 101.944C143.315 101.841 143.475 101.767 143.645 101.73C144.108 101.665 143.317 100.854 143.317 100.854C143.317 100.854 143.406 100.744 143.185 99.9562C142.964 99.1685 143.229 97.1513 143.294 96.6251C143.36 96.0989 143.694 93.5572 143.694 93.5572C143.694 93.5572 143.517 90.3365 143.649 90.205C143.782 90.0734 144.224 88.8017 144.003 88.386C143.782 87.9702 143.429 85.2319 143.429 85.0776C143.429 84.9233 143.142 81.3747 143.142 81.3747C143.142 81.3747 142.876 78.8995 142.939 78.3814C143.003 77.8633 142.761 75.9046 142.761 75.9046C142.761 74.2805 141.814 72.5313 141.814 72.5313L141.789 72.5947L139.737 77.9429C139.737 77.9429 139.41 79.567 139.12 80.483C138.939 81.1086 138.795 81.7442 138.689 82.3865L138.669 82.5034C138.669 82.5521 138.654 82.5944 138.649 82.6269L138.636 82.7145C138.636 82.7145 138.79 83.8758 138.548 84.2493C138.306 84.6229 138.041 85.7387 138.041 86.0456C138.041 86.3526 138.062 87.5349 138.062 87.5349C138.062 87.5349 138.15 89.8785 137.908 90.1335C137.838 90.1911 137.789 90.2702 137.769 90.3583C137.749 90.4465 137.759 90.5387 137.797 90.6208C137.797 90.6208 138.194 92.3959 138.018 92.8555C137.841 93.3152 137.975 94.3887 137.975 94.3887C137.975 94.3887 137.622 97.7848 137.578 97.9618C137.533 98.1388 137.29 99.4949 137.555 99.6054C137.82 99.7158 138.327 100.372 138.327 100.372C138.327 100.372 138.438 103.242 138.041 103.458C137.643 103.674 137.864 104.794 137.864 104.794C137.864 104.794 134.663 105.408 133.937 105.058C133.211 104.707 131.646 104.509 131.646 104.509L131.866 103.787C131.852 103.813 131.702 104.047 131.602 103.151C131.493 102.209 132.42 102.664 132.42 102.664C132.42 102.664 133.148 102.839 131.978 101.701C130.809 100.562 131.383 99.3991 131.448 99.3991C131.514 99.3991 131.669 97.7133 131.669 97.7133C131.669 97.7133 131.869 96.7047 131.713 95.9154C131.558 95.1261 131.422 92.6736 131.422 92.6736C131.422 92.6736 131.532 90.8124 131.334 90.1319C131.136 89.4514 131.466 88.2268 131.532 87.941C131.597 87.6551 131.334 85.0484 131.334 85.0484C131.334 85.0484 131.555 83.8222 131.422 82.9257C131.29 82.0292 131.555 78.7192 131.555 78.7192L131.952 74.9058C131.952 74.9058 132.239 73.7234 132.194 73.2411C132.15 72.7587 132.522 71.0729 132.522 71.0729C132.5 70.7133 132.561 70.3537 132.698 70.0204C132.919 69.5836 133.009 68.1365 133.009 68.1365L135.127 63.3161L136.167 59.0739L150.183 58.9423C150.183 58.9423 150.234 59.3094 150.319 59.9801C150.404 60.6509 150.523 61.6416 150.656 62.8662C150.778 63.9771 150.913 65.2861 151.043 66.7413C151.457 71.3847 150.574 72.2179 150.574 72.2179Z" fill="#3F3D56"/>
<path d="M149.423 33.4785L146.39 37.3077C146.39 37.3077 142.505 35.4649 142.912 34.8363C143.064 34.592 143.046 33.8233 142.955 32.9738C142.803 31.6322 142.5 30.0875 142.5 30.0875C142.5 30.0875 149.291 28.7782 148.718 30.1342C148.509 30.63 148.545 31.2119 148.675 31.7507C148.844 32.3706 149.097 32.9541 149.423 33.4785V33.4785Z" fill="#D09769"/>
<path opacity="0.1" d="M149.385 30.309C149.154 30.9435 149.049 30.9987 149.187 31.6884C148.205 33.1321 146.955 34.7115 145.401 34.7115C144.569 34.7119 143.748 34.4458 143.003 33.9345C142.836 32.2171 142.5 30.24 142.5 30.24C142.5 30.24 150.019 28.5732 149.385 30.309Z" fill="#825D44"/>
<path d="M150.289 28.1997C150.289 29.4678 149.696 30.6838 148.642 31.5805C147.587 32.4771 146.156 32.9808 144.664 32.9808C143.172 32.9808 141.741 32.4771 140.687 31.5805C139.632 30.6838 139.039 29.4678 139.039 28.1997C139.039 28.1774 139.039 28.1551 139.039 28.1313C139.073 26.8769 139.687 25.6844 140.746 24.8108C141.806 23.9372 143.227 23.4527 144.703 23.4617C146.179 23.4707 147.592 23.9725 148.636 24.8588C149.681 25.7452 150.274 26.9451 150.287 28.1997H150.289Z" fill="#D69766"/>
<path opacity="0.1" d="M150.288 62.3558C149.596 62.3558 147.289 62.37 144.711 62.3937H144.679L143.828 62.4022H143.801C140.742 62.4306 137.73 62.0831 136.521 62.1493C133.95 62.2895 137.443 60.7697 137.443 60.7697C139.362 61.0404 141.336 61.156 143.308 61.1134L144.048 61.0916C146.385 61.0149 148.732 60.8871 149.959 60.6731C150.041 61.0679 150.156 61.6418 150.288 62.3558Z" fill="black"/>
<path d="M150.288 62.3558C149.596 62.3558 147.289 62.37 144.711 62.3937H144.679L143.828 62.4022H143.801C140.742 62.4306 137.73 62.0831 136.521 62.1493C133.95 62.2895 137.443 60.7697 137.443 60.7697C139.362 61.0404 141.335 61.1564 143.308 61.1143L144.048 61.0916C146.385 61.0149 148.732 60.8871 149.959 60.6731C150.041 61.0679 150.156 61.6418 150.288 62.3558Z" fill="#E3A79F"/>
<path opacity="0.1" d="M143.114 35.5022L138.86 37.3933L135.577 61.5385C135.577 61.5385 137.518 60.7022 138.629 61.2304C139.739 61.7586 143.16 61.2744 143.16 61.2744C143.16 61.2744 145.657 61.1423 146.026 61.4064C146.394 61.6705 150.742 60.306 150.742 60.306C150.742 60.306 151.529 58.6351 150.927 58.371C150.325 58.1069 151.112 55.5132 151.112 55.5132L150.742 38.0959L150.003 35.8527L148.015 34.7116L145.979 36.2505L145.009 36.3825L143.114 35.5022Z" fill="black"/>
<path d="M143.111 35.4959L138.859 37.3874L135.577 61.5385C135.577 61.5385 137.518 60.702 138.633 61.2368C139.748 61.7717 143.163 61.2809 143.163 61.2809C143.163 61.2809 145.659 61.1488 146.027 61.4129C146.396 61.6771 150.742 60.3139 150.742 60.3139C150.742 60.3139 151.528 58.6409 150.927 58.3784C150.326 58.1158 151.112 55.5183 151.112 55.5183L150.742 38.0967L150.004 35.853L148.016 34.7116L145.981 36.2509L145.011 36.3829L143.111 35.4959Z" fill="#E7EFFD"/>
<path opacity="0.1" d="M143.011 35.9164C143.011 35.9164 144.163 37.2759 144.139 37.5577C144.114 37.8395 144.073 38.5072 144.073 38.5072L143.216 40.2606C143.216 40.2606 142.732 42.4416 142.732 42.8963C142.732 43.3511 141.969 47.2854 141.969 47.2854L141.055 53.3334L139.903 61.2612L141.078 63.2692L142.468 62.1035L144.316 47.9771L144.706 45.1909C144.706 45.1909 145.12 40.179 145.12 39.6602C145.12 39.1413 144.88 37.7819 144.88 37.7819C144.88 37.7819 145.163 36.4848 146.33 36.1806C147.496 35.8764 146.243 36.1166 146.243 36.1166L145.569 35.5769L144.988 35.8107C144.988 35.8107 143.359 35.3143 143.011 35.9164Z" fill="black"/>
<path d="M143.017 35.9259C143.017 35.9259 144.168 37.2852 144.144 37.567C144.12 37.8487 144.078 38.5163 144.078 38.5163L143.21 40.2662C143.21 40.2662 142.727 42.4468 142.727 42.9015C142.727 43.3561 141.967 47.285 141.967 47.285L141.054 53.3319L139.903 61.2584L141.085 63.2692L142.474 62.1037L144.318 47.9766L144.709 45.1909C144.709 45.1909 145.121 40.1798 145.121 39.6611C145.121 39.1423 144.881 37.7831 144.881 37.7831C144.881 37.7831 145.164 36.4863 146.33 36.1821C147.496 35.8779 146.243 36.1165 146.243 36.1165L145.57 35.5769L144.984 35.8139C144.984 35.8139 143.365 35.3208 143.017 35.9259Z" fill="#3F3D56"/>
<path opacity="0.1" d="M142.515 32.9808C142.515 32.9808 142.337 33.1284 142.293 34.1126C142.248 35.0969 141.633 37.3077 141.633 37.3077C141.633 37.3077 143.941 35.5379 145.095 35.7348L142.515 32.9808Z" fill="black"/>
<path d="M142.515 32.9808C142.515 32.9808 142.337 33.1284 142.293 34.1122C142.248 35.096 141.633 37.3077 141.633 37.3077C141.633 37.3077 143.941 35.5369 145.095 35.7336L142.515 32.9808Z" fill="#E7EFFD"/>
<path opacity="0.1" d="M148.798 32.9808L145.097 36.5075C145.097 36.5075 148.212 38.5161 148.61 39.0064C149.009 39.4967 149.424 34.2048 149.424 34.2048L148.798 32.9808Z" fill="black"/>
<path d="M148.798 32.1154L145.097 35.1383C145.097 35.1383 148.211 36.8599 148.61 37.2802C149.01 37.7005 149.424 33.1645 149.424 33.1645L148.798 32.1154Z" fill="#E7EFFD"/>
<path opacity="0.1" d="M142.435 33.0139C142.435 33.0139 142.046 32.8153 141.679 33.3913C141.409 33.7669 141.042 34.0579 140.619 34.2315C140.619 34.2315 136.683 34.8731 136.532 35.4048L134.693 35.5164C134.693 35.5164 134.044 35.605 133.98 36.9933C133.916 38.3815 133.569 38.521 133.569 38.521C133.569 38.521 132.816 39.906 132.878 40.6133C132.941 41.3206 132.295 41.6767 132.295 41.6767L134.998 48.8708C134.998 48.8708 135.084 51.8361 134.587 52.9208C134.09 54.0055 133.159 58.8087 133.159 58.8087C133.159 58.8087 133.548 58.72 133.528 58.9859C133.507 59.2517 133.047 62.1514 133.047 62.1514C133.047 62.1514 132.917 63.3001 132.7 63.7005C132.484 64.1009 132.463 66.18 132.463 66.18L132.117 67.6864C132.117 67.6864 132.938 69.567 134.201 69.3012C135.464 69.0353 137.728 64.0106 137.728 64.0106L139.171 58.5953L140.293 53.2391L140.614 49.6092L141.134 41.5684L141.89 36.2565C141.89 36.2565 142.74 33.3978 142.435 33.0139Z" fill="black"/>
<path d="M142.436 33.0139C142.436 33.0139 142.047 32.8153 141.68 33.3914C141.41 33.767 141.043 34.0581 140.62 34.2317C140.62 34.2317 136.684 34.8752 136.534 35.4053L134.695 35.5169C134.695 35.5169 134.053 35.6056 133.981 36.9942C133.909 38.3828 133.571 38.5256 133.571 38.5256C133.571 38.5256 132.814 39.8994 132.878 40.6068C132.942 41.3142 132.295 41.6704 132.295 41.6704L134.998 48.8662C134.998 48.8662 135.084 51.8321 134.587 52.9171C134.09 54.002 133.159 58.8063 133.159 58.8063C133.159 58.8063 133.548 58.7193 133.528 58.9836C133.507 59.2478 133.047 62.1497 133.047 62.1497C133.047 62.1497 132.917 63.2987 132.7 63.7008C132.484 64.103 132.463 66.1793 132.463 66.1793L132.117 67.6861C132.117 67.6861 132.938 69.5671 134.193 69.3012C135.448 69.0353 137.72 64.0094 137.72 64.0094L139.163 58.5929L140.285 53.2338L140.606 49.6031L141.125 41.5604L141.882 36.2473C141.882 36.2473 142.74 33.3914 142.436 33.0139Z" fill="#65617D"/>
<path opacity="0.1" d="M127.788 50.3798L126.778 51.1501C126.778 51.1501 125.231 51.2042 124.135 50.9033L123.573 50.628L123.461 50.5738L123.577 50.6138C124.157 50.8049 124.608 50.8006 124.968 50.668C126.395 50.1374 126.238 47.5301 126.183 46.9396C126.183 46.8811 126.174 46.8426 126.171 46.8269C126.173 46.832 126.176 46.8368 126.179 46.8412C126.198 46.8767 126.22 46.9106 126.245 46.9425C126.264 46.9681 126.286 46.9938 126.308 47.0181L126.812 48.132C126.812 48.132 126.812 48.1477 126.812 48.1791L127.788 50.3798Z" fill="black"/>
<path d="M133.26 42.5L132.643 42.6651L132.554 43.8409C132.554 43.8409 131.825 43.7369 131.625 44.5411C131.425 45.3453 131.072 45.7168 131.072 45.7168C131.072 45.7168 129.856 46.6663 129.791 47.4705L129.047 47.9032C129.047 47.9032 127.299 47.5317 126.903 46.8727C126.903 46.8727 127.698 52.1933 123.461 50.8937C123.461 50.8937 128.214 52.8324 128.435 53.1C128.657 53.3675 130.115 54.1519 131.443 53.4929C132.77 52.8339 133.057 51.8218 133.057 51.8218C133.057 51.8218 134.339 50.1507 134.383 49.903C134.427 49.6553 135.422 49.3679 135.422 49.3679L137.307 45.0854L133.26 42.5Z" fill="#65617D"/>
<path opacity="0.1" d="M149.003 35.0479L149.649 32.1154C149.649 32.1154 149.94 33.0709 150.229 33.2933L151.187 34.0264C151.187 34.0264 152.145 34.4712 152.479 34.4712C152.813 34.4712 154.619 34.9375 154.842 35.1813C155.065 35.4251 155.957 35.2488 155.957 35.2488C155.957 35.2488 156.692 35.4927 157.338 35.6492C157.984 35.8057 158.296 36.87 158.164 37.2966C158.11 37.5066 158.11 37.7267 158.165 37.9365C158.22 38.1463 158.327 38.3388 158.476 38.496C158.744 38.7629 158.878 39.6295 158.878 39.6295C159.205 39.7368 159.477 39.9682 159.635 40.2736C159.858 40.7679 159.8 41.8305 159.8 41.8305L156.479 46.4961C156.479 46.4961 156.524 48.2968 156.39 48.6971C156.256 49.0975 156.857 55.8966 156.857 55.8966L157.548 67.5936C157.548 67.5936 156.634 68.3712 156.434 68.4601C156.234 68.5491 156.033 64.3266 156.033 64.1767C156.033 64.0268 150.875 56.4798 150.875 56.4798C150.875 56.4798 150.184 55.3694 150.184 55.1239C150.184 54.8784 149.538 52.6346 149.538 52.6346L148.557 48.3017L149.003 35.0479Z" fill="black"/>
<path d="M159.806 41.5692C159.806 41.7225 159.806 41.823 159.806 41.823L156.484 46.4897C156.484 46.4897 156.529 48.2915 156.395 48.6921C156.317 48.9228 156.488 51.3164 156.645 53.283C156.757 54.7006 156.863 55.8957 156.863 55.8957L157.157 60.8575L157.554 67.593C157.554 67.593 156.64 68.3711 156.44 68.4601C156.24 68.5491 156.038 64.3242 156.038 64.1742C156.038 64.0242 150.876 56.4859 150.876 56.4859C150.876 56.4859 150.185 55.3732 150.185 55.1292C150.185 54.8852 149.539 52.6384 149.539 52.6384L148.557 48.303L149.003 35.0496L149.382 32.1154C149.382 32.1154 149.939 33.0715 150.23 33.2923C150.521 33.5132 151.189 34.0276 151.189 34.0276C151.189 34.0276 152.148 34.4726 152.482 34.4726C152.816 34.4726 154.623 34.9391 154.846 35.1831C155.069 35.4271 155.962 35.2507 155.962 35.2507C155.962 35.2507 156.698 35.4947 157.344 35.6513C157.991 35.8079 158.303 36.8744 158.171 37.2997C158.117 37.51 158.117 37.7306 158.171 37.9408C158.226 38.151 158.333 38.3439 158.483 38.5014C158.749 38.7685 158.883 39.6355 158.883 39.6355C159.212 39.7429 159.484 39.9751 159.642 40.2817C159.796 40.6048 159.811 41.2213 159.806 41.5692Z" fill="#65617D"/>
<path opacity="0.1" d="M132.117 100.481C132.239 100.481 137.406 100.754 137.308 101.913C137.209 103.072 132.117 100.481 132.117 100.481Z" fill="black"/>
<path opacity="0.1" d="M133.847 102.212C133.847 102.212 136.063 102.625 135.48 103.002C134.896 103.379 133.847 102.212 133.847 102.212Z" fill="black"/>
<path opacity="0.1" d="M145.097 99.6154C145.097 99.6154 150.095 100.29 149.347 101.164C148.6 102.039 146.827 102.176 146.742 102.211C146.656 102.246 145.097 99.6154 145.097 99.6154Z" fill="black"/>
<path opacity="0.1" d="M145.097 102.212C145.097 102.212 146.775 102.58 146.826 102.991C146.878 103.401 145.097 102.212 145.097 102.212Z" fill="black"/>
<path opacity="0.1" d="M135.168 90.9615C135.168 90.9615 134.162 91.2112 135.135 91.7093C136.108 92.2075 135.168 90.9615 135.168 90.9615Z" fill="black"/>
<path opacity="0.1" d="M142.501 73.1247L142.473 73.3432L140.201 78.7122C140.201 78.7122 139.838 80.3426 139.518 81.2622C139.317 81.8902 139.157 82.5283 139.039 83.1731L141.056 71.9231L142.501 73.1247Z" fill="black"/>
<path d="M145.097 62.3926L144.028 62.4038H143.993L143.367 60.7031L144.297 60.6731L145.097 62.3926Z" fill="#3F3D56"/>
<path d="M156.346 60.1528L155.759 60.5968L153.794 62.0764C153.794 62.0764 148.472 64.6716 147.007 62.2062C145.715 60.0342 151.74 58.4841 153.2 58.1459L153.51 58.0769L156.346 60.1528Z" fill="#D69766"/>
<path opacity="0.1" d="M134.711 39.0384C134.711 39.0384 135.402 39.3584 135.56 39.8051C135.717 40.2518 134.711 39.0384 134.711 39.0384Z" fill="black"/>
<path opacity="0.1" d="M131.249 45.9615C131.249 45.9615 129.996 47.1646 130.505 47.6266C131.014 48.0886 131.249 45.9615 131.249 45.9615Z" fill="black"/>
<path opacity="0.1" d="M157.213 39.9039C157.213 39.9039 154.701 39.9934 154.617 40.7692L157.213 39.9039Z" fill="black"/>
<path opacity="0.1" d="M145.097 58.0769C145.215 57.9424 147.93 53.3716 148.558 53.7752L145.097 58.0769Z" fill="black"/>
<path opacity="0.1" d="M150.289 28.5567C150.29 29.4052 150.061 30.2408 149.623 30.9885H149.581C149.231 30.9196 149.04 30.5394 148.767 30.3004C148.599 30.1552 148.386 30.0617 148.157 30.033C147.928 30.0042 147.695 30.0416 147.491 30.1399C147.284 30.2533 147.116 30.4172 147.005 30.6133C146.894 30.8094 146.845 31.0299 146.864 31.25C146.689 30.557 146.741 29.8207 146.564 29.1261C146.387 28.4315 145.863 27.7289 145.136 27.7177C144.824 27.7177 144.46 27.8236 144.234 27.6086C144.097 27.4803 144.069 27.2766 143.968 27.1193C143.442 26.3526 141.874 26.7408 141.231 27.1338C140.588 27.5268 139.84 28.1556 139.039 28.4925C139.073 27.1411 139.687 25.8563 140.746 24.9152C141.806 23.974 143.227 23.452 144.704 23.4617C146.18 23.4714 147.593 24.012 148.638 24.9669C149.683 25.9219 150.276 27.2146 150.289 28.5663V28.5567Z" fill="black"/>
<path d="M144.008 27.172C144.102 27.3303 144.127 27.5282 144.253 27.6549C144.459 27.867 144.793 27.7578 145.081 27.7625C145.745 27.7736 146.23 28.467 146.391 29.1524C146.552 29.8379 146.501 30.5645 146.666 31.25C146.649 31.0327 146.693 30.8149 146.795 30.6214C146.897 30.4278 147.052 30.2661 147.242 30.1545C147.429 30.0579 147.643 30.0213 147.853 30.0497C148.062 30.078 148.258 30.17 148.412 30.3128C148.663 30.5487 148.834 30.9239 149.16 30.9904C149.486 31.0568 149.803 30.7497 149.921 30.411C150.038 30.0722 150.031 29.6986 150.109 29.3471C150.255 28.6807 150.697 28.1345 150.942 27.5013C151.233 26.7305 151.225 25.881 150.919 25.1156C150.758 24.7151 150.514 24.3542 150.35 23.9537C150.101 23.3442 150.028 22.6572 149.731 22.0778C149.221 21.1073 148.017 20.6214 147.03 20.987C146.557 21.1612 146.148 21.4984 145.669 21.6503C145.026 21.853 144.343 21.701 143.68 21.6092C143.018 21.5174 142.283 21.5094 141.751 21.94C141.137 22.4339 140.969 23.3648 140.392 23.9062C140.149 24.1342 139.849 24.2798 139.588 24.4903C139.328 24.7009 139.106 25.0159 139.143 25.3578C139.18 25.7995 139.625 26.2016 139.464 26.6116C139.406 26.732 139.324 26.8397 139.223 26.9282C138.74 27.4268 138.381 28.0288 138.173 28.687C139.334 29.0448 140.585 27.7847 141.498 27.1894C142.087 26.7984 143.532 26.4153 144.008 27.172Z" fill="#3F3D56"/>
<path opacity="0.1" d="M156.345 60.2156L155.717 60.6731C155.155 59.8589 152.883 58.2322 152.883 58.2322L152.981 58.1479L153.312 58.0769L156.345 60.2156Z" fill="black"/>
<path d="M156.345 59.6716C156.345 59.6716 156.146 60.2712 155.939 60.7907C155.732 61.3103 155.507 61.79 155.497 61.3903C155.474 60.6349 152.883 58.1008 152.883 58.1008L153.234 57.6892L153.642 57.2115L156.345 59.6716Z" fill="#E7EFFD"/>
<path opacity="0.1" d="M156.078 56.4366L156.345 61.5385C155.715 60.435 153.991 57.6027 152.883 57.6942L155.573 54.1958C155.684 54.0555 155.787 53.9065 155.88 53.75C155.982 55.2077 156.078 56.4366 156.078 56.4366Z" fill="black"/>
<path opacity="0.1" d="M156.345 58.9946C156.345 58.9946 156.124 59.4302 155.893 59.8077C155.027 58.8712 153.834 57.7647 152.883 57.5586L153.337 57.2115L156.345 58.9946Z" fill="black"/>
<path d="M158.53 40.7692L159.35 41.4053C159.35 41.4053 160.716 41.4272 160.852 42.5631C160.989 43.699 162.241 44.219 162.241 44.219C162.241 44.219 163.175 45.1496 163.175 45.5821C163.175 46.0145 163.88 46.7853 163.88 46.8526C163.88 46.9199 164.556 48.3048 164.473 48.5556C164.39 48.8063 165.2 49.9018 164.951 50.3023C164.745 50.6694 164.562 51.0488 164.404 51.4382C164.404 51.4382 163.334 53.4812 162.788 53.8665C162.243 54.2519 159.736 57.4997 159.736 57.4997C159.736 57.4997 157.049 60.586 157.049 61.5384C157.049 61.5384 154.431 57.18 152.883 57.2927L155.92 53.8211C155.92 53.8211 156.443 53.254 156.467 52.9141C156.491 52.5741 157.924 51.0074 158.607 50.9384C158.607 50.9384 158.72 50.0078 158.425 49.986C158.13 49.9641 157.878 49.2354 157.878 49.2354C157.878 49.2354 155.874 46.8795 155.852 45.3768C155.831 43.874 158.53 40.7692 158.53 40.7692Z" fill="#65617D"/>
<path opacity="0.1" d="M159.807 43.3654C159.807 43.3654 157.686 45.27 158.141 45.8822C158.596 46.4943 159.807 43.3654 159.807 43.3654Z" fill="black"/>
<path opacity="0.1" d="M138.172 107.701C138.172 107.701 136.342 108.912 135.429 108.734C134.516 108.556 133.578 109.044 133.578 109.044C132.949 109.74 132.155 110.263 131.271 110.563C129.792 111.069 127.721 110.87 126.548 110.474C125.992 110.286 125.948 110.044 126.216 109.746C127.492 110.004 130.348 110.516 131.119 110.144C132.12 109.654 133.556 108.603 133.556 108.603C133.556 108.603 135.429 108.354 135.69 108.354C135.876 108.354 137.322 107.75 138.137 107.404L138.172 107.701Z" fill="black"/>
<path opacity="0.1" d="M149.424 110C149.411 110.086 149.404 110.14 149.404 110.14C149.404 110.14 148.905 111.25 146.139 111.655C143.372 112.059 143.367 110.719 143.367 110.719C143.367 110.719 143.378 110.575 143.396 110.358C144.274 110.696 146.194 111.073 149.424 110Z" fill="black"/>
<path opacity="0.1" d="M135.576 43.3654C135.576 43.3654 135.576 48.0659 134.9 48.5304C134.224 48.995 135.576 43.3654 135.576 43.3654Z" fill="black"/>
<path opacity="0.1" d="M154.617 45.9615L156.262 46.8269C156.262 46.8269 156.914 45.9773 154.617 45.9615Z" fill="black"/>
<g opacity="0.1">
<path opacity="0.1" d="M139.829 25.9427C140.161 25.4139 139.3 24.8976 139.187 24.3269C139.072 24.4867 139.023 24.6621 139.044 24.837C139.1 25.2655 139.602 25.6626 139.735 26.0577C139.772 26.0211 139.803 25.9827 139.829 25.9427V25.9427Z" fill="black"/>
<path opacity="0.1" d="M146.827 30.7697C146.665 30.0592 146.717 29.3088 146.557 28.6016C146.398 27.8945 145.906 27.149 145.23 27.1374C144.94 27.1374 144.602 27.2474 144.392 27.024C144.265 26.8905 144.241 26.6787 144.145 26.5153C143.657 25.7181 142.203 26.1217 141.604 26.5303C140.706 27.1424 139.473 28.4215 138.323 28.1313C138.268 28.2681 138.216 28.4048 138.173 28.5466C139.348 28.9235 140.613 27.596 141.537 26.9689C142.136 26.5603 143.598 26.1567 144.08 26.9539C144.174 27.1207 144.2 27.3292 144.327 27.4626C144.535 27.6861 144.874 27.571 145.165 27.576C145.837 27.5877 146.328 28.3181 146.49 29.0403C146.653 29.7624 146.601 30.5279 146.769 31.25C146.758 31.0876 146.778 30.9245 146.827 30.7697V30.7697Z" fill="black"/>
<path opacity="0.1" d="M150.233 29.9856C150.108 30.4119 149.785 30.8023 149.435 30.7146C149.085 30.627 148.915 30.1589 148.654 29.8621C148.493 29.6824 148.288 29.5667 148.069 29.531C147.849 29.4953 147.626 29.5414 147.43 29.6629C147.24 29.7961 147.084 29.987 146.978 30.2158C146.872 30.4446 146.82 30.7028 146.827 30.9636C146.918 30.6354 147.108 30.3586 147.361 30.1868C147.557 30.0653 147.78 30.0191 148 30.0548C148.219 30.0905 148.424 30.2063 148.586 30.386C148.848 30.6828 149.026 31.1548 149.368 31.2385C149.709 31.3222 150.041 30.9357 150.164 30.5095C150.229 30.258 150.271 29.9988 150.288 29.7366C150.274 29.8208 150.255 29.9039 150.233 29.9856V29.9856Z" fill="black"/>
<path opacity="0.1" d="M151.04 26.5055C150.835 27.1085 150.466 27.6287 150.342 28.2634C150.317 28.3915 150.303 28.5227 150.289 28.6539C150.413 28.0222 150.781 27.502 150.986 26.902C151.076 26.6305 151.133 26.3464 151.154 26.0577C151.126 26.2098 151.088 26.3595 151.04 26.5055V26.5055Z" fill="black"/>
</g>
<path d="M122.363 43.2335L116.262 37.1214C115.963 36.8167 115.606 36.574 115.212 36.4074C114.818 36.2408 114.395 36.1535 113.968 36.1506C113.54 36.1478 113.116 36.2293 112.72 36.3906C112.324 36.5518 111.964 36.7896 111.661 37.0902L73.348 74.934L57.1486 58.6701C56.5471 58.0623 55.7279 57.7175 54.8712 57.7113C54.0144 57.7052 53.1903 58.0384 52.5802 58.6375L46.4135 64.7155C45.8041 65.3219 45.4591 66.143 45.4532 67.001C45.4474 67.859 45.7811 68.6847 46.3822 69.2992L70.9834 93.9997C71.5919 94.607 72.416 94.951 73.2773 94.9571C74.1386 94.9632 74.9676 94.6309 75.5846 94.0323L122.329 47.8157C122.634 47.5179 122.878 47.1628 123.045 46.7708C123.213 46.3788 123.301 45.9577 123.304 45.5317C123.307 45.1057 123.226 44.6833 123.064 44.2889C122.903 43.8944 122.664 43.5357 122.363 43.2335Z" fill="#A44200"/>
<defs>
<linearGradient id="paint0_linear" x1="8109.21" y1="41147.7" x2="8109.21" y2="18139.7" gradientUnits="userSpaceOnUse">
<stop stop-color="#808080" stop-opacity="0.25"/>
<stop offset="0.54" stop-color="#808080" stop-opacity="0.12"/>
<stop offset="1" stop-color="#808080" stop-opacity="0.1"/>
</linearGradient>
<linearGradient id="paint1_linear" x1="142.493" y1="111.734" x2="142.493" y2="19.9959" gradientUnits="userSpaceOnUse">
<stop stop-color="#808080" stop-opacity="0.25"/>
<stop offset="0.54" stop-color="#808080" stop-opacity="0.12"/>
<stop offset="1" stop-color="#808080" stop-opacity="0.1"/>
</linearGradient>
</defs>
</svg>
