<svg width="163" height="112" viewBox="0 0 163 112" fill="none" xmlns="http://www.w3.org/2000/svg">
<g clip-path="url(#clip0)">
<path opacity="0.03" d="M142.298 95.5619C140.974 95.6756 139.641 95.6583 138.321 95.5102C123.801 93.9114 104.029 94.3661 87.9115 104.31C65.6213 118.061 30.6877 106.289 15.2782 99.8847C3.50419 94.9943 -2.60973 83.0121 1.06533 71.7652C1.11695 71.6085 1.17063 71.4497 1.22634 71.2889C3.53677 64.6056 8.09718 59.3753 13.7441 56.6024C18.6662 54.1859 25.8529 49.1399 29.0506 39.4439C30.3106 35.5056 32.1603 31.7793 34.537 28.3908C40.8388 19.5976 54.0318 6.51356 76.7215 6.59491C80.6997 6.61416 84.6481 7.27965 88.411 8.56514C96.7003 11.379 104.187 17.0974 109.896 25.023C113.536 30.0793 118.995 34.7816 126.81 35.1648C137.657 35.6995 148.008 40.7285 155.773 49.6783C155.997 49.9355 156.218 50.1955 156.439 50.456C170.266 66.8481 160.662 93.9631 142.298 95.5619Z" fill="#C3868F"/>
<path d="M71.4349 102.708C76.3444 102.708 80.3243 101.702 80.3243 100.462C80.3243 99.221 76.3444 98.2154 71.4349 98.2154C66.5254 98.2154 62.5454 99.221 62.5454 100.462C62.5454 101.702 66.5254 102.708 71.4349 102.708Z" fill="#F2F2F2"/>
<path d="M72.0984 77.8683C77.0079 77.8683 80.9879 76.8626 80.9879 75.622C80.9879 74.3814 77.0079 73.3757 72.0984 73.3757C67.1889 73.3757 63.209 74.3814 63.209 75.622C63.209 76.8626 67.1889 77.8683 72.0984 77.8683Z" fill="#F2F2F2"/>
<path d="M31.2332 78.9253C36.1427 78.9253 40.1227 77.9197 40.1227 76.6791C40.1227 75.4385 36.1427 74.4328 31.2332 74.4328C26.3237 74.4328 22.3438 75.4385 22.3438 76.6791C22.3438 77.9197 26.3237 78.9253 31.2332 78.9253Z" fill="#F2F2F2"/>
<path d="M76.1614 9.28788H25.3452V11.2036H76.1614V9.28788Z" fill="#F5F5F5"/>
<path d="M76.9566 8.75935H24.416V72.9728H76.9566V8.75935Z" fill="url(#paint0_linear)"/>
<path d="M76.1614 11.2036H25.3452V71.9157H76.1614V11.2036Z" fill="white"/>
<path d="M26.3904 10.7409C26.6468 10.7409 26.8546 10.5339 26.8546 10.2786C26.8546 10.0234 26.6468 9.81641 26.3904 9.81641C26.1341 9.81641 25.9263 10.0234 25.9263 10.2786C25.9263 10.5339 26.1341 10.7409 26.3904 10.7409Z" fill="#FF5252"/>
<path d="M27.6668 10.7409C27.9232 10.7409 28.131 10.5339 28.131 10.2786C28.131 10.0234 27.9232 9.81641 27.6668 9.81641C27.4104 9.81641 27.2026 10.0234 27.2026 10.2786C27.2026 10.5339 27.4104 10.7409 27.6668 10.7409Z" fill="#FFFF00"/>
<path d="M28.9446 10.7409C29.201 10.7409 29.4088 10.5339 29.4088 10.2786C29.4088 10.0234 29.201 9.81641 28.9446 9.81641C28.6883 9.81641 28.4805 10.0234 28.4805 10.2786C28.4805 10.5339 28.6883 10.7409 28.9446 10.7409Z" fill="#69F0AE"/>
<g opacity="0.2">
<path opacity="0.2" d="M46.5739 13.5157H26.8047V14.7049H46.5739V13.5157Z" fill="#992032"/>
</g>
<path d="M60.6373 18.4046H40.8682V19.5938H60.6373V18.4046Z" fill="#F5F5F5"/>
<path opacity="0.5" d="M46.5739 56.7213H26.8047V57.9105H46.5739V56.7213Z" fill="#992032"/>
<path d="M55.8609 56.5892H49.2271V58.0427H55.8609V56.5892Z" fill="url(#paint1_linear)"/>
<path d="M55.8609 63.9882H49.2271V65.4416H55.8609V63.9882Z" fill="url(#paint2_linear)"/>
<path d="M69.394 63.9882H62.7603V65.4416H69.394V63.9882Z" fill="url(#paint3_linear)"/>
<path d="M55.7279 56.7213H49.4922V57.9105H55.7279V56.7213Z" fill="#992032"/>
<path d="M55.7279 64.1203H49.4922V65.3095H55.7279V64.1203Z" fill="#992032"/>
<path d="M69.1288 64.1203H62.8931V65.3095H69.1288V64.1203Z" fill="#992032"/>
<path d="M46.5739 60.4206H26.8047V61.6098H46.5739V60.4206Z" fill="#F5F5F5"/>
<path opacity="0.5" d="M69.2614 60.4206H49.4922V61.6098H69.2614V60.4206Z" fill="#992032"/>
<path d="M69.2614 67.82H49.4922V69.0092H69.2614V67.82Z" fill="#F5F5F5"/>
<path opacity="0.5" d="M46.5739 64.1203H26.8047V65.3095H46.5739V64.1203Z" fill="#992032"/>
<path d="M46.5739 67.82H26.8047V69.0092H46.5739V67.82Z" fill="#F5F5F5"/>
<path d="M52.0133 20.3866H40.8682V21.5758H52.0133V20.3866Z" fill="#F5F5F5"/>
<path d="M57.8518 20.3866H54.0039V21.5758H57.8518V20.3866Z" fill="#F5F5F5"/>
<path d="M52.0133 24.3501H40.8682V25.5393H52.0133V24.3501Z" fill="#F5F5F5"/>
<path d="M57.8518 24.3501H54.0039V25.5393H57.8518V24.3501Z" fill="#F5F5F5"/>
<path d="M60.6373 22.3686H40.8682V23.5578H60.6373V22.3686Z" fill="#F5F5F5"/>
<g opacity="0.2">
<path opacity="0.2" d="M74.4362 13.5157H54.667V14.7049H74.4362V13.5157Z" fill="#992032"/>
</g>
<path d="M68.2003 18.2725H65.812V19.7259H68.2003V18.2725Z" fill="url(#paint4_linear)"/>
<path d="M68.2003 20.2545H65.812V21.7079H68.2003V20.2545Z" fill="url(#paint5_linear)"/>
<path d="M68.2003 22.2365H65.812V23.6899H68.2003V22.2365Z" fill="url(#paint6_linear)"/>
<path d="M68.0678 18.4046H65.9448V19.5938H68.0678V18.4046Z" fill="#FF5252"/>
<path d="M68.0678 20.3866H65.9448V21.5758H68.0678V20.3866Z" fill="#FF9800"/>
<path d="M68.0678 22.3686H65.9448V23.5578H68.0678V22.3686Z" fill="#69F0AE"/>
<path d="M68.2003 24.218H65.812V25.6714H68.2003V24.218Z" fill="url(#paint7_linear)"/>
<path d="M68.0678 24.3501H65.9448V25.5393H68.0678V24.3501Z" fill="#992032"/>
<path d="M75.0994 32.8062H26.4062V52.6252H75.0994V32.8062Z" fill="url(#paint8_linear)"/>
<path opacity="0.5" d="M74.4364 33.2026H26.8047V51.9645H74.4364V33.2026Z" fill="#992032"/>
<path opacity="0.5" d="M28.2642 34.656H74.4364V33.2026H26.8047V51.9645H28.2642V34.656Z" fill="white"/>
<path d="M75.5415 31.5612L26.6523 35.9919L28.4802 55.9926L77.3693 51.5618L75.5415 31.5612Z" fill="url(#paint9_linear)"/>
<path d="M74.9288 32.1457L27.4932 36.4448L29.2007 55.1295L76.6364 50.8305L74.9288 32.1457Z" fill="white"/>
<path opacity="0.5" d="M31.034 51.7783L30.2114 41.3708C30.2114 41.3708 34.4574 36.8783 43.0281 40.208C51.5988 43.5376 55.6407 41.187 57.0337 38.9384C58.4267 36.6898 65.6578 34.182 68.0008 37.9434C70.3438 41.7047 73.1538 37.4755 73.1538 37.4755L74.1039 47.8698L31.034 51.7783Z" fill="#992032"/>
<path d="M35.3501 39.1034L35.4219 39.8934" stroke="#992032" stroke-miterlimit="10"/>
<path d="M35.561 41.408L36.3227 49.7399" stroke="#992032" stroke-miterlimit="10" stroke-dasharray="11.51 11.51"/>
<path d="M36.3921 50.497L36.4653 51.2855" stroke="#992032" stroke-miterlimit="10"/>
<path d="M43.5088 40.3932L43.582 41.1818" stroke="#992032" stroke-miterlimit="10"/>
<path d="M43.7383 42.901L44.2889 48.9142" stroke="#992032" stroke-miterlimit="10" stroke-dasharray="13.06 13.06"/>
<path d="M44.3672 49.7728L44.439 50.5628" stroke="#992032" stroke-miterlimit="10"/>
<path d="M51.833 41.8044L51.9128 42.593" stroke="#992032" stroke-miterlimit="10"/>
<path d="M52.041 43.8814L52.4896 48.3871" stroke="#992032" stroke-miterlimit="10" stroke-dasharray="9.79 9.79"/>
<path d="M52.5547 49.0303L52.6331 49.8203" stroke="#992032" stroke-miterlimit="10"/>
<path d="M59.3149 37.1454L59.3867 37.9354" stroke="#992032" stroke-miterlimit="10"/>
<path d="M59.5215 39.4194L60.2685 47.5835" stroke="#992032" stroke-miterlimit="10" stroke-dasharray="11.28 11.28"/>
<path d="M60.3359 48.3245L60.4091 49.1145" stroke="#992032" stroke-miterlimit="10"/>
<path d="M64.7148 36.0554L64.7866 36.844" stroke="#992032" stroke-miterlimit="10"/>
<path d="M64.9297 38.4136L65.7192 47.0455" stroke="#992032" stroke-miterlimit="10" stroke-dasharray="11.93 11.93"/>
<path d="M65.791 47.8303L65.8642 48.6189" stroke="#992032" stroke-miterlimit="10"/>
<path d="M35.3854 39.7105C35.7503 39.6775 36.0192 39.3561 35.986 38.9927C35.9528 38.6293 35.6301 38.3616 35.2652 38.3946C34.9003 38.4277 34.6314 38.7491 34.6646 39.1125C34.6978 39.4758 35.0206 39.7436 35.3854 39.7105Z" fill="#FF9800"/>
<path d="M43.5046 41.0982C43.8695 41.0651 44.1384 40.7437 44.1052 40.3803C44.072 40.017 43.7492 39.7492 43.3843 39.7823C43.0194 39.8153 42.7506 40.1367 42.7838 40.5001C42.817 40.8635 43.1397 41.1312 43.5046 41.0982Z" fill="#FF5252"/>
<path d="M51.8908 42.4599C52.2557 42.4269 52.5246 42.1055 52.4914 41.7421C52.4582 41.3787 52.1355 41.111 51.7706 41.144C51.4057 41.1771 51.1368 41.4985 51.17 41.8619C51.2032 42.2252 51.5259 42.493 51.8908 42.4599Z" fill="#69F0AE"/>
<path d="M59.3497 38.0692C59.8605 38.0229 60.237 37.5729 60.1905 37.0642C60.144 36.5555 59.6922 36.1806 59.1813 36.2269C58.6705 36.2732 58.294 36.7231 58.3405 37.2319C58.387 37.7406 58.8388 38.1155 59.3497 38.0692Z" fill="url(#paint10_linear)"/>
<path d="M64.8511 37.0408C65.362 36.9945 65.7384 36.5446 65.6919 36.0358C65.6455 35.5271 65.1936 35.1522 64.6828 35.1985C64.1719 35.2448 63.7955 35.6948 63.842 36.2035C63.8885 36.7122 64.3403 37.0871 64.8511 37.0408Z" fill="url(#paint11_linear)"/>
<path d="M59.3254 37.8061C59.6903 37.773 59.9592 37.4517 59.926 37.0883C59.8927 36.7249 59.57 36.4571 59.2051 36.4902C58.8402 36.5233 58.5714 36.8447 58.6046 37.208C58.6378 37.5714 58.9605 37.8392 59.3254 37.8061Z" fill="#992032"/>
<path d="M64.8273 36.7773C65.1922 36.7442 65.4611 36.4228 65.4279 36.0594C65.3947 35.6961 65.072 35.4283 64.7071 35.4614C64.3422 35.4944 64.0733 35.8158 64.1065 36.1792C64.1397 36.5426 64.4624 36.8103 64.8273 36.7773Z" fill="#992032"/>
<path d="M73.2355 38.4033C73.6004 38.3702 73.8693 38.0488 73.8361 37.6855C73.8029 37.3221 73.4802 37.0543 73.1153 37.0874C72.7504 37.1205 72.4815 37.4419 72.5147 37.8052C72.5479 38.1686 72.8707 38.4364 73.2355 38.4033Z" fill="#69F0AE"/>
<g opacity="0.2">
<path opacity="0.2" d="M74.5215 50.8708L74.5309 50.9013C74.6348 50.844 74.5215 50.8708 74.5215 50.8708Z" fill="url(#paint12_linear)"/>
</g>
<g opacity="0.2">
<path opacity="0.2" d="M73.422 73.0654L75.5818 72.7179L75.2848 71.3966V71.3782H75.2768L73.7455 64.3752V59.2685C73.7452 59.2036 73.7416 59.1388 73.7346 59.0743C76.0219 56.0541 74.6634 51.3156 74.5307 50.9009C74.5067 50.9126 74.4712 50.9286 74.4207 50.9479C74.4041 50.7631 74.369 50.5803 74.3159 50.4025C74.3159 50.4025 73.6548 49.9821 73.2903 50.5228C73.1854 50.6343 73.1257 50.7806 73.1228 50.9333C73.1198 51.0861 73.1738 51.2345 73.2743 51.3499L73.227 51.3645C73.3287 51.5236 73.3998 51.7001 73.4367 51.8851C73.4157 51.8395 73.3917 51.7954 73.3649 51.7529C73.2813 51.7383 73.2322 51.7252 73.2322 51.7252L73.2162 51.7106L73.1689 51.7252C73.4188 52.2285 73.5227 52.7913 73.4688 53.3503C73.3895 53.241 73.3007 53.1389 73.2034 53.0451C72.7839 52.6462 72.2307 52.4165 71.6509 52.4004H71.5408C71.4805 52.4004 71.4203 52.4043 71.3605 52.4122H71.3132L71.2377 52.4225L71.1513 52.4385L71.089 52.4517L70.9813 52.4808L70.9416 52.4926C70.8944 52.5072 70.8529 52.5217 70.8089 52.5396C70.6635 52.61 70.5109 52.6649 70.3537 52.7032C70.3318 52.7022 70.3099 52.7044 70.2886 52.7098C70.1112 52.7223 69.9351 52.6724 69.7909 52.5688L69.7437 52.5316C69.7256 52.5168 69.7083 52.5011 69.6917 52.4846C69.6737 52.5303 69.666 52.5794 69.6691 52.6285C69.679 52.745 69.7349 52.8529 69.8244 52.9285C69.8495 52.9501 69.8771 52.9688 69.9066 52.984C69.9505 53.0068 69.9988 53.0203 70.0483 53.0235H70.0865C70.0558 53.038 70.0256 53.0512 69.9921 53.063H69.9854C69.951 53.0747 69.9179 53.0855 69.882 53.0945C69.7082 53.1383 69.5264 53.141 69.3513 53.1025L69.2942 53.0893C69.2663 53.0813 69.237 53.0733 69.2106 53.0644C69.2193 53.0843 69.2291 53.1038 69.2399 53.1227L69.2503 53.1401L69.2743 53.1772L69.289 53.1956L69.3154 53.2285L69.3315 53.2459L69.3645 53.2788L69.3777 53.2906L69.425 53.3315L69.4419 53.3432L69.4778 53.3681L69.5019 53.3827L69.5336 53.4011L69.56 53.4142L69.5931 53.4288L69.6209 53.4406L69.6582 53.4537L69.7054 53.4669L69.7399 53.4763H69.9708C70.0393 53.471 70.1065 53.4551 70.1701 53.4293L70.0478 53.4796L69.9869 53.5008L69.9245 53.5233L69.8622 53.5417L69.7985 53.56L69.7361 53.576L69.6696 53.592L69.6086 53.6037L69.5383 53.6155L69.4797 53.6249L69.4042 53.6343H69.0859C69.1592 53.6556 69.2274 53.6916 69.2861 53.7401C69.3241 53.7675 69.3655 53.7898 69.4094 53.8064C69.4291 53.8121 69.4491 53.8165 69.4693 53.8196H69.7663C69.8874 53.8317 70.0045 53.869 70.1101 53.9291C70.166 53.965 70.2158 54.0096 70.2574 54.0613C70.239 54.0918 70.2201 54.1205 70.2045 54.1525C70.189 54.1845 70.1767 54.2052 70.1635 54.2329C70.1369 54.2875 70.1134 54.3436 70.0931 54.4008C70.0175 54.6061 69.9788 54.823 69.9788 55.0417V55.1931C69.9789 55.2247 69.9824 55.2563 69.9892 55.2871V55.3121C69.9946 55.3509 70.0017 55.3892 70.0105 55.4268V55.4494C70.0177 55.4807 70.0257 55.5121 70.0346 55.5434L70.0426 55.5711C70.0648 55.6458 70.0918 55.719 70.1233 55.7903L70.1328 55.8114C70.1479 55.8428 70.1636 55.8741 70.18 55.9055V55.9149C70.1995 55.95 70.2198 55.9848 70.2409 56.0193V56.0273C70.2604 56.0586 70.2812 56.09 70.3032 56.1213L70.3113 56.1317C70.3589 56.1977 70.4108 56.2605 70.4666 56.3197C70.6109 56.4722 70.78 56.5994 70.9667 56.6959C70.9603 56.7243 70.9554 56.7531 70.952 56.782C70.9504 56.8119 70.9504 56.8419 70.952 56.8718V57.5696C70.9124 57.5906 70.8735 57.613 70.8354 57.6368C69.1728 56.8845 66.6971 51.5592 66.6971 51.5592H66.6376C66.8789 51.3796 66.6376 50.5971 66.6376 50.5971C66.4958 50.5129 66.3372 50.4606 66.173 50.4438H65.9595L65.9331 50.4518H65.9199L65.8802 50.4664L65.8429 50.4838L65.8297 50.4904L65.8047 50.505L65.7872 50.5854L65.7631 50.6013L65.7485 50.6131L65.7258 50.6314L65.7112 50.6446L65.6885 50.6658L65.6753 50.6804L65.6526 50.7067L65.6418 50.7198L65.6087 50.7669C65.2465 51.3072 65.6087 51.6086 65.6087 51.6086C65.5854 51.817 65.5744 52.0266 65.5757 52.2363C65.5492 56.1288 69.7309 59.1453 69.9463 59.2958C69.3932 60.9468 69.3965 62.7324 69.9557 64.3813C69.9586 64.3878 69.9622 64.394 69.9666 64.3996C68.9635 65.3201 68.2191 66.4853 67.8068 67.78C67.3944 69.0748 67.3285 70.4543 67.6155 71.7821L67.6325 71.8626H67.6708C67.6668 71.8804 67.6619 71.8979 67.6561 71.9152C67.646 71.9476 67.6333 71.979 67.6179 72.0093C67.5914 72.06 67.5589 72.1073 67.5211 72.1503C67.48 72.1974 67.4323 72.2444 67.3818 72.2942L67.3289 72.3445C67.1178 72.5453 66.9039 72.7409 67.0635 72.8204H69.3541V71.8282H69.3938C69.3938 71.8282 69.3777 71.7977 69.3541 71.7384V71.7281H69.3461C69.0585 70.8425 69.0751 69.8867 69.3933 69.0116C69.9359 67.2083 72.047 66.3069 72.047 66.3069L72.0853 66.439H72.0773L73.7332 71.856C73.7343 71.8778 73.732 71.8997 73.7266 71.9209C73.7191 71.972 73.7071 72.0223 73.6907 72.0713C73.6774 72.1093 73.6616 72.1464 73.6435 72.1823C73.5415 72.3925 73.3649 72.6394 73.2879 72.8246C73.2769 72.85 73.2676 72.8761 73.2601 72.9027C73.2507 72.9331 73.2475 72.9651 73.2506 72.9967C73.253 73.0165 73.2608 73.0353 73.2732 73.0509C73.2856 73.0665 73.3022 73.0784 73.321 73.0851H73.3517L73.4154 73.0748L73.422 73.0654ZM72.7827 57.642C72.7411 57.6191 72.6969 57.5975 72.65 57.5771V56.9216C72.6496 56.8716 72.6447 56.8217 72.6354 56.7726C72.7783 56.7047 72.9121 56.6191 73.0334 56.5177C72.9536 56.9221 72.8649 57.3091 72.7841 57.642H72.7827Z" fill="url(#paint13_linear)"/>
</g>
<path d="M65.5807 52.1775C65.5807 52.1775 65.1827 51.8446 65.5807 51.2446C65.9788 50.6446 66.7178 51.1125 66.7178 51.1125C66.7178 51.1125 66.9831 51.9777 66.7178 52.1775C66.4524 52.3774 65.5807 52.1775 65.5807 52.1775Z" fill="#CA7070"/>
<path d="M69.7133 74.462H67.8718C67.8783 74.5482 67.8662 74.6348 67.8363 74.7159C67.8063 74.797 67.7591 74.8708 67.698 74.9322C67.4501 75.2176 66.951 75.5623 67.1857 75.6799H69.7133V74.462Z" fill="#00695C"/>
<path opacity="0.2" d="M67.8326 74.9336C67.8938 74.8722 67.941 74.7985 67.971 74.7173C68.0009 74.6362 68.013 74.5496 68.0064 74.4634H67.8737C67.8803 74.5496 67.8682 74.6362 67.8383 74.7173C67.8083 74.7985 67.7611 74.8722 67.7 74.9336C67.4521 75.219 66.9529 75.5637 67.1876 75.6813H67.3203C67.0856 75.5637 67.5852 75.2204 67.8326 74.9336Z" fill="white"/>
<path d="M76.2777 74.0839L74.5528 74.3627C74.6005 74.5673 74.5726 74.7821 74.4744 74.9679C74.2855 75.3643 73.8605 75.8585 74.1174 75.9653L76.6144 75.5689L76.2777 74.0839Z" fill="#00695C"/>
<path d="M75.437 51.365C75.437 51.365 77.4098 57.563 74.1008 60.9943L73.1455 60.2663C73.1455 60.2663 75.1013 53.5017 74.0068 51.9133C75.9361 51.2724 75.437 51.365 75.437 51.365Z" fill="#00695C"/>
<path d="M74.0724 51.9119C74.0724 51.9119 73.6744 51.5789 74.0724 50.9789C74.4705 50.3789 75.2094 50.8468 75.2094 50.8468C75.2094 50.8468 75.4748 51.712 75.2094 51.9119C74.9441 52.1117 74.0724 51.9119 74.0724 51.9119Z" fill="#CA7070"/>
<path opacity="0.2" d="M74.6071 74.9693C74.7057 74.7831 74.7335 74.5678 74.6855 74.3628L76.2777 74.0985V74.0773L74.5528 74.3628C74.6005 74.5673 74.5726 74.7821 74.4744 74.9679C74.2855 75.3643 73.8605 75.8585 74.1174 75.9653L74.2222 75.9479C74.0329 75.8162 74.4267 75.3417 74.6071 74.9693Z" fill="white"/>
<path d="M72.4349 57.1389H72.4344C71.9175 57.1389 71.4985 57.5561 71.4985 58.0709V58.9695C71.4985 59.4842 71.9175 59.9014 72.4344 59.9014H72.4349C72.9518 59.9014 73.3708 59.4842 73.3708 58.9695V58.0709C73.3708 57.5561 72.9518 57.1389 72.4349 57.1389Z" fill="#CA7070"/>
<path opacity="0.2" d="M73.2789 60.6651C73.2789 60.6651 75.2106 53.9837 74.1586 52.3421C74.0641 52.3247 74.0061 52.3116 74.0061 52.3116L73.9891 52.2956L73.9419 52.3116C75.0364 53.8972 73.0806 60.6646 73.0806 60.6646L74.0358 61.3925L74.1194 61.3027L73.2789 60.6651Z" fill="white"/>
<path d="M72.4684 58.1047C73.613 58.1047 74.5409 57.1807 74.5409 56.0409C74.5409 54.9011 73.613 53.9771 72.4684 53.9771C71.3239 53.9771 70.396 54.9011 70.396 56.0409C70.396 57.1807 71.3239 58.1047 72.4684 58.1047Z" fill="#CA7070"/>
<path opacity="0.2" d="M71.7325 58.9699V58.0713C71.7326 58.0056 71.7397 57.94 71.7537 57.8757C71.3491 57.6687 71.0241 57.3348 70.8289 56.9256C70.6336 56.5164 70.579 56.0546 70.6735 55.6114C70.768 55.1683 71.0063 54.7684 71.3516 54.4734C71.6969 54.1785 72.1301 54.0049 72.5843 53.9794H72.4677C72.0028 53.9793 71.5513 54.1348 71.1859 54.421C70.8205 54.7071 70.5623 55.1073 70.4528 55.5573C70.3433 56.0072 70.389 56.4808 70.5824 56.9018C70.7757 57.3228 71.1056 57.6668 71.5191 57.8785C71.505 57.9428 71.4979 58.0084 71.4978 58.0742V58.9728C71.4966 59.1054 71.5241 59.2368 71.5783 59.3579C71.6326 59.4791 71.7124 59.5872 71.8123 59.6749C71.9123 59.7627 72.03 59.8279 72.1575 59.8664C72.285 59.9048 72.4192 59.9155 72.5513 59.8977C72.3249 59.8685 72.1169 59.7583 71.9662 59.5875C71.8155 59.4168 71.7324 59.1972 71.7325 58.9699Z" fill="white"/>
<path d="M74.5731 66.3271C74.5731 66.3271 70.5755 66.7761 70.4282 66.3271C69.8026 64.4921 69.8026 62.5029 70.4282 60.6679C70.4282 60.1206 70.6466 59.5956 71.0352 59.2086C71.4239 58.8215 71.951 58.6041 72.5007 58.6041C73.0503 58.6041 73.5774 58.8215 73.9661 59.2086C74.3548 59.5956 74.5731 60.1206 74.5731 60.6679V66.3271Z" fill="#00695C"/>
<path d="M74.574 66.3271L76.3796 74.5838H74.574L72.7017 68.4586C72.7017 68.4586 70.3611 69.4574 69.7605 71.4553C69.1598 73.4533 69.7605 74.5842 69.7605 74.5842H67.8217L67.8018 74.4944C67.4827 73.0232 67.5575 71.4944 68.0186 70.061C68.4797 68.6277 69.3109 67.3402 70.4291 66.3276" fill="#263238"/>
<path opacity="0.2" d="M70.6622 66.3266C70.0366 64.4917 70.0366 62.5024 70.6622 60.6675C70.6621 60.143 70.8624 59.6382 71.2225 59.2556C71.5826 58.873 72.0755 58.6412 72.601 58.6074H72.4679C71.9182 58.6074 71.3911 58.8248 71.0025 59.2119C70.6138 59.5989 70.3955 60.1239 70.3955 60.6712C69.7699 62.5062 69.7699 64.4954 70.3955 66.3304C70.4483 66.4916 70.9951 66.5363 71.6746 66.5297C71.1226 66.5184 70.7047 66.4653 70.6622 66.3266Z" fill="white"/>
<path d="M70.3956 60.6336C70.3956 60.6336 65.0471 56.9052 65.582 52.1775H66.7857C66.7857 52.1775 69.6594 58.3756 71.5009 58.9699C73.3425 59.5643 70.3956 60.6336 70.3956 60.6336Z" fill="#00695C"/>
<g opacity="0.2">
<path opacity="0.2" d="M72.7363 68.6039L74.5741 74.6171H74.8395L72.9677 68.491C72.9677 68.491 72.8808 68.5282 72.7363 68.6039Z" fill="white"/>
<path opacity="0.2" d="M70.6954 66.36H70.4301C69.3119 67.3726 68.4807 68.6601 68.0195 70.0935C67.5584 71.5268 67.4837 73.0557 67.8028 74.5268L67.8226 74.6167H68.088L68.0682 74.5268C67.7491 73.0557 67.8238 71.5268 68.2849 70.0935C68.746 68.6601 69.5773 67.3726 70.6954 66.36Z" fill="white"/>
</g>
<path opacity="0.2" d="M65.7822 52.2448H65.582C65.0512 56.9724 70.3955 60.7008 70.3955 60.7008L70.5282 60.6505C69.9087 60.1949 65.2822 56.6578 65.7822 52.2448Z" fill="white"/>
<path d="M70.8154 55.1188C70.9308 55.3845 71.0119 55.6637 71.0567 55.9497C71.1079 56.2432 71.2184 56.5232 71.3815 56.7729C71.5445 57.0227 71.7567 57.2369 72.0053 57.4027C72.2911 57.5572 72.6091 57.6436 72.9341 57.6552C73.18 57.6859 73.4296 57.6649 73.6668 57.5937C73.9041 57.5224 74.1237 57.4024 74.3115 57.2414C74.5292 57.0045 74.6751 56.711 74.7322 56.395C74.8365 55.9292 74.822 55.4447 74.6901 54.9859C74.5581 54.5271 74.3128 54.1085 73.9767 53.7683C73.6316 53.4365 73.1995 53.2085 72.73 53.1106C72.2605 53.0126 71.7727 53.0488 71.323 53.2149C71.1623 53.2932 70.9937 53.3543 70.8201 53.3973C70.6871 53.4185 70.5511 53.4075 70.4233 53.3652C70.2956 53.3228 70.18 53.2505 70.0863 53.1542C70.0648 53.2236 70.0601 53.297 70.0725 53.3685C70.0849 53.4401 70.114 53.5077 70.1576 53.5659C70.2012 53.624 70.2579 53.6712 70.3232 53.7034C70.3886 53.7357 70.4606 53.7521 70.5335 53.7514C70.3799 53.8249 70.2131 53.8674 70.043 53.8765C69.8728 53.8855 69.7025 53.8609 69.5419 53.804C69.6325 53.995 69.7923 54.1448 69.9891 54.2232C70.186 54.3017 70.4054 54.3032 70.6033 54.2273C70.2278 54.3938 69.8202 54.4767 69.4092 54.4704C69.4956 54.4704 69.6637 54.6288 69.7685 54.6584C69.9001 54.6793 70.0333 54.6886 70.1666 54.6862C70.3036 54.6944 70.4359 54.7388 70.5499 54.8148C70.664 54.8908 70.7556 54.9958 70.8154 55.1188Z" fill="#263238"/>
<g opacity="0.2">
<path opacity="0.2" d="M70.5389 53.7509C70.3853 53.825 70.2183 53.8677 70.0479 53.8765C70.2634 53.8874 70.4782 53.8442 70.6726 53.7509C70.6077 53.7513 70.5434 53.7383 70.4838 53.7126C70.4242 53.687 70.3707 53.6493 70.3265 53.6019C70.2823 53.5546 70.2485 53.4986 70.2272 53.4376C70.2059 53.3765 70.1976 53.3117 70.2027 53.2473C70.1627 53.2195 70.1255 53.188 70.0913 53.1533C70.0698 53.2226 70.0651 53.2961 70.0775 53.3676C70.0899 53.4391 70.119 53.5067 70.1626 53.5649C70.2062 53.6231 70.2629 53.6702 70.3282 53.7025C70.3936 53.7347 70.4656 53.7511 70.5385 53.7504L70.5389 53.7509Z" fill="white"/>
<path opacity="0.2" d="M70.9569 53.4006C71.1305 53.3576 71.2991 53.2965 71.4598 53.2181C71.7136 53.1184 71.9831 53.0642 72.2559 53.0583C71.9386 53.048 71.6225 53.1024 71.3271 53.2181C71.1664 53.2965 70.9978 53.3576 70.8242 53.4006C70.8 53.3993 70.7758 53.402 70.7524 53.4086C70.8207 53.4147 70.8894 53.412 70.9569 53.4006Z" fill="white"/>
<path opacity="0.2" d="M69.8978 54.6627C69.793 54.6321 69.6244 54.4746 69.5384 54.4746C69.9495 54.4809 70.357 54.398 70.7326 54.2315C70.6484 54.2661 70.5584 54.2849 70.4673 54.287C70.1288 54.4168 69.7684 54.4807 69.4058 54.4751C69.4922 54.4751 69.6603 54.6335 69.7651 54.6631C69.8562 54.6852 69.9502 54.6928 70.0437 54.6857C69.9943 54.6842 69.9452 54.6765 69.8978 54.6627Z" fill="white"/>
<path opacity="0.2" d="M73.0701 57.6566C72.7451 57.645 72.4272 57.5586 72.1413 57.4041C71.894 57.2369 71.6827 57.0223 71.5198 56.7727C71.3569 56.5231 71.2457 56.2436 71.1927 55.9506C71.1479 55.6646 71.0668 55.3854 70.9514 55.1197C70.8904 54.997 70.7977 54.8928 70.6827 54.8177C70.5677 54.7426 70.4347 54.6995 70.2974 54.6928C70.2312 54.6879 70.1648 54.6879 70.0986 54.6928H70.1638C70.3011 54.6995 70.4341 54.7426 70.5491 54.8177C70.664 54.8928 70.7568 54.997 70.8178 55.1197C70.9332 55.3854 71.0143 55.6646 71.0591 55.9506C71.1103 56.2442 71.2208 56.5243 71.3838 56.7742C71.5469 57.024 71.7591 57.2383 72.0077 57.4041C72.2935 57.5586 72.6114 57.645 72.9365 57.6566H73.0706H73.0701Z" fill="white"/>
<path opacity="0.2" d="M70.3832 54.2794C70.2428 54.2693 70.1071 54.2246 69.9885 54.1491C69.8698 54.0736 69.772 53.9699 69.7037 53.8473C69.651 53.8361 69.5991 53.8215 69.5483 53.8036C69.6225 53.9578 69.7421 54.0859 69.8911 54.1709C70.0401 54.2559 70.2116 54.2937 70.3827 54.2794H70.3832Z" fill="white"/>
</g>
<path opacity="0.2" d="M65.7149 52.1775C65.7149 52.1775 65.3168 51.8446 65.7149 51.2446C65.7678 51.1588 65.8403 51.0867 65.9266 51.0341C66.0128 50.9816 66.1103 50.9501 66.2111 50.9423C66.0883 50.9278 65.9638 50.9486 65.8524 51.0022C65.741 51.0558 65.6473 51.1399 65.5822 51.2446C65.1841 51.8446 65.5822 52.1775 65.5822 52.1775C65.8404 52.235 66.1042 52.2642 66.3688 52.2645C66.1488 52.2537 65.9301 52.2246 65.7149 52.1775Z" fill="white"/>
<g opacity="0.2">
<path opacity="0.2" d="M27.2491 52.2086L27.2595 52.1728C27.2595 52.1728 27.1245 52.1465 27.2491 52.2086Z" fill="url(#paint14_linear)"/>
</g>
<g opacity="0.2">
<path opacity="0.2" d="M39.7516 54.4233C39.739 54.3813 39.7232 54.3403 39.7044 54.3006C39.7044 54.2874 39.6912 54.2766 39.6846 54.2649C39.6726 54.2413 39.6594 54.2184 39.6449 54.1962L39.6185 54.1619C39.6047 54.1439 39.5901 54.1267 39.5746 54.1102L39.5439 54.0796C39.5278 54.0652 39.5121 54.052 39.4967 54.0401L39.4636 54.0161L39.4088 53.9851L39.3758 53.9677L39.3163 53.9428L39.2856 53.931C39.2573 53.9213 39.2285 53.9133 39.1992 53.907C39.0061 53.8707 38.8073 53.8761 38.6165 53.923C38.6165 53.923 38.0607 54.7393 38.2742 55.0328L38.2048 55.0102C38.2048 55.0102 34.0745 59.6 31.7447 60.4526C31.6855 60.4121 31.624 60.3742 31.5601 60.3388V59.4801C31.562 59.4441 31.562 59.408 31.5601 59.372C31.556 59.3379 31.5502 59.304 31.5426 59.2704L31.5601 59.261L31.629 59.2229L31.7287 59.1623L31.7924 59.1214C31.8388 59.0899 31.8831 59.0555 31.9251 59.0184L31.977 58.9714C32.0085 58.945 32.0391 58.9173 32.0686 58.8881L32.1215 58.8364C32.1587 58.7985 32.1941 58.7598 32.2278 58.7203L32.2651 58.6732C32.2966 58.6337 32.3271 58.5931 32.3567 58.5514L32.394 58.496C32.4204 58.4555 32.4456 58.4141 32.4695 58.3718L32.4936 58.3309C32.5234 58.2759 32.5504 58.2194 32.5744 58.1616L32.5956 58.1099C32.6142 58.0632 32.6315 58.0162 32.6475 57.9688C32.6511 57.9515 32.6564 57.9347 32.6636 57.9185C32.682 57.8564 32.6995 57.7944 32.7108 57.7304C32.7098 57.7174 32.7121 57.7043 32.7174 57.6923C32.7281 57.6387 32.7365 57.5842 32.7425 57.5287V57.4732C32.7425 57.406 32.7529 57.3411 32.7529 57.2682C32.7525 56.7547 32.5755 56.2569 32.2514 55.8575C32.428 55.5829 32.5437 55.4202 32.5437 55.4202C32.4374 55.3473 32.3326 55.2791 32.2292 55.2166L32.1281 55.1574C32.0592 55.1164 31.9955 55.0755 31.9213 55.0384L31.8061 54.9777C31.7438 54.9448 31.6829 54.9128 31.6215 54.8837L31.5034 54.8296L31.3268 54.753L31.2116 54.7059C31.1531 54.6834 31.095 54.6622 31.0379 54.6425L30.9293 54.6053C30.8698 54.587 30.8098 54.5696 30.7512 54.5536L30.6544 54.5273C30.5883 54.5113 30.5217 54.4981 30.4566 54.4849L30.3862 54.4704C30.2975 54.4544 30.2096 54.4426 30.1209 54.4346C29.5779 54.3766 29.0292 54.4604 28.5286 54.6777C28.515 54.1636 28.6376 53.655 28.8842 53.2031L28.8299 53.1848L28.8115 53.2031C28.8115 53.2031 28.7463 53.2177 28.6443 53.236C28.612 53.2874 28.5832 53.3408 28.5579 53.3959C28.6026 53.1725 28.6886 52.9593 28.8115 52.7672L28.7572 52.7489C28.8785 52.6098 28.9438 52.4309 28.9404 52.2467C28.937 52.0625 28.8651 51.8861 28.7388 51.7515C28.301 51.0989 27.4997 51.6062 27.4997 51.6062C27.4364 51.821 27.3946 52.0415 27.3751 52.2645C27.3142 52.2396 27.2702 52.2208 27.2424 52.2062C26.8584 53.5554 26.6493 54.9479 26.62 56.3498C25.1751 58.3925 24.5783 61.4076 24.4612 62.0579L24.4518 62.1096C24.4437 62.1567 24.4399 62.1825 24.4399 62.1825L28.1962 62.2695V68.231L25.4618 73.9903C25.4618 73.9903 26.5006 74.0232 28.0678 74.2231L27.6353 77.3031L27.4908 78.1673H30.0939C30.3834 77.5913 28.9371 77.3031 28.9371 77.3031H28.9054L29.4692 74.4295C29.7186 74.4709 29.9751 74.5149 30.2389 74.5617C30.6253 74.6361 31.017 74.6803 31.4104 74.6938C31.736 74.7051 32.0621 74.691 32.3855 74.6515C32.5247 75.5308 32.4881 76.4289 32.2778 77.2941H32.2632L32.1187 78.1584H34.7219C34.974 77.6562 33.9074 77.3722 33.6297 77.3087L33.6415 77.2241C33.7753 76.2523 33.8095 75.2695 33.7435 74.2908C34.0794 74.1552 34.3926 73.9693 34.6723 73.7397L34.7082 73.7082L34.7186 73.6979L32.7802 68.2809C33.1424 66.7484 31.8831 65.1388 32.5545 64.3343C32.7628 64.0468 32.8899 63.709 32.9226 63.3561C32.9552 63.0031 32.8922 62.6478 32.7401 62.3273C34.5604 61.5345 38.2397 59.553 39.2719 56.1176C39.3478 55.8761 39.4094 55.6303 39.4565 55.3817C39.4565 55.3817 39.9755 55.1752 39.7516 54.4233Z" fill="url(#paint15_linear)"/>
</g>
<path d="M27.6617 53.2149C27.6617 53.2149 25.6889 59.4129 28.998 62.8441L29.9532 62.1162C29.9532 62.1162 27.9974 55.3516 29.0919 53.7631C27.1602 53.1222 27.6617 53.2149 27.6617 53.2149Z" fill="#FF5252"/>
<path d="M29.026 53.7617C29.026 53.7617 29.424 53.4288 29.026 52.8288C28.6279 52.2288 27.8889 52.6967 27.8889 52.6967C27.8889 52.6967 27.6236 53.5619 27.8889 53.7617C28.1543 53.9616 29.026 53.7617 29.026 53.7617Z" fill="#F6B9AD"/>
<path d="M30.6633 61.7513H30.6637C31.1806 61.7513 31.5996 61.334 31.5996 60.8193V59.9207C31.5996 59.406 31.1806 58.9888 30.6637 58.9888H30.6633C30.1464 58.9888 29.7274 59.406 29.7274 59.9207V60.8193C29.7274 61.334 30.1464 61.7513 30.6633 61.7513Z" fill="#F6B9AD"/>
<path opacity="0.2" d="M29.8188 62.515C29.8188 62.515 27.8871 55.8335 28.9391 54.192C29.0336 54.175 29.0917 54.1614 29.0917 54.1614L29.1091 54.1454L29.1563 54.1614C28.0618 55.747 30.0176 62.5145 30.0176 62.5145L29.0624 63.2424L28.9788 63.1526L29.8188 62.515Z" fill="white"/>
<path d="M30.6296 59.9546C31.7741 59.9546 32.702 59.0306 32.702 57.8908C32.702 56.751 31.7741 55.827 30.6296 55.827C29.485 55.827 28.5571 56.751 28.5571 57.8908C28.5571 59.0306 29.485 59.9546 30.6296 59.9546Z" fill="#F6B9AD"/>
<path opacity="0.2" d="M31.366 60.8198V59.9212C31.3659 59.8554 31.3588 59.7898 31.3447 59.7256C31.7494 59.5186 32.0744 59.1847 32.2696 58.7755C32.4648 58.3663 32.5194 57.9045 32.425 57.4613C32.3305 57.0181 32.0922 56.6182 31.7469 56.3233C31.4016 56.0283 30.9684 55.8548 30.5142 55.8293H30.6308C31.0957 55.8291 31.5471 55.9846 31.9126 56.2708C32.278 56.557 32.5362 56.9572 32.6457 57.4071C32.7552 57.8571 32.7095 58.3306 32.5161 58.7516C32.3228 59.1726 31.9928 59.5167 31.5794 59.7284C31.5935 59.7927 31.6006 59.8582 31.6007 59.924V60.8226C31.6019 60.9553 31.5744 61.0866 31.5201 61.2078C31.4659 61.3289 31.3861 61.4371 31.2862 61.5248C31.1862 61.6125 31.0685 61.6778 30.941 61.7162C30.8135 61.7547 30.6792 61.7654 30.5472 61.7476C30.7736 61.7184 30.9816 61.6082 31.1323 61.4374C31.2829 61.2667 31.366 61.0471 31.366 60.8198Z" fill="white"/>
<path d="M28.5239 68.1769C28.5239 68.1769 32.5215 68.626 32.6688 68.1769C33.1467 66.7235 31.8727 65.1524 32.5097 64.385C33.1707 63.5922 32.6688 62.5182 32.6688 62.5182C32.6688 61.9709 32.4505 61.446 32.0618 61.0589C31.6731 60.6719 31.146 60.4544 30.5964 60.4544C30.0467 60.4544 29.5196 60.6719 29.1309 61.0589C28.7423 61.446 28.5239 61.9709 28.5239 62.5182V68.1769Z" fill="#FF5252"/>
<path opacity="0.2" d="M32.5152 64.3846C33.1763 63.5918 32.6744 62.5178 32.6744 62.5178C32.6744 61.9704 32.456 61.4455 32.0674 61.0584C31.6787 60.6714 31.1516 60.454 30.6019 60.454C30.5576 60.4529 30.5132 60.455 30.4692 60.4605C30.9945 60.4938 31.4874 60.725 31.8478 61.1071C32.2081 61.4892 32.4087 61.9936 32.409 62.5178C32.409 62.5178 32.9133 63.5918 32.2499 64.3846C31.6077 65.1524 32.8869 66.7221 32.409 68.1765C32.3618 68.3175 31.9514 68.3678 31.4032 68.3758C32.0785 68.3824 32.6224 68.3378 32.6744 68.1765C33.1574 66.7207 31.8731 65.1524 32.5152 64.3846Z" fill="white"/>
<path d="M31.8205 68.0443C33.28 70.1039 33.926 73.2168 33.5081 76.2112L33.4963 76.301H32.2506C32.5002 75.2729 32.5002 74.2003 32.2506 73.1722C32.0142 71.9753 31.3414 70.9078 30.3619 70.1754L29.1597 76.3005H27.9995L29.1592 68.0439L31.8205 68.0443Z" fill="#F6B9AD"/>
<path d="M38.8479 56.1702C38.8479 56.1702 39.3295 55.9694 39.1227 55.2768C38.9159 54.5842 38.0744 54.8183 38.0744 54.8183C38.0744 54.8183 37.5635 55.5674 37.7614 55.8368C37.9592 56.1063 38.8479 56.1702 38.8479 56.1702Z" fill="#F6B9AD"/>
<path d="M31.7561 62.8488C31.7561 62.8488 37.9668 60.8443 38.8465 56.1683L37.6939 55.819C37.6939 55.819 33.1231 60.9007 31.1928 60.9364C29.2625 60.9722 31.7561 62.8488 31.7561 62.8488Z" fill="#FF5252"/>
<path opacity="0.2" d="M38.6357 56.1754L38.8279 56.2337C37.9482 60.9096 31.7375 62.9142 31.7375 62.9142L31.6274 62.8281C32.3612 62.5742 37.8155 60.5367 38.6357 56.1754Z" fill="white"/>
<g opacity="0.2">
<path opacity="0.2" d="M30.0948 70.1754L28.8926 76.301H29.1579L30.3257 70.3555C30.2518 70.2916 30.1748 70.2315 30.0948 70.1754Z" fill="white"/>
<path opacity="0.2" d="M31.8206 68.0443H31.5552C33.0147 70.1039 33.6607 73.2168 33.2428 76.2112L33.231 76.301H33.4964L33.5082 76.2112C33.926 73.2173 33.2825 70.1044 31.8206 68.0443Z" fill="white"/>
</g>
<path opacity="0.2" d="M38.72 56.1293C38.72 56.1293 39.2017 55.9285 38.9948 55.2359C38.9697 55.1384 38.9217 55.0482 38.8548 54.9726C38.7879 54.8971 38.704 54.8384 38.61 54.8014C38.7318 54.8235 38.8446 54.8798 38.9354 54.9636C39.0262 55.0474 39.091 55.1552 39.1223 55.2744C39.3292 55.9643 38.8475 56.1679 38.8475 56.1679C38.5837 56.1478 38.323 56.0991 38.0698 56.0226C38.2832 56.0761 38.5007 56.1118 38.72 56.1293Z" fill="white"/>
<path d="M28.5244 67.9522L26.0034 73.237C27.4737 73.31 28.9369 73.4867 30.382 73.7656C33.168 74.2941 34.4953 72.9728 34.4953 72.9728L32.6977 67.9522H28.5244Z" fill="#263238"/>
<path d="M29.1931 76.2761C29.1931 76.2761 30.5199 76.5404 30.2545 77.0689H27.8662L27.9989 76.2761H29.1931Z" fill="#FF5252"/>
<path d="M33.4382 76.2761C33.4382 76.2761 34.765 76.5404 34.4997 77.0689H32.1113L32.244 76.2761H33.4382Z" fill="#FF5252"/>
<path d="M32.5095 56.1928C32.5095 56.1928 29.325 60.6848 30.7846 62.5347L25.0796 62.404C25.0796 62.404 26.6718 52.2293 32.5095 56.1928Z" fill="#263238"/>
<path opacity="0.2" d="M32.5095 56.1928C31.8564 55.7112 31.092 55.4013 30.2869 55.2918C30.8432 55.466 31.3689 55.7254 31.8451 56.0607C31.8451 56.0607 28.6606 60.5532 30.1202 62.4026L25.0984 62.2864C25.0852 62.3617 25.0786 62.4026 25.0786 62.4026L30.7836 62.5347C29.3255 60.6853 32.5095 56.1928 32.5095 56.1928Z" fill="white"/>
<path opacity="0.2" d="M32.7033 67.9522H32.3053L34.1029 72.9728C33.3592 73.5792 32.4234 73.9028 31.4624 73.8859C33.515 73.9522 34.5009 72.9728 34.5009 72.9728L32.7033 67.9522Z" fill="white"/>
<path opacity="0.2" d="M29.1931 76.2761H28.9277C28.9277 76.2761 30.2546 76.5404 29.9892 77.0689H30.2546C30.52 76.5404 29.1931 76.2761 29.1931 76.2761Z" fill="white"/>
<path opacity="0.2" d="M33.4382 76.2761H33.1729C33.1729 76.2761 34.4997 76.5404 34.2343 77.0689H34.4997C34.7651 76.5404 33.4382 76.2761 33.4382 76.2761Z" fill="white"/>
<path d="M139.581 30.9145H88.7651V32.8302H139.581V30.9145Z" fill="#F5F5F5"/>
<path d="M140.56 30.3027H87.7544V95.8374H140.56V30.3027Z" fill="url(#paint16_linear)"/>
<path d="M139.581 32.8301H88.7651V93.5423H139.581V32.8301Z" fill="white"/>
<path d="M89.9432 32.3675C90.1995 32.3675 90.4073 32.1605 90.4073 31.9052C90.4073 31.6499 90.1995 31.443 89.9432 31.443C89.6868 31.443 89.479 31.6499 89.479 31.9052C89.479 32.1605 89.6868 32.3675 89.9432 32.3675Z" fill="#FF5252"/>
<path d="M91.22 32.3675C91.4764 32.3675 91.6842 32.1605 91.6842 31.9052C91.6842 31.6499 91.4764 31.443 91.22 31.443C90.9637 31.443 90.7559 31.6499 90.7559 31.9052C90.7559 32.1605 90.9637 32.3675 91.22 32.3675Z" fill="#FFFF00"/>
<path d="M92.4974 32.3675C92.7537 32.3675 92.9615 32.1605 92.9615 31.9052C92.9615 31.6499 92.7537 31.443 92.4974 31.443C92.241 31.443 92.0332 31.6499 92.0332 31.9052C92.0332 32.1605 92.241 32.3675 92.4974 32.3675Z" fill="#69F0AE"/>
<g opacity="0.2">
<path opacity="0.2" d="M136.53 35.5386H91.9497V36.7278H136.53V35.5386Z" fill="#992032"/>
</g>
<path d="M110.923 40.6918H91.6841V61.0394H110.923V40.6918Z" fill="url(#paint17_linear)"/>
<path d="M110.525 41.3525H92.0825V60.3787H110.525V41.3525Z" fill="white"/>
<path d="M136.529 50.8656H117.291V71.2132H136.529V50.8656Z" fill="url(#paint18_linear)"/>
<path d="M136.132 51.5258H117.689V70.552H136.132V51.5258Z" fill="white"/>
<path d="M137.326 75.9695H92.0825V89.9752H137.326V75.9695Z" fill="url(#paint19_linear)"/>
<path opacity="0.5" d="M136.53 76.8944H93.0112V89.4466H136.53V76.8944Z" fill="#992032"/>
<path opacity="0.5" d="M94.0727 78.0836H136.53V76.8944H93.0112V89.4466H94.0727V78.0836Z" fill="white"/>
<path d="M107.469 45.5196C106.211 44.0631 104.478 43.0933 102.574 42.7801C100.671 42.4668 98.717 42.83 97.055 43.806C95.3929 44.782 94.1283 46.3088 93.4822 48.1193C92.8361 49.9299 92.8497 51.909 93.5206 53.7106C94.1915 55.5122 95.477 57.0216 97.1523 57.9749C98.8276 58.9281 100.786 59.2646 102.685 58.9254C104.585 58.5863 106.304 57.593 107.542 56.1195C108.78 54.6459 109.459 52.7857 109.459 50.8642C109.46 48.9029 108.754 47.0064 107.469 45.5196ZM104.152 55.7555C103.29 55.755 102.464 55.4136 101.855 54.8065C101.246 54.1994 100.903 53.3762 100.904 52.518C100.904 51.6598 101.247 50.8368 101.856 50.23C102.466 49.6232 103.292 49.2824 104.154 49.2824C105.016 49.2824 105.842 49.6232 106.452 50.23C107.061 50.8368 107.404 51.6598 107.404 52.518C107.404 53.3762 107.062 54.1994 106.453 54.8065C105.844 55.4136 105.018 55.755 104.156 55.7555H104.152Z" fill="url(#paint20_linear)"/>
<path d="M105.357 47.3324L107.168 45.7806C106.434 44.9297 105.524 44.2469 104.501 43.7791C103.477 43.3114 102.364 43.0697 101.237 43.0707V45.4491C102.02 45.4489 102.793 45.6171 103.504 45.9421C104.215 46.2672 104.847 46.7414 105.357 47.3324Z" fill="#FF5252"/>
<path d="M101.238 56.2817C100.463 56.2821 99.6975 56.1167 98.9927 55.7969L98.0068 57.967C99.1549 58.4855 100.412 58.7202 101.67 58.6512C102.929 58.5822 104.153 58.2115 105.237 57.5705L104.018 55.5218C103.178 56.0207 102.218 56.2833 101.239 56.2817H101.238Z" fill="#69F0AE"/>
<path d="M109.065 50.8642C109.068 48.997 108.394 47.1915 107.168 45.7787L105.357 47.3305C105.877 47.9291 106.259 48.6342 106.475 49.396C106.692 50.1577 106.738 50.9574 106.61 51.7387C106.482 52.52 106.183 53.2638 105.735 53.9176C105.287 54.5713 104.7 55.1191 104.016 55.5223L105.236 57.5687C106.404 56.8779 107.37 55.8965 108.042 54.7211C108.713 53.5456 109.066 52.2165 109.065 50.8642Z" fill="#FF9800"/>
<path d="M95.7973 50.8642C95.7973 49.4275 96.3704 48.0497 97.3905 47.0338C98.4107 46.0179 99.7943 45.4472 101.237 45.4472V43.0688C99.4479 43.0689 97.7129 43.6792 96.3207 44.7981C94.9286 45.917 93.9633 47.4771 93.5856 49.2185C93.2079 50.9599 93.4406 52.7776 94.2449 54.3689C95.0493 55.9603 96.3767 57.2293 98.0062 57.9646L98.9921 55.7964C98.04 55.3669 97.2324 54.6732 96.6658 53.7985C96.0992 52.9238 95.7977 51.9051 95.7973 50.8642Z" fill="#992032"/>
<path d="M134.274 54.3006H120.21V56.679H134.274V54.3006Z" fill="url(#paint21_linear)"/>
<path d="M134.142 54.4327H120.343V56.5469H134.142V54.4327Z" fill="#992032"/>
<path d="M130.426 58.0003H120.343V60.1145H130.426V58.0003Z" fill="#FF5252"/>
<path d="M127.242 61.5675H120.343V63.6816H127.242V61.5675Z" fill="#69F0AE"/>
<path d="M132.815 65.135H120.343V67.2492H132.815V65.135Z" fill="#FF9800"/>
<path d="M111.852 64.2101H92.0825V65.3993H111.852V64.2101Z" fill="#F5F5F5"/>
<path d="M103.228 66.1921H92.0825V67.3813H103.228V66.1921Z" fill="#F5F5F5"/>
<path d="M109.065 66.1921H105.217V67.3813H109.065V66.1921Z" fill="#F5F5F5"/>
<path d="M109.065 70.552H105.217V71.7412H109.065V70.552Z" fill="#F5F5F5"/>
<path d="M103.228 70.1556H92.0825V71.3448H103.228V70.1556Z" fill="#F5F5F5"/>
<path d="M111.852 68.1741H92.0825V69.3633H111.852V68.1741Z" fill="#F5F5F5"/>
<path d="M136.795 40.824H117.026V42.0132H136.795V40.824Z" fill="#F5F5F5"/>
<path d="M128.171 42.8055H117.026V43.9947H128.171V42.8055Z" fill="#F5F5F5"/>
<path d="M134.009 42.8055H130.161V43.9947H134.009V42.8055Z" fill="#F5F5F5"/>
<path d="M134.009 47.1659H130.161V48.3551H134.009V47.1659Z" fill="#F5F5F5"/>
<path d="M128.171 46.7695H117.026V47.9587H128.171V46.7695Z" fill="#F5F5F5"/>
<path d="M136.795 44.7875H117.026V45.9767H136.795V44.7875Z" fill="#F5F5F5"/>
<path d="M123.262 101.206C124.068 101.206 124.722 100.555 124.722 99.7525C124.722 98.9498 124.068 98.2991 123.262 98.2991C122.456 98.2991 121.803 98.9498 121.803 99.7525C121.803 100.555 122.456 101.206 123.262 101.206Z" fill="url(#paint22_linear)"/>
<path d="M123.262 100.809C123.848 100.809 124.324 100.336 124.324 99.7521C124.324 99.1683 123.848 98.695 123.262 98.695C122.676 98.695 122.201 99.1683 122.201 99.7521C122.201 100.336 122.676 100.809 123.262 100.809Z" fill="#FF5252"/>
<path d="M125.783 83.6328H80.1411V99.6199H125.783V83.6328Z" fill="url(#paint23_linear)"/>
<path d="M124.987 84.2934H81.4683V96.8456H124.987V84.2934Z" fill="white"/>
<path d="M89.296 86.804H83.3257V94.0708H89.296V86.804Z" fill="url(#paint24_linear)"/>
<path d="M88.9642 87.134H83.6572V93.8724H88.9642V87.134Z" fill="#992032"/>
<path d="M122.2 91.9567H116.893V94.0708H122.2V91.9567Z" fill="#69F0AE"/>
<path d="M112.249 89.1819H106.942V93.9382H112.249V89.1819Z" fill="#FF9800"/>
<path d="M100.574 89.9747H95.2666V93.9387H100.574V89.9747Z" fill="#FF5252"/>
<path d="M124.987 96.8456H81.4683V98.6955H124.987V96.8456Z" fill="#FF5252"/>
<path d="M83.3257 101.206C84.1318 101.206 84.7853 100.555 84.7853 99.7525C84.7853 98.9498 84.1318 98.2991 83.3257 98.2991C82.5197 98.2991 81.8662 98.9498 81.8662 99.7525C81.8662 100.555 82.5197 101.206 83.3257 101.206Z" fill="url(#paint25_linear)"/>
<path d="M83.3256 100.809C83.9119 100.809 84.3871 100.336 84.3871 99.7521C84.3871 99.1683 83.9119 98.695 83.3256 98.695C82.7394 98.695 82.2642 99.1683 82.2642 99.7521C82.2642 100.336 82.7394 100.809 83.3256 100.809Z" fill="#FF5252"/>
<path d="M81.4682 84.822H80.4067V98.6954H81.4682V84.822Z" fill="#FF5252"/>
<path opacity="0.2" d="M81.4682 84.822H80.4067V98.6954H81.4682V84.822Z" fill="black"/>
<path d="M81.5387 86.2966V86.1894C81.5408 86.1752 81.5379 86.1608 81.5307 86.1485C81.5241 86.1294 81.5187 86.1099 81.5147 86.0902C81.508 86.0718 81.5066 86.0652 81.5014 86.0521C81.4962 86.0389 81.4854 86.0149 81.4774 85.9966L81.4613 85.9637C81.4504 85.9453 81.4386 85.9265 81.4268 85.9096L81.4098 85.8847C81.3925 85.8608 81.3738 85.8379 81.3541 85.816C81.2483 85.7036 81.1229 85.6114 80.9839 85.5438C81.092 85.4274 81.1727 85.2884 81.22 85.137C81.2336 85.0965 81.2442 85.055 81.2516 85.0129V84.9748C81.2552 84.9494 81.2574 84.9238 81.2582 84.8981V84.7909C81.2603 84.7768 81.2575 84.7624 81.2502 84.75C81.2436 84.731 81.2382 84.7115 81.2342 84.6917C81.2276 84.6734 81.2261 84.6668 81.2209 84.6531C81.2158 84.6395 81.2049 84.616 81.1969 84.5977L81.1808 84.5647C81.1699 84.5464 81.1581 84.5276 81.1463 84.5107L81.1289 84.4858C81.1115 84.4619 81.0929 84.439 81.0732 84.4171C80.9404 84.2789 80.7794 84.1708 80.601 84.1002C80.601 84.1002 79.7586 84.4105 79.7038 84.7514C79.0857 84.8836 75.482 85.6303 73.0077 85.5706L72.9893 85.5235C72.9895 85.1249 72.8805 84.7338 72.6741 84.3922C72.4676 84.0507 72.1716 83.7717 71.8178 83.5853V82.7553C71.8197 82.7201 71.8197 82.6848 71.8178 82.6495C71.8142 82.6157 71.8088 82.5821 71.8017 82.5489L71.8178 82.5395L71.8853 82.5023L71.9835 82.4431L72.0458 82.4022C72.0918 82.3708 72.136 82.3373 72.1785 82.3015L72.229 82.2578C72.2597 82.2315 72.2885 82.2052 72.3178 82.1774L72.3698 82.1271C72.406 82.0901 72.4404 82.0522 72.4732 82.0133L72.5091 81.9663C72.5405 81.9274 72.5701 81.8877 72.5978 81.8473L72.6337 81.7932C72.6592 81.7534 72.6839 81.713 72.7078 81.6719L72.7305 81.6324C72.7598 81.5798 72.7862 81.5243 72.8103 81.4688L72.8301 81.4185C72.8487 81.3736 72.8656 81.3296 72.8807 81.2863L72.8967 81.2393C72.9151 81.1787 72.9312 81.118 72.9439 81.0554C72.9429 81.0427 72.9451 81.0299 72.9506 81.0183C72.9603 80.9653 72.9683 80.912 72.9746 80.8584V80.8043C72.9746 80.7385 72.985 80.6722 72.985 80.605C72.9847 80.2296 72.8871 79.8606 72.7017 79.5338C72.8434 79.4995 72.9298 79.4717 72.9194 79.4581C72.8651 79.3852 72.8108 79.317 72.7536 79.2507L72.6993 79.1887L72.5813 79.0565L72.5175 78.9916C72.4779 78.9521 72.4377 78.915 72.3981 78.8792L72.3358 78.8238C72.2854 78.7814 72.235 78.7405 72.1847 78.701L72.1516 78.6747C72.0907 78.6277 72.0298 78.5877 71.967 78.5426L71.898 78.5003C71.8584 78.4753 71.8173 78.4532 71.7762 78.4302L71.6941 78.3879L71.5798 78.3338L71.4962 78.2967C71.4565 78.2793 71.4155 78.2647 71.3744 78.2496L71.2988 78.2219C71.2379 78.2021 71.177 78.1838 71.1156 78.1678L71.0212 78.1466L70.9192 78.1255L70.8172 78.1095L70.7228 78.0987L70.6179 78.0893H70.4229C70.3653 78.0893 70.3079 78.0919 70.2506 78.0973C68.893 78.2083 67.7045 79.388 67.7045 81.2685V82.8202H69.8294V83.5256C69.4478 83.7009 69.1246 83.9813 68.8979 84.3336C68.6713 84.686 68.5506 85.0957 68.5502 85.5141V91.5274L66.7483 99.7709H66.7243L66.3701 101.344L68.9124 101.754L69.0224 101.771C69.2878 101.657 68.8434 101.125 68.6446 100.714C68.6242 100.671 68.6066 100.627 68.5918 100.582C68.5637 100.499 68.5468 100.413 68.5412 100.325L70.4942 93.9448H70.4848L70.532 93.7952C70.532 93.7952 73.0185 94.8523 73.6579 96.9782C74.0292 98.0089 74.0488 99.1328 73.7136 100.176H73.7042V100.197C73.6763 100.266 73.657 100.304 73.657 100.304H73.7042V101.471H76.3923C76.6417 101.345 76.1123 100.979 75.8484 100.678C75.762 100.583 75.7016 100.467 75.6732 100.341H75.7204L75.7417 100.247C76.0797 98.6841 76.0021 97.0602 75.5168 95.5361C75.0314 94.012 74.155 92.6404 72.9742 91.557C72.979 91.55 72.983 91.5424 72.986 91.5344C73.2396 90.7612 73.396 89.9596 73.4515 89.148C75.5065 89.3436 78.2414 89.2035 80.286 87.6259C80.4812 87.479 80.6677 87.3211 80.8446 87.1529C81.0212 87.1397 81.33 87.0419 81.5014 86.5449C81.5153 86.5043 81.526 86.4628 81.5335 86.4207V86.3821C81.537 86.3537 81.5387 86.3252 81.5387 86.2966Z" fill="url(#paint26_linear)"/>
<path d="M70.7701 88.6247C70.7701 88.6247 76.9926 90.5944 80.4396 87.3033L79.7087 86.3506C79.7087 86.3506 73.0215 87.8342 71.4284 86.7471C69.8352 85.6599 70.7701 88.6247 70.7701 88.6247Z" fill="#992032"/>
<path opacity="0.2" d="M80.2646 87.1792L80.3869 87.3376C76.9371 90.6292 70.7174 88.659 70.7174 88.659C70.7174 88.659 70.7013 88.6087 70.6777 88.5269C71.4191 88.7474 77.0485 90.2549 80.2646 87.1792Z" fill="white"/>
<path d="M80.3071 87.3024C80.3071 87.3024 80.8166 87.4171 81.0512 86.7381C81.2859 86.0591 80.4676 85.7577 80.4676 85.7577C80.4676 85.7577 79.6144 86.0709 79.6177 86.4038C79.621 86.7367 80.3071 87.3024 80.3071 87.3024Z" fill="#985454"/>
<path opacity="0.2" d="M80.2264 87.1952C80.2264 87.1952 80.7359 87.3099 80.9705 86.6309C81.0069 86.537 81.0205 86.4359 81.0102 86.3358C80.9998 86.2357 80.9658 86.1394 80.911 86.0549C80.9974 86.1433 81.0566 86.2544 81.0817 86.3752C81.1068 86.496 81.0968 86.6214 81.0527 86.7367C80.8166 87.4185 80.3085 87.301 80.3085 87.301C80.1059 87.1316 79.9226 86.9407 79.7617 86.7315C79.9034 86.8987 80.0588 87.0537 80.2264 87.1952Z" fill="white"/>
<path d="M73.7173 99.5658H75.5588C75.5522 99.6521 75.5643 99.7387 75.5943 99.8198C75.6243 99.901 75.6714 99.9747 75.7326 100.036C75.9805 100.322 76.4796 100.666 76.2449 100.784H73.7173V99.5658Z" fill="#992032"/>
<path opacity="0.2" d="M75.5998 100.037C75.5387 99.9761 75.4915 99.9024 75.4615 99.8212C75.4315 99.7401 75.4195 99.6535 75.4261 99.5673H75.5588C75.5521 99.6535 75.5642 99.7401 75.5942 99.8212C75.6242 99.9024 75.6714 99.9761 75.7325 100.037C75.9804 100.323 76.4795 100.668 76.2449 100.785H76.1122C76.3469 100.668 75.8477 100.324 75.5998 100.037Z" fill="white"/>
<path d="M67.1516 99.1883L68.8765 99.4704C68.8288 99.6749 68.8567 99.8897 68.9549 100.076C69.1438 100.472 69.5688 100.966 69.3119 101.073L66.8149 100.677L67.1516 99.1883Z" fill="#992032"/>
<path opacity="0.2" d="M68.8252 100.073C68.7269 99.8874 68.6991 99.6726 68.7468 99.468L67.1479 99.2038V99.1826L68.8729 99.4648C68.8252 99.6693 68.853 99.8841 68.9512 100.07C69.1401 100.466 69.5651 100.961 69.3082 101.067L69.2034 101.05C69.3994 100.92 69.0055 100.446 68.8252 100.073Z" fill="white"/>
<path d="M70.9972 85.0053H70.9977C71.5146 85.0053 71.9336 84.5881 71.9336 84.0734V83.1748C71.9336 82.66 71.5146 82.2428 70.9977 82.2428H70.9972C70.4804 82.2428 70.0614 82.66 70.0614 83.1748V84.0734C70.0614 84.5881 70.4804 85.0053 70.9972 85.0053Z" fill="#985454"/>
<path d="M70.9636 83.2086C72.1081 83.2086 73.036 82.2846 73.036 81.1448C73.036 80.005 72.1081 79.081 70.9636 79.081C69.819 79.081 68.8911 80.005 68.8911 81.1448C68.8911 82.2846 69.819 83.2086 70.9636 83.2086Z" fill="#985454"/>
<path opacity="0.2" d="M71.7004 84.0743V83.1757C71.7004 83.1099 71.6933 83.0443 71.6792 82.9801C72.0839 82.7731 72.4089 82.4392 72.6041 82.03C72.7993 81.6208 72.8539 81.1589 72.7594 80.7158C72.665 80.2726 72.4267 79.8727 72.0814 79.5778C71.736 79.2828 71.3029 79.1093 70.8486 79.0838H70.9653C71.4302 79.0836 71.8816 79.2391 72.247 79.5253C72.6125 79.8115 72.8707 80.2117 72.9801 80.6616C73.0896 81.1116 73.044 81.5851 72.8506 82.0061C72.6572 82.4271 72.3273 82.7711 71.9139 82.9829C71.9279 83.0472 71.935 83.1127 71.9351 83.1785V84.0771C71.9363 84.2098 71.9089 84.3411 71.8546 84.4623C71.8003 84.5834 71.7205 84.6915 71.6206 84.7793C71.5207 84.867 71.403 84.9323 71.2755 84.9708C71.148 85.0092 71.0137 85.0198 70.8817 85.002C71.1081 84.9729 71.3161 84.8626 71.4667 84.6919C71.6174 84.5212 71.7005 84.3016 71.7004 84.0743Z" fill="white"/>
<path d="M68.8584 91.431C68.8584 91.431 72.856 91.88 73.0033 91.431C73.629 89.596 73.629 87.6067 73.0033 85.7718C73.0033 85.5008 72.9497 85.2324 72.8455 84.982C72.7414 84.7316 72.5887 84.5041 72.3963 84.3125C72.2039 84.1208 71.9754 83.9688 71.7239 83.8651C71.4725 83.7614 71.203 83.708 70.9308 83.708C70.6587 83.708 70.3892 83.7614 70.1378 83.8651C69.8863 83.9688 69.6579 84.1208 69.4654 84.3125C69.273 84.5041 69.1203 84.7316 69.0162 84.982C68.912 85.2324 68.8584 85.5008 68.8584 85.7718V91.431Z" fill="#992032"/>
<path d="M68.8584 91.431L67.0527 99.6876H68.8584L70.7306 93.5625C70.7306 93.5625 73.0713 94.5612 73.6719 96.5592C74.2725 98.5572 73.6719 99.6881 73.6719 99.6881H75.6136L75.6334 99.5983C75.9525 98.1271 75.8777 96.5983 75.4166 95.1649C74.9555 93.7316 74.1243 92.4441 73.0061 91.4314" fill="#263238"/>
<path opacity="0.2" d="M72.7694 91.431C73.395 89.596 73.395 87.6068 72.7694 85.7718C72.7695 85.2474 72.5692 84.7426 72.2091 84.36C71.849 83.9773 71.3561 83.7456 70.8306 83.7117H70.9637C71.5134 83.7117 72.0405 83.9292 72.4292 84.3162C72.8178 84.7033 73.0361 85.2282 73.0361 85.7756C73.6617 87.6105 73.6617 89.5998 73.0361 91.4347C72.9833 91.596 72.4365 91.6407 71.757 91.6341C72.309 91.6223 72.7245 91.5697 72.7694 91.431Z" fill="white"/>
<g opacity="0.2">
<path opacity="0.2" d="M70.6959 93.7078L68.8581 99.721H68.5928L70.465 93.5954C70.465 93.5954 70.5509 93.6321 70.6959 93.7078Z" fill="white"/>
<path opacity="0.2" d="M72.7363 91.4639H73.0017C74.1198 92.4766 74.9509 93.7641 75.412 95.1974C75.873 96.6308 75.9476 98.1596 75.6285 99.6307L75.6087 99.7206H75.3433L75.3631 99.6307C75.6823 98.1596 75.6076 96.6308 75.1466 95.1974C74.6856 93.7641 73.8544 92.4766 72.7363 91.4639Z" fill="white"/>
</g>
<path d="M70.5045 87.3033C70.5045 87.3033 76.727 89.2731 80.174 85.982L79.4431 85.0293C79.4431 85.0293 72.7559 86.5129 71.1627 85.4257C69.5696 84.3386 70.5045 87.3033 70.5045 87.3033Z" fill="#992032"/>
<path opacity="0.2" d="M79.999 85.8579L80.1213 86.0163C76.6715 89.3079 70.4518 87.3376 70.4518 87.3376C70.4518 87.3376 70.4357 87.2874 70.4121 87.2055C71.1534 87.4261 76.7829 88.9336 79.999 85.8579Z" fill="white"/>
<path d="M80.0414 85.9811C80.0414 85.9811 80.5509 86.0958 80.7856 85.4168C81.0203 84.7378 80.202 84.4364 80.202 84.4364C80.202 84.4364 79.3488 84.7495 79.3521 85.0825C79.3554 85.4154 80.0414 85.9811 80.0414 85.9811Z" fill="#985454"/>
<path opacity="0.2" d="M79.9607 85.8739C79.9607 85.8739 80.4702 85.9886 80.7049 85.3096C80.7413 85.2157 80.7549 85.1146 80.7445 85.0145C80.7342 84.9144 80.7002 84.8181 80.6454 84.7335C80.7318 84.822 80.791 84.9331 80.8161 85.0539C80.8412 85.1747 80.8311 85.3001 80.7871 85.4154C80.551 86.0972 80.0429 85.9796 80.0429 85.9796C79.8403 85.8103 79.6569 85.6193 79.4961 85.4102C79.6381 85.5774 79.7938 85.7325 79.9617 85.8739H79.9607Z" fill="white"/>
<path d="M71.1191 80.4601L70.9865 83.2345H68.0674V81.7617C68.0674 78.8035 71.2079 77.6802 72.9781 80.0572C72.3668 80.2269 71.7461 80.3614 71.1191 80.4601Z" fill="#263238"/>
<path opacity="0.2" d="M70.4634 78.7876C70.8876 78.836 71.2963 78.9752 71.6613 79.1957C72.0264 79.4162 72.3392 79.7129 72.5783 80.0652C71.9665 80.2295 71.3464 80.3618 70.7207 80.4616L70.588 83.2359H70.9861L71.1188 80.4616C71.7445 80.3618 72.3646 80.2295 72.9764 80.0652C72.7041 79.6541 72.3294 79.3204 71.889 79.0965C71.4486 78.8726 70.9574 78.7662 70.4634 78.7876Z" fill="white"/>
</g>
<defs>
<linearGradient id="paint0_linear" x1="50.6863" y1="72.9728" x2="50.6863" y2="8.75935" gradientUnits="userSpaceOnUse">
<stop stop-color="#808080" stop-opacity="0.251"/>
<stop offset="0.54" stop-color="#808080" stop-opacity="0.122"/>
<stop offset="1" stop-color="#808080" stop-opacity="0.102"/>
</linearGradient>
<linearGradient id="paint1_linear" x1="52.544" y1="58.0427" x2="52.544" y2="56.5892" gradientUnits="userSpaceOnUse">
<stop stop-color="#808080" stop-opacity="0.251"/>
<stop offset="0.54" stop-color="#808080" stop-opacity="0.122"/>
<stop offset="1" stop-color="#808080" stop-opacity="0.102"/>
</linearGradient>
<linearGradient id="paint2_linear" x1="52.544" y1="65.4416" x2="52.544" y2="63.9882" gradientUnits="userSpaceOnUse">
<stop stop-color="#808080" stop-opacity="0.251"/>
<stop offset="0.54" stop-color="#808080" stop-opacity="0.122"/>
<stop offset="1" stop-color="#808080" stop-opacity="0.102"/>
</linearGradient>
<linearGradient id="paint3_linear" x1="66.0771" y1="65.4416" x2="66.0771" y2="63.9882" gradientUnits="userSpaceOnUse">
<stop stop-color="#808080" stop-opacity="0.251"/>
<stop offset="0.54" stop-color="#808080" stop-opacity="0.122"/>
<stop offset="1" stop-color="#808080" stop-opacity="0.102"/>
</linearGradient>
<linearGradient id="paint4_linear" x1="67.0062" y1="19.7259" x2="67.0062" y2="18.2725" gradientUnits="userSpaceOnUse">
<stop stop-color="#808080" stop-opacity="0.251"/>
<stop offset="0.54" stop-color="#808080" stop-opacity="0.122"/>
<stop offset="1" stop-color="#808080" stop-opacity="0.102"/>
</linearGradient>
<linearGradient id="paint5_linear" x1="67.0062" y1="21.7079" x2="67.0062" y2="20.2545" gradientUnits="userSpaceOnUse">
<stop stop-color="#808080" stop-opacity="0.251"/>
<stop offset="0.54" stop-color="#808080" stop-opacity="0.122"/>
<stop offset="1" stop-color="#808080" stop-opacity="0.102"/>
</linearGradient>
<linearGradient id="paint6_linear" x1="67.0062" y1="23.6899" x2="67.0062" y2="22.2365" gradientUnits="userSpaceOnUse">
<stop stop-color="#808080" stop-opacity="0.251"/>
<stop offset="0.54" stop-color="#808080" stop-opacity="0.122"/>
<stop offset="1" stop-color="#808080" stop-opacity="0.102"/>
</linearGradient>
<linearGradient id="paint7_linear" x1="67.0062" y1="25.6714" x2="67.0062" y2="24.218" gradientUnits="userSpaceOnUse">
<stop stop-color="#808080" stop-opacity="0.251"/>
<stop offset="0.54" stop-color="#808080" stop-opacity="0.122"/>
<stop offset="1" stop-color="#808080" stop-opacity="0.102"/>
</linearGradient>
<linearGradient id="paint8_linear" x1="50.7528" y1="52.6252" x2="50.7528" y2="32.8062" gradientUnits="userSpaceOnUse">
<stop stop-color="#808080" stop-opacity="0.251"/>
<stop offset="0.54" stop-color="#808080" stop-opacity="0.122"/>
<stop offset="1" stop-color="#808080" stop-opacity="0.102"/>
</linearGradient>
<linearGradient id="paint9_linear" x1="53.7051" y1="53.6863" x2="51.8924" y2="33.6843" gradientUnits="userSpaceOnUse">
<stop stop-color="#808080" stop-opacity="0.251"/>
<stop offset="0.54" stop-color="#808080" stop-opacity="0.122"/>
<stop offset="1" stop-color="#808080" stop-opacity="0.102"/>
</linearGradient>
<linearGradient id="paint10_linear" x1="60.7434" y1="38.6041" x2="60.5765" y2="36.7617" gradientUnits="userSpaceOnUse">
<stop stop-color="#808080" stop-opacity="0.251"/>
<stop offset="0.54" stop-color="#808080" stop-opacity="0.122"/>
<stop offset="1" stop-color="#808080" stop-opacity="0.102"/>
</linearGradient>
<linearGradient id="paint11_linear" x1="66.3627" y1="38.0685" x2="66.1957" y2="36.2261" gradientUnits="userSpaceOnUse">
<stop stop-color="#808080" stop-opacity="0.251"/>
<stop offset="0.54" stop-color="#808080" stop-opacity="0.122"/>
<stop offset="1" stop-color="#808080" stop-opacity="0.102"/>
</linearGradient>
<linearGradient id="paint12_linear" x1="74.5484" y1="50.9" x2="74.5484" y2="50.8654" gradientUnits="userSpaceOnUse">
<stop stop-color="#808080" stop-opacity="0.251"/>
<stop offset="0.54" stop-color="#808080" stop-opacity="0.122"/>
<stop offset="1" stop-color="#808080" stop-opacity="0.102"/>
</linearGradient>
<linearGradient id="paint13_linear" x1="65.4478" y1="50.2467" x2="75.5818" y2="50.2467" gradientUnits="userSpaceOnUse">
<stop stop-color="#808080" stop-opacity="0.251"/>
<stop offset="0.54" stop-color="#808080" stop-opacity="0.122"/>
<stop offset="1" stop-color="#808080" stop-opacity="0.102"/>
</linearGradient>
<linearGradient id="paint14_linear" x1="27.2278" y1="52.1673" x2="27.2278" y2="52.1676" gradientUnits="userSpaceOnUse">
<stop stop-color="#808080" stop-opacity="0.251"/>
<stop offset="0.54" stop-color="#808080" stop-opacity="0.122"/>
<stop offset="1" stop-color="#808080" stop-opacity="0.102"/>
</linearGradient>
<linearGradient id="paint15_linear" x1="24.4399" y1="51.4183" x2="39.8077" y2="51.4183" gradientUnits="userSpaceOnUse">
<stop stop-color="#808080" stop-opacity="0.251"/>
<stop offset="0.54" stop-color="#808080" stop-opacity="0.122"/>
<stop offset="1" stop-color="#808080" stop-opacity="0.102"/>
</linearGradient>
<linearGradient id="paint16_linear" x1="114.157" y1="95.8374" x2="114.157" y2="30.3027" gradientUnits="userSpaceOnUse">
<stop stop-color="#808080" stop-opacity="0.251"/>
<stop offset="0.54" stop-color="#808080" stop-opacity="0.122"/>
<stop offset="1" stop-color="#808080" stop-opacity="0.102"/>
</linearGradient>
<linearGradient id="paint17_linear" x1="101.303" y1="61.0394" x2="101.303" y2="40.6918" gradientUnits="userSpaceOnUse">
<stop stop-color="#808080" stop-opacity="0.251"/>
<stop offset="0.54" stop-color="#808080" stop-opacity="0.122"/>
<stop offset="1" stop-color="#808080" stop-opacity="0.102"/>
</linearGradient>
<linearGradient id="paint18_linear" x1="126.91" y1="71.2132" x2="126.91" y2="50.8656" gradientUnits="userSpaceOnUse">
<stop stop-color="#808080" stop-opacity="0.251"/>
<stop offset="0.54" stop-color="#808080" stop-opacity="0.122"/>
<stop offset="1" stop-color="#808080" stop-opacity="0.102"/>
</linearGradient>
<linearGradient id="paint19_linear" x1="114.704" y1="89.9752" x2="114.704" y2="75.9695" gradientUnits="userSpaceOnUse">
<stop stop-color="#808080" stop-opacity="0.251"/>
<stop offset="0.54" stop-color="#808080" stop-opacity="0.122"/>
<stop offset="1" stop-color="#808080" stop-opacity="0.102"/>
</linearGradient>
<linearGradient id="paint20_linear" x1="93.0073" y1="42.6705" x2="109.459" y2="42.6705" gradientUnits="userSpaceOnUse">
<stop stop-color="#808080" stop-opacity="0.251"/>
<stop offset="0.54" stop-color="#808080" stop-opacity="0.122"/>
<stop offset="1" stop-color="#808080" stop-opacity="0.102"/>
</linearGradient>
<linearGradient id="paint21_linear" x1="127.242" y1="56.679" x2="127.242" y2="54.3006" gradientUnits="userSpaceOnUse">
<stop stop-color="#808080" stop-opacity="0.251"/>
<stop offset="0.54" stop-color="#808080" stop-opacity="0.122"/>
<stop offset="1" stop-color="#808080" stop-opacity="0.102"/>
</linearGradient>
<linearGradient id="paint22_linear" x1="123.262" y1="101.206" x2="123.262" y2="98.2991" gradientUnits="userSpaceOnUse">
<stop stop-color="#808080" stop-opacity="0.251"/>
<stop offset="0.54" stop-color="#808080" stop-opacity="0.122"/>
<stop offset="1" stop-color="#808080" stop-opacity="0.102"/>
</linearGradient>
<linearGradient id="paint23_linear" x1="102.962" y1="99.6199" x2="102.962" y2="83.6328" gradientUnits="userSpaceOnUse">
<stop stop-color="#808080" stop-opacity="0.251"/>
<stop offset="0.54" stop-color="#808080" stop-opacity="0.122"/>
<stop offset="1" stop-color="#808080" stop-opacity="0.102"/>
</linearGradient>
<linearGradient id="paint24_linear" x1="86.3109" y1="94.0708" x2="86.3109" y2="86.804" gradientUnits="userSpaceOnUse">
<stop stop-color="#808080" stop-opacity="0.251"/>
<stop offset="0.54" stop-color="#808080" stop-opacity="0.122"/>
<stop offset="1" stop-color="#808080" stop-opacity="0.102"/>
</linearGradient>
<linearGradient id="paint25_linear" x1="83.3257" y1="101.206" x2="83.3257" y2="98.2991" gradientUnits="userSpaceOnUse">
<stop stop-color="#808080" stop-opacity="0.251"/>
<stop offset="0.54" stop-color="#808080" stop-opacity="0.122"/>
<stop offset="1" stop-color="#808080" stop-opacity="0.102"/>
</linearGradient>
<linearGradient id="paint26_linear" x1="66.3701" y1="89.93" x2="81.5394" y2="89.93" gradientUnits="userSpaceOnUse">
<stop stop-color="#808080" stop-opacity="0.251"/>
<stop offset="0.54" stop-color="#808080" stop-opacity="0.122"/>
<stop offset="1" stop-color="#808080" stop-opacity="0.102"/>
</linearGradient>
<clipPath id="clip0">
<rect width="163" height="112" fill="white"/>
</clipPath>
</defs>
</svg>
