<svg width="67" height="67" viewBox="0 0 67 67" fill="none" xmlns="http://www.w3.org/2000/svg">
<path d="M18.7901 0.891034C23.504 0.29862 28.2503 0.00103025 33.0013 0C37.7369 0 42.4747 0.297011 47.2124 0.891034C51.761 1.4615 55.9899 3.531 59.2312 6.7727C62.4725 10.0144 64.5415 14.2435 65.1115 18.7922C66.2962 28.2285 66.2962 37.776 65.1115 47.2124C64.541 51.761 62.4715 55.9899 59.2298 59.2312C55.9881 62.4725 51.759 64.5415 47.2104 65.1115C42.4971 65.7038 37.7515 66.0014 33.0013 66.0025C28.2656 66.0025 23.5278 65.7055 18.7901 65.1115C14.2422 64.5407 10.014 62.4713 6.77315 59.23C3.53227 55.9888 1.46336 51.7604 0.893096 47.2124C0.299993 42.4986 0.00171442 37.7523 0 33.0013C0 28.2656 0.297011 23.5278 0.891034 18.7901C1.46182 14.2422 3.53122 10.014 6.77247 6.77315C10.0137 3.53227 14.2421 1.4613 18.7901 0.891034Z" fill="#C4702E" fill-opacity="0.3"/>
<mask id="mask0" mask-type="alpha" maskUnits="userSpaceOnUse" x="1" y="0" width="66" height="67">
<path d="M19.7901 0.891034C24.504 0.29862 29.2503 0.00103025 34.0013 0C38.7369 0 43.4747 0.297011 48.2124 0.891034C52.761 1.4615 56.9899 3.531 60.2312 6.7727C63.4725 10.0144 65.5415 14.2435 66.1115 18.7922C67.2962 28.2285 67.2962 37.776 66.1115 47.2124C65.541 51.761 63.4715 55.9899 60.2298 59.2312C56.9881 62.4725 52.759 64.5415 48.2104 65.1115C43.4971 65.7038 38.7515 66.0014 34.0013 66.0025C29.2656 66.0025 24.5278 65.7055 19.7901 65.1115C15.2422 64.5407 11.014 62.4713 7.77315 59.23C4.53227 55.9888 2.46336 51.7604 1.8931 47.2124C1.29999 42.4986 1.00171 37.7523 1 33.0013C1 28.2656 1.29701 23.5278 1.89103 18.7901C2.46182 14.2422 4.53122 10.014 7.77247 6.77315C11.0137 3.53227 15.2421 1.4613 19.7901 0.891034Z" fill="#C4702E" fill-opacity="0.3"/>
</mask>
<g mask="url(#mask0)">
<path style="mix-blend-mode:multiply" opacity="0.6" d="M68.1712 44.0046C68.1712 42.7075 70 40.3744 70 40.3744L68.8463 35.7066C68.7959 35.7317 37.5 15 37.5 15H37H35H33.5H18V22.5V26.5C18 26.5 18.0185 28.6862 18 30C17.9456 32.5567 18 37 18 37L18 43.5V50C18 50 42.4572 65.8459 42.5311 65.9146C44.1751 67.4778 46.1651 68.6476 48.135 69.8293C48.6069 70.1121 49.0889 70.3832 49.5809 70.6309C50.6284 71.1552 51.6409 71.7461 52.6121 72.4C52.6121 72.4 53.9438 71.6084 55.7038 70.5841C57.0271 69.8142 58.1926 69.1799 59.3815 68.3899C60.861 67.4041 62.3624 66.4133 63.5161 65.0426C64.6209 63.703 65.5207 62.2078 66.1862 60.6057C66.5366 59.7826 66.8405 58.9405 67.0964 58.0835C67.8328 55.5423 68.248 52.9195 68.3324 50.2758C68.3993 48.4816 68.3629 46.6851 68.2232 44.895C68.2065 44.6021 68.1712 44.3025 68.1712 44.0046Z" fill="url(#paint0_linear)"/>
</g>
<path d="M37.5011 15H18V50.383H45.2393V22.7693L37.5011 15Z" fill="#C4702E"/>
<path d="M37.5011 22.7693H45.2392L37.5011 15V22.7693Z" fill="white"/>
<path d="M32.9768 21.1157H21.869V22.7382H32.9768V21.1157Z" fill="white"/>
<path d="M41.4014 26.8257H21.869V28.4482H41.4014V26.8257Z" fill="white"/>
<path d="M41.4014 30.8818H21.869V32.5044H41.4014V30.8818Z" fill="white"/>
<path d="M41.4014 34.9692H21.869V36.5918H41.4014V34.9692Z" fill="white"/>
<path d="M41.4014 39.0254H21.869V40.6479H41.4014V39.0254Z" fill="white"/>
<path d="M34.1001 43.0818H21.869V44.7043H34.1001V43.0818Z" fill="white"/>
<path d="M38.9989 42.7384L43.2111 35.0003L41.339 33.9707L37.158 41.74L35.5355 45.5778L36.69 46.2018L38.9989 42.7384Z" fill="white"/>
<path d="M48.5779 23.9238L47.673 23.4246C47.3298 23.2374 46.893 23.3622 46.7058 23.7054L41.2142 33.8773L43.3984 35.063L48.8899 24.8911C49.0459 24.5479 48.9211 24.1111 48.5779 23.9238Z" fill="white"/>
<path d="M35.5355 45.5779L33.8194 49.6029L34.2562 49.8213L36.69 46.2019L35.5355 45.5779Z" fill="#F9E9DC"/>
<path d="M44.2596 33.4523L42.0638 32.2654L41.7375 32.8692L43.9333 34.0561L44.2596 33.4523Z" fill="#F9E9DC"/>
<path d="M46.4608 24.1588L48.6566 25.3457L48.8198 25.0438L46.624 23.8569L46.4608 24.1588Z" fill="#F9E9DC"/>
<path d="M43.714 34.4694L41.5181 33.2822L41.1916 33.8861L43.3875 35.0733L43.714 34.4694Z" fill="#F9E9DC"/>
<path d="M46.1129 24.7973L46.4562 24.1733L45.3641 24.2669L41.6822 31.1001C41.5262 31.1313 41.4014 31.1937 41.339 31.3498C41.2142 31.5683 41.3078 31.8802 41.5261 32.0051C41.7446 32.1299 42.0566 32.0363 42.1814 31.8179C42.275 31.6307 42.2438 31.3811 42.0878 31.2563L45.6448 24.7039L46.1129 24.7973Z" fill="#F9E9DC"/>
<defs>
<linearGradient id="paint0_linear" x1="27.8553" y1="23.9525" x2="66.9728" y2="62.4787" gradientUnits="userSpaceOnUse">
<stop stop-color="#221E1F"/>
<stop offset="1" stop-color="white"/>
</linearGradient>
</defs>
</svg>
