<svg width="66" height="67" viewBox="0 0 66 67" fill="none" xmlns="http://www.w3.org/2000/svg">
<path d="M18.7901 0.891034C23.504 0.29862 28.2503 0.00103025 33.0013 0C37.7369 0 42.4747 0.297011 47.2124 0.891034C51.761 1.4615 55.9899 3.531 59.2312 6.7727C62.4725 10.0144 64.5415 14.2435 65.1115 18.7922C66.2962 28.2285 66.2962 37.776 65.1115 47.2124C64.541 51.761 62.4715 55.9899 59.2298 59.2312C55.9881 62.4725 51.759 64.5415 47.2104 65.1115C42.4971 65.7038 37.7515 66.0014 33.0013 66.0025C28.2656 66.0025 23.5278 65.7055 18.7901 65.1115C14.2422 64.5407 10.014 62.4713 6.77315 59.23C3.53227 55.9888 1.46336 51.7604 0.893096 47.2124C0.299993 42.4986 0.00171442 37.7523 0 33.0013C0 28.2656 0.297011 23.5278 0.891034 18.7901C1.46182 14.2422 3.53122 10.014 6.77247 6.77315C10.0137 3.53227 14.2421 1.4613 18.7901 0.891034Z" fill="#C4702E" fill-opacity="0.3"/>
<mask id="mask0" mask-type="alpha" maskUnits="userSpaceOnUse" x="0" y="0" width="66" height="67">
<path d="M18.7901 0.891034C23.504 0.29862 28.2503 0.00103025 33.0013 0C37.7369 0 42.4747 0.297011 47.2124 0.891034C51.761 1.4615 55.9899 3.531 59.2312 6.7727C62.4725 10.0144 64.5415 14.2435 65.1115 18.7922C66.2962 28.2285 66.2962 37.776 65.1115 47.2124C64.541 51.761 62.4715 55.9899 59.2298 59.2312C55.9881 62.4725 51.759 64.5415 47.2104 65.1115C42.4971 65.7038 37.7515 66.0014 33.0013 66.0025C28.2656 66.0025 23.5278 65.7055 18.7901 65.1115C14.2422 64.5407 10.014 62.4713 6.77315 59.23C3.53227 55.9888 1.46336 51.7604 0.893096 47.2124C0.299993 42.4986 0.00171442 37.7523 0 33.0013C0 28.2656 0.297011 23.5278 0.891034 18.7901C1.46182 14.2422 3.53122 10.014 6.77247 6.77315C10.0137 3.53227 14.2421 1.4613 18.7901 0.891034Z" fill="#C4702E" fill-opacity="0.3"/>
</mask>
<g mask="url(#mask0)">
<path style="mix-blend-mode:multiply" opacity="0.6" d="M67.1712 44.0046C67.1712 42.7075 69 40.3744 69 40.3744L67.8463 35.7066C67.7959 35.7317 39 16 39 16H37H35.5L20 21V25C20 25 20.0185 27.1862 20 28.5C19.9456 31.0567 20 35.5 20 35.5L20 42V44.895C20 44.895 41.4572 65.8459 41.5311 65.9146C43.1752 67.4778 45.1652 68.6476 47.135 69.8293C47.6069 70.1121 48.0889 70.3832 48.5809 70.6309C49.6284 71.1552 50.6409 71.7461 51.6122 72.4C51.6122 72.4 52.9439 71.6084 54.7038 70.5841C56.0271 69.8142 57.1926 69.1799 58.3816 68.3899C59.8611 67.4041 61.3624 66.4133 62.5161 65.0426C63.6209 63.703 64.5207 62.2078 65.1862 60.6057C65.5367 59.7826 65.8405 58.9405 66.0964 58.0835C66.8328 55.5423 67.2481 52.9195 67.3324 50.2758C67.3993 48.4816 67.3629 46.6851 67.2233 44.895C67.2065 44.6021 67.1712 44.3025 67.1712 44.0046Z" fill="url(#paint0_linear)"/>
</g>
<circle cx="32.5" cy="32.5" r="17.5" fill="#C4702E"/>
<path d="M28.7453 27.9135C28.7453 29.0275 27.8429 29.9305 26.7288 29.9305C25.6154 29.9305 24.7123 29.0275 24.7123 27.9135C24.7123 26.7994 25.6154 25.897 26.7288 25.897C27.8429 25.897 28.7453 26.7994 28.7453 27.9135Z" fill="white"/>
<path d="M40.3397 27.9135C40.3397 29.0275 39.4367 29.9305 38.3233 29.9305C37.2098 29.9305 36.3068 29.0275 36.3068 27.9135C36.3068 26.7994 37.2098 25.897 38.3233 25.897C39.4367 25.897 40.3397 26.7994 40.3397 27.9135Z" fill="white"/>
<path d="M25.3567 42.9878C24.898 42.9878 24.5257 42.616 24.5257 42.1568C24.5257 38.5698 27.4108 35.6514 30.9575 35.6514H33.7584C37.305 35.6514 40.1901 38.5537 40.1901 42.1208C40.1901 42.58 39.8184 42.9523 39.3592 42.9523C38.9005 42.9523 38.5288 42.58 38.5288 42.1208C38.5288 39.4705 36.3888 37.3138 33.7584 37.3138H30.9575C28.3272 37.3138 26.1877 39.486 26.1877 42.1567C26.1876 42.616 25.8153 42.9878 25.3567 42.9878Z" fill="white"/>
<path d="M32.5003 50.0089C22.8505 50.0089 15 42.1562 15 32.5042C15 22.8527 22.8505 15 32.5003 15C42.1495 15 50 22.8527 50 32.5042C50 42.1562 42.1495 50.0089 32.5003 50.0089ZM32.5003 16.6625C23.7667 16.6625 16.662 23.769 16.662 32.5042C16.662 41.2399 23.7668 48.3464 32.5003 48.3464C41.2333 48.3464 48.338 41.2399 48.338 32.5042C48.338 23.769 41.2333 16.6625 32.5003 16.6625Z" fill="white"/>
<defs>
<linearGradient id="paint0_linear" x1="26.8553" y1="23.9525" x2="65.9728" y2="62.4787" gradientUnits="userSpaceOnUse">
<stop stop-color="#221E1F"/>
<stop offset="1" stop-color="white"/>
</linearGradient>
</defs>
</svg>
