<svg width="66" height="67" viewBox="0 0 66 67" fill="none" xmlns="http://www.w3.org/2000/svg">
<path d="M18.7901 0.891034C23.504 0.29862 28.2503 0.00103025 33.0013 0C37.7369 0 42.4747 0.297011 47.2124 0.891034C51.761 1.4615 55.9899 3.531 59.2312 6.7727C62.4725 10.0144 64.5415 14.2435 65.1115 18.7922C66.2962 28.2285 66.2962 37.776 65.1115 47.2124C64.541 51.761 62.4715 55.9899 59.2298 59.2312C55.9881 62.4725 51.759 64.5415 47.2104 65.1115C42.4971 65.7038 37.7515 66.0014 33.0013 66.0025C28.2656 66.0025 23.5278 65.7055 18.7901 65.1115C14.2422 64.5407 10.014 62.4713 6.77315 59.23C3.53227 55.9888 1.46336 51.7604 0.893096 47.2124C0.299993 42.4986 0.00171442 37.7523 0 33.0013C0 28.2656 0.297011 23.5278 0.891034 18.7901C1.46182 14.2422 3.53122 10.014 6.77247 6.77315C10.0137 3.53227 14.2421 1.4613 18.7901 0.891034Z" fill="#C4702E" fill-opacity="0.3"/>
<mask id="mask0" mask-type="alpha" maskUnits="userSpaceOnUse" x="0" y="0" width="66" height="67">
<path d="M18.7901 0.891034C23.504 0.29862 28.2503 0.00103025 33.0013 0C37.7369 0 42.4747 0.297011 47.2124 0.891034C51.761 1.4615 55.9899 3.531 59.2312 6.7727C62.4725 10.0144 64.5415 14.2435 65.1115 18.7922C66.2962 28.2285 66.2962 37.776 65.1115 47.2124C64.541 51.761 62.4715 55.9899 59.2298 59.2312C55.9881 62.4725 51.759 64.5415 47.2104 65.1115C42.4971 65.7038 37.7515 66.0014 33.0013 66.0025C28.2656 66.0025 23.5278 65.7055 18.7901 65.1115C14.2422 64.5407 10.014 62.4713 6.77315 59.23C3.53227 55.9888 1.46336 51.7604 0.893096 47.2124C0.299993 42.4986 0.00171442 37.7523 0 33.0013C0 28.2656 0.297011 23.5278 0.891034 18.7901C1.46182 14.2422 3.53122 10.014 6.77247 6.77315C10.0137 3.53227 14.2421 1.4613 18.7901 0.891034Z" fill="#C4702E" fill-opacity="0.3"/>
</mask>
<g mask="url(#mask0)">
<path style="mix-blend-mode:multiply" opacity="0.6" d="M67.1712 44.0046C67.1712 42.7075 69 40.3744 69 40.3744L67.8463 35.7066C67.7959 35.7317 48 17 48 17C43.3499 19.3967 39.2874 19.534 36.6912 18.5549C36.1336 18.3433 35.6259 18.019 35.1999 17.6026C33.9908 16.431 32 16 32 16C32 16 28.8187 23.4319 17.5 17.6026L16 22.5C16 22.5 17.6981 24.7648 17.6981 26.0602C17.6981 27.3556 17.5184 28.6862 17.5 30C17.4456 32.5567 17.5169 34.9885 18 37.5C18.5861 40.4473 19.7805 43.4094 21.4682 45.9099C22.0378 46.7422 22.7047 47.504 23.4549 48.1793C23.5271 48.2496 41.4572 65.8459 41.531 65.9146C43.1751 67.4778 45.1651 68.6476 47.135 69.8293C47.6069 70.1121 48.0889 70.3832 48.5809 70.6309C49.6283 71.1552 50.6408 71.7461 51.6121 72.4C51.6121 72.4 52.9438 71.6084 54.7038 70.5841C56.0271 69.8142 57.1925 69.1799 58.3815 68.3899C59.861 67.4041 61.3623 66.4133 62.516 65.0426C63.6209 63.703 64.5207 62.2078 65.1862 60.6057C65.5366 59.7826 65.8405 58.9405 66.0964 58.0835C66.8328 55.5423 67.248 52.9195 67.3324 50.2758C67.3993 48.4816 67.3629 46.6851 67.2232 44.895C67.2064 44.6021 67.1712 44.3025 67.1712 44.0046Z" fill="url(#paint0_linear)"/>
</g>
<path d="M32.7263 17.3022C34.1337 18.9416 36.8166 21.1665 41.0114 21.1665C42.8791 21.144 44.7242 20.755 46.4423 20.0214L46.9346 22.0339C46.3014 22.9363 45.3985 24.4317 45.3985 25.6252C45.3985 25.8815 45.4182 26.1196 45.4364 26.3304C45.4364 26.4002 45.4485 26.4715 45.4531 26.5412C45.5751 28.1118 45.6075 29.6881 45.55 31.2624C45.4765 33.5442 45.1203 35.8081 44.4896 38.0021C44.2737 38.7303 44.0168 39.4458 43.72 40.145C43.1731 41.4722 42.4329 42.7111 41.5234 43.8212C40.622 44.8949 39.4146 45.7017 38.1376 46.551L38.08 46.5905C37.3013 47.1107 36.5121 47.5656 35.6758 48.0464L35.6365 48.0691L34.8305 48.5362C33.9867 49.0291 33.2444 49.4674 32.7642 49.7495C32.2113 49.4037 31.4371 48.9488 30.5221 48.4907C30.1055 48.2815 29.692 48.0358 29.2693 47.781L29.1617 47.7173C26.8182 46.3069 24.6049 44.9738 23.1763 42.8491C21.8553 40.8851 20.9161 38.5268 20.3828 35.8379C19.9678 33.6557 19.7825 31.4359 19.8299 29.215C19.8299 28.6917 19.8754 28.164 19.9147 27.6059C19.9617 26.9644 20.0087 26.3016 20.0087 25.6252C20.0087 24.4392 19.1103 22.9469 18.4801 22.0446L18.9816 20.026C20.8646 20.807 22.6916 21.1892 24.4201 21.1892C28.5982 21.1892 31.3008 18.9538 32.7263 17.2946V17.3022ZM32.7263 15.2139L31.6932 16.4271C30.3479 17.9922 27.9937 19.8607 24.4216 19.8607C22.8749 19.8607 21.2206 19.4997 19.5042 18.7869L18.0438 18.1803L17.6606 19.7166L17.1591 21.72L17.0076 22.3266L17.3636 22.8362C18.1665 23.9843 18.6452 25.0307 18.6452 25.6343C18.6452 26.2607 18.5998 26.8991 18.5559 27.5149C18.5134 28.0972 18.4741 28.6432 18.4665 29.2044C18.4175 31.5203 18.6105 33.8351 19.0422 36.1109C19.6118 38.9787 20.6207 41.5054 22.0417 43.6195C23.6399 45.9944 25.9804 47.4034 28.4558 48.8942L28.5649 48.9594C29.0103 49.2278 29.4481 49.4887 29.9086 49.7177C30.8175 50.1726 31.5644 50.617 32.0386 50.9127L32.7415 51.3525L33.455 50.9294C33.9231 50.6534 34.6669 50.2181 35.5153 49.7161L36.3076 49.2612L36.3515 49.2369C37.2074 48.744 38.0179 48.2784 38.8344 47.7309L38.8875 47.6991C40.2509 46.7891 41.534 45.9292 42.5611 44.7069C43.5573 43.4936 44.3685 42.1392 44.9683 40.6879C45.2845 39.9415 45.5586 39.178 45.7894 38.4009C46.4573 36.0966 46.8359 33.718 46.9165 31.32C46.9765 29.6942 46.9436 28.0662 46.818 26.4442L46.7998 26.2288V26.2182C46.7832 26.0241 46.7665 25.8254 46.7665 25.6282C46.7665 25.0216 47.2482 23.9706 48.0557 22.8226L48.4117 22.3145L48.2602 21.7079L47.7678 19.6969L47.3906 18.156L45.9242 18.7627C44.3695 19.4293 42.6994 19.7843 41.0083 19.8076C37.4134 19.8076 35.082 17.9695 33.758 16.4271L32.7233 15.2139H32.7263Z" fill="#FCFCFC"/>
<path d="M48.4116 22.3433L47.3709 18.1135C37.1604 23.4004 32.7308 15 32.7308 15C32.7308 15 28.2709 23.4004 18.0604 18.1135L17 22.3433C17 22.3433 18.6422 24.4589 18.6422 25.6328C18.6422 26.8066 18.4801 28.0123 18.4634 29.2028C18.4133 31.5194 18.6073 33.8349 19.0421 36.1108C19.5708 38.7815 20.5176 41.3537 22.0401 43.6195C23.6611 46.0308 26.1304 47.4898 28.5618 48.9593C29.0026 49.2247 29.4465 49.4886 29.9085 49.7176C30.8824 50.203 31.8231 50.7522 32.7248 51.3616C32.7248 51.3616 33.9276 50.6443 35.5137 49.7176C36.7074 49.02 37.7603 48.4452 38.8329 47.7279C40.1675 46.8346 41.5203 45.9383 42.5626 44.6947C43.5588 43.4814 44.37 42.127 44.9698 40.6758C45.2863 39.9295 45.5604 39.166 45.7908 38.3888C46.4576 36.0884 46.8357 33.7139 46.9164 31.32C46.9755 29.6941 46.9422 28.0662 46.8164 26.4441C46.7983 26.1742 46.7649 25.9027 46.7649 25.6328C46.7649 24.4589 48.4116 22.3433 48.4116 22.3433Z" fill="#C4702E"/>
<path d="M48.4116 22.3433L47.3709 18.1135C37.1604 23.4004 32.7308 15 32.7308 15C32.7308 15 28.2709 23.4004 18.0604 18.1135L17 22.3433C17 22.3433 18.6422 24.4589 18.6422 25.6328C18.6422 26.8066 18.4801 28.0123 18.4634 29.2028C18.4133 31.5194 18.6073 33.8349 19.0421 36.1108C19.5708 38.7815 20.5176 41.3537 22.0401 43.6195C23.6611 46.0308 26.1304 47.4898 28.5618 48.9593C29.0026 49.2247 29.4465 49.4886 29.9085 49.7176C30.8824 50.203 31.8231 50.7522 32.7248 51.3616C32.7248 51.3616 33.9276 50.6443 35.5137 49.7176C36.7074 49.02 37.7603 48.4452 38.8329 47.7279C40.1675 46.8346 41.5203 45.9383 42.5626 44.6947C43.5588 43.4814 44.37 42.127 44.9698 40.6758C45.2863 39.9295 45.5604 39.166 45.7908 38.3888C46.4576 36.0884 46.8357 33.7139 46.9164 31.32C46.9755 29.6941 46.9422 28.0662 46.8164 26.4441C46.7983 26.1742 46.7649 25.9027 46.7649 25.6328C46.7649 24.4589 48.4116 22.3433 48.4116 22.3433Z" stroke="white" stroke-width="2" stroke-miterlimit="10"/>
<path d="M36.5015 31.5095V29.4455C36.5078 28.5315 36.1851 27.6459 35.5926 26.9507C35.2397 26.5306 34.799 26.1931 34.3017 25.962C33.8044 25.7309 33.2625 25.6118 32.7142 25.613C32.214 25.6152 31.7192 25.7161 31.258 25.91C30.7969 26.1039 30.3784 26.3869 30.0266 26.7429C29.6748 27.0989 29.3966 27.5208 29.2079 27.9845C29.0192 28.4483 28.9238 28.9447 28.927 29.4455V31.5095H27.8665V39.6991H37.5619V31.5095H36.5015ZM33.3884 35.6483V37.4682H32.1052V35.6483C31.9256 35.5106 31.7935 35.32 31.7277 35.1033C31.6619 34.8866 31.6657 34.6547 31.7384 34.4402C31.8112 34.2257 31.9493 34.0395 32.1333 33.9077C32.3173 33.7759 32.538 33.7052 32.7642 33.7055H32.7763C32.9162 33.7055 33.0548 33.7332 33.1839 33.7871C33.3131 33.8409 33.4303 33.9198 33.5289 34.0192C33.6274 34.1185 33.7054 34.2365 33.7582 34.3661C33.8111 34.4958 33.8378 34.6347 33.8368 34.7747C33.8335 34.9449 33.7914 35.1121 33.7137 35.2635C33.636 35.4149 33.5247 35.5465 33.3884 35.6483ZM34.6836 31.5095H30.5934V29.2498C30.5934 28.0366 31.4235 27.0432 32.6385 27.0432C33.8534 27.0432 34.6836 28.0335 34.6836 29.2498V31.5095Z" fill="#FCFCFC"/>
<defs>
<linearGradient id="paint0_linear" x1="26.8553" y1="23.9525" x2="65.9728" y2="62.4787" gradientUnits="userSpaceOnUse">
<stop stop-color="#221E1F"/>
<stop offset="1" stop-color="white"/>
</linearGradient>
</defs>
</svg>
