<svg width="66" height="67" viewBox="0 0 66 67" fill="none" xmlns="http://www.w3.org/2000/svg">
<path d="M18.7901 0.891034C23.504 0.29862 28.2503 0.00103025 33.0013 0C37.7369 0 42.4747 0.297011 47.2124 0.891034C51.761 1.4615 55.9899 3.531 59.2312 6.7727C62.4725 10.0144 64.5415 14.2435 65.1115 18.7922C66.2962 28.2285 66.2962 37.776 65.1115 47.2124C64.541 51.761 62.4715 55.9899 59.2298 59.2312C55.9881 62.4725 51.759 64.5415 47.2104 65.1115C42.4971 65.7038 37.7515 66.0014 33.0013 66.0025C28.2656 66.0025 23.5278 65.7055 18.7901 65.1115C14.2422 64.5407 10.014 62.4713 6.77315 59.23C3.53227 55.9888 1.46336 51.7604 0.893096 47.2124C0.299993 42.4986 0.00171442 37.7523 0 33.0013C0 28.2656 0.297011 23.5278 0.891034 18.7901C1.46182 14.2422 3.53122 10.014 6.77247 6.77315C10.0137 3.53227 14.2421 1.4613 18.7901 0.891034Z" fill="#C4702E" fill-opacity="0.3"/>
<mask id="mask0" mask-type="alpha" maskUnits="userSpaceOnUse" x="0" y="0" width="66" height="67">
<path d="M18.7901 0.891034C23.504 0.29862 28.2503 0.00103025 33.0013 0C37.7369 0 42.4747 0.297011 47.2124 0.891034C51.761 1.4615 55.9899 3.531 59.2312 6.7727C62.4725 10.0144 64.5415 14.2435 65.1115 18.7922C66.2962 28.2285 66.2962 37.776 65.1115 47.2124C64.541 51.761 62.4715 55.9899 59.2298 59.2312C55.9881 62.4725 51.759 64.5415 47.2104 65.1115C42.4971 65.7038 37.7515 66.0014 33.0013 66.0025C28.2656 66.0025 23.5278 65.7055 18.7901 65.1115C14.2422 64.5407 10.014 62.4713 6.77315 59.23C3.53227 55.9888 1.46336 51.7604 0.893096 47.2124C0.299993 42.4986 0.00171442 37.7523 0 33.0013C0 28.2656 0.297011 23.5278 0.891034 18.7901C1.46182 14.2422 3.53122 10.014 6.77247 6.77315C10.0137 3.53227 14.2421 1.4613 18.7901 0.891034Z" fill="#C4702E" fill-opacity="0.3"/>
</mask>
<g mask="url(#mask0)">
<path style="mix-blend-mode:multiply" opacity="0.6" d="M67.1712 44.0046C67.1712 42.7075 69 40.3744 69 40.3744L67.8463 35.7066C67.7959 35.7317 46 16 46 16H39H37H35.5H20V21V25C20 25 20.0185 27.1862 20 28.5C19.9456 31.0567 20 35.5 20 35.5L20 42V48.5C20 48.5 41.4572 65.8459 41.5311 65.9146C43.1752 67.4778 45.1652 68.6476 47.135 69.8293C47.6069 70.1121 48.0889 70.3832 48.5809 70.6309C49.6284 71.1552 50.6409 71.7461 51.6122 72.4C51.6122 72.4 52.9439 71.6084 54.7038 70.5841C56.0271 69.8142 57.1926 69.1799 58.3816 68.3899C59.8611 67.4041 61.3624 66.4133 62.5161 65.0426C63.6209 63.703 64.5207 62.2078 65.1862 60.6057C65.5367 59.7826 65.8405 58.9405 66.0964 58.0835C66.8328 55.5423 67.2481 52.9195 67.3324 50.2758C67.3993 48.4816 67.3629 46.6851 67.2233 44.895C67.2065 44.6021 67.1712 44.3025 67.1712 44.0046Z" fill="url(#paint0_linear)"/>
</g>
<path d="M20 16V45.2959H38.6922C38.6922 47.3469 40.3229 49 42.3461 49C44.3693 49 46 47.3469 46 45.2959V16H20Z" fill="#C4702E"/>
<path d="M39.4866 46.0488C39.4866 45.6829 39.5737 45.3415 39.719 45H18V46.0244C18 47.6585 19.597 49 21.5424 49H43C41.0546 49 39.4866 47.6829 39.4866 46.0488Z" fill="#E29254"/>
<path d="M40.9469 20.8733H24.8256V22.182H40.9469V20.8733Z" fill="#F1F3F7"/>
<path d="M40.9469 24.8589H24.8256V26.1676H40.9469V24.8589Z" fill="#F1F3F7"/>
<path d="M40.9469 28.8447H24.8256V30.1535H40.9469V28.8447Z" fill="#F1F3F7"/>
<path d="M43 38.5564V37.4655H40.5435V35H39.4566V37.4655H37V38.5564H39.4566V41H40.5435V38.5564H43Z" fill="white"/>
<defs>
<linearGradient id="paint0_linear" x1="26.8553" y1="23.9525" x2="65.9728" y2="62.4787" gradientUnits="userSpaceOnUse">
<stop stop-color="#221E1F"/>
<stop offset="1" stop-color="white"/>
</linearGradient>
</defs>
</svg>
