<svg width="382" height="583" viewBox="0 0 382 583" fill="none" xmlns="http://www.w3.org/2000/svg">
<path opacity="0.1" d="M427.961 41.9721C427.961 41.9721 463.969 6.46465 420.796 1.27734C377.623 -3.90998 279.647 23.5887 279.647 23.5887C279.647 23.5887 138.963 36.3088 52.2876 210.062C52.2876 210.062 -19.0646 393.617 5.78035 493.475L28.8158 576.952C28.8158 576.952 46.5011 596.289 67.1099 563.38L110.497 504.022C113.521 500.662 117.295 498.022 121.539 496.295C125.783 494.568 130.389 493.799 135.019 494.044C135.019 494.044 152.296 495.597 145.928 463.064C145.928 463.064 147.022 446.514 171.11 446.197C174.322 446.516 177.551 446.105 180.544 444.998C186.873 441.124 191.819 435.46 194.74 428.744C197.661 422.028 198.42 414.571 196.92 407.344C199.942 395.916 204.184 384.849 209.577 374.322C223.33 347.935 243.683 325.432 268.798 308.847C268.798 308.847 400.478 211.669 393.651 133.876C393.208 99.9863 405.399 67.332 427.961 41.9721Z" fill="#C4702E"/>
</svg>
